<?xml version="1.0" standalone="no"?>
<!DOCTYPE svg PUBLIC "-//W3C//DTD SVG 1.1//EN" "http://www.w3.org/Graphics/SVG/1.1/DTD/svg11.dtd" >
<svg>
<metadata>
Created by FontForge 20090914 at Tue Aug 18 16:34:14 2020
 By www-data
Copyright (c) 2017 Swiss Typefaces Sarl. All rights reserved.
</metadata>
<defs>
<font id="SangBleuSunrise-Regular" horiz-adv-x="0" >
  <font-face 
    font-family="SangBleu Sunrise"
    font-weight="400"
    font-stretch="normal"
    units-per-em="1000"
    panose-1="2 11 5 4 0 0 0 0 0 4"
    ascent="758"
    descent="-242"
    x-height="502"
    cap-height="758"
    bbox="-221 -403.002 1280 1057"
    underline-thickness="45"
    underline-position="-85"
    unicode-range="U+0020-U+FEFF"
  />
<missing-glyph horiz-adv-x="644" 
d="M72 0v758h500v-758h-500zM105 739l217 -343l217 343h-434zM91 728v-698l221 349zM333 379l220 -349v698zM105 19h434l-217 343z" />
    <glyph glyph-name="f_f" unicode="ff" horiz-adv-x="736" 
d="M471 0v453h-79v49h79c13.333 83.333 39.666 150.5 78.999 201.5s92.333 76.5 159 76.5h10v-88h-68c-32.667 0 -58.667 -6.16699 -78 -18.5s-31.666 -32.5 -36.999 -60.5s1.66699 -65 21 -111h168v-49h-164v-453h-90zM127 0v453h-109v49h109
c13.333 83.333 39.666 150.5 78.999 201.5s92.333 76.5 159 76.5h10v-88h-68c-32.667 0 -58.667 -6.16699 -78 -18.5s-31.666 -32.5 -36.999 -60.5s1.66699 -65 21 -111h132v-49h-128v-453h-90z" />
    <glyph glyph-name="f_i" unicode="fi" horiz-adv-x="641" 
d="M127 0v453h-109v49h109c13.333 83.333 39.666 150.5 78.999 201.5s92.333 76.5 159 76.5h10v-88h-68c-32.667 0 -58.667 -6.16699 -78 -18.5s-31.666 -32.5 -36.999 -60.5s1.66699 -65 21 -111h162v-49h-158v-453h-90zM446 717c0 16 6.16699 30.167 18.5 42.5
s26.5 18.5 42.5 18.5c16.667 0 31.167 -6.16699 43.5 -18.5s18.5 -26.5 18.5 -42.5c0 -16.667 -6.16699 -31.167 -18.5 -43.5s-26.833 -18.5 -43.5 -18.5c-16 0 -30.167 6.16699 -42.5 18.5s-18.5 26.833 -18.5 43.5zM462 0v502h90v-502h-90z" />
    <glyph glyph-name="f_f_i" unicode="ffi" horiz-adv-x="985" 
d="M471 0v453h-79v49h79c13.333 83.333 39.666 150.5 78.999 201.5s92.333 76.5 159 76.5h10v-88h-68c-32.667 0 -58.667 -6.16699 -78 -18.5s-31.666 -32.5 -36.999 -60.5s1.66699 -65 21 -111h162v-49h-158v-453h-90zM127 0v453h-109v49h109
c13.333 83.333 39.666 150.5 78.999 201.5s92.333 76.5 159 76.5h10v-88h-68c-32.667 0 -58.667 -6.16699 -78 -18.5s-31.666 -32.5 -36.999 -60.5s1.66699 -65 21 -111h132v-49h-128v-453h-90zM790 717c0 16 6.16699 30.167 18.5 42.5s26.5 18.5 42.5 18.5
c16.667 0 31.167 -6.16699 43.5 -18.5s18.5 -26.5 18.5 -42.5c0 -16.667 -6.16699 -31.167 -18.5 -43.5s-26.833 -18.5 -43.5 -18.5c-16 0 -30.167 6.16699 -42.5 18.5s-18.5 26.833 -18.5 43.5zM806 0v502h90v-502h-90z" />
    <glyph glyph-name="f_l" unicode="fl" horiz-adv-x="645" 
d="M127 0v453h-109v49h109c13.333 83.333 39.666 150.5 78.999 201.5s92.333 76.5 159 76.5h10v-88h-68c-32.667 0 -58.667 -6.16699 -78 -18.5s-31.666 -32.5 -36.999 -60.5s1.66699 -65 21 -111h162v-49h-158v-453h-90zM466 0v780h90v-780h-90z" />
    <glyph glyph-name="f_f_l" unicode="ffl" horiz-adv-x="987" 
d="M471 0v453h-79v49h79c13.333 83.333 39.666 150.5 78.999 201.5s92.333 76.5 159 76.5h10v-88h-68c-32.667 0 -58.667 -6.16699 -78 -18.5s-31.666 -32.5 -36.999 -60.5s1.66699 -65 21 -111h162v-49h-158v-453h-90zM127 0v453h-109v49h109
c13.333 83.333 39.666 150.5 78.999 201.5s92.333 76.5 159 76.5h10v-88h-68c-32.667 0 -58.667 -6.16699 -78 -18.5s-31.666 -32.5 -36.999 -60.5s1.66699 -65 21 -111h132v-49h-128v-453h-90zM810 0v780h90v-780h-90z" />
    <glyph glyph-name=".notdef" horiz-adv-x="644" 
d="M72 0v758h500v-758h-500zM105 739l217 -343l217 343h-434zM91 728v-698l221 349zM333 379l220 -349v698zM105 19h434l-217 343z" />
    <glyph glyph-name="space" unicode=" " horiz-adv-x="234" 
 />
    <glyph glyph-name="exclam" unicode="!" horiz-adv-x="282" 
d="M127 216c-2.66699 98 -10.167 197.331 -22.5 297.998s-18.5 180.334 -18.5 239.001c0 14 18.333 21 55 21s55 -7 55 -21c0 -59.333 -6 -139.166 -18 -239.499s-19.333 -199.5 -22 -297.5h-29zM140 -12.002c-17.333 0 -32.166 6.33301 -44.499 19s-18.5 28 -18.5 46
c0 17.333 6.16699 32.166 18.5 44.499s27.166 18.5 44.499 18.5c18.667 0 34.167 -6.16699 46.5 -18.5s18.5 -27.166 18.5 -44.499c0 -18 -6.16699 -33.333 -18.5 -46s-27.833 -19 -46.5 -19z" />
    <glyph glyph-name="quotedbl" unicode="&#x22;" horiz-adv-x="416" 
d="M94 478l-30 262c-1.33301 12.667 1.16699 21.5 7.5 26.5s18.833 7.5 37.5 7.5c18 0 30 -2.5 36 -7.5s8.33301 -13.833 7 -26.5l-30 -262h-28zM294 478l-30 262c-1.33301 12.667 1.16699 21.5 7.5 26.5s18.833 7.5 37.5 7.5c18 0 30 -2.5 36 -7.5s8.33301 -13.833 7 -26.5
l-30 -262h-28z" />
    <glyph glyph-name="numbersign" unicode="#" horiz-adv-x="906" 
d="M133 0l84 206h-183l19 46h182l105 257h-183l19 46h182l90 221h50l-90 -221h232l90 221h50l-90 -221h182l-18 -46h-182l-105 -257h182l-19 -46h-181l-84 -206h-50l84 206h-232l-84 -206h-50zM285 252h232l105 257h-232z" />
    <glyph glyph-name="dollar" unicode="$" horiz-adv-x="594" 
d="M273 -130l0.000976562 117.998c-69.333 0.666992 -125.333 15 -168 43s-64 58.667 -64 92c0 14 4.5 25.5 13.5 34.5s20.833 13.5 35.5 13.5c25.333 0 42.666 -15.333 51.999 -46c10.667 -34.667 25.5 -60.5 44.5 -77.5s47.833 -26.167 86.5 -27.5v337l-30 12
c-59.333 22.667 -104.5 51.167 -135.5 85.5s-46.5 77.166 -46.5 128.499c0 52.667 20.833 96.334 62.5 131.001s91.5 54.334 149.5 59.001v114h34v-113c67.333 -1.33301 120.833 -14.5 160.5 -39.5s59.5 -52.833 59.5 -83.5c0 -14 -4.16699 -25.833 -12.5 -35.5
s-19.5 -14.5 -33.5 -14.5c-27.333 0 -45.333 16.667 -54 50c-15.333 56.667 -55.333 87 -120 91v-306l16 -6c38.667 -14.667 69.667 -27.834 93 -39.501s45.5 -26.167 66.5 -43.5s36.167 -37.666 45.5 -60.999s14 -50.666 14 -81.999c0 -60 -21.667 -109.5 -65 -148.5
s-100 -61.167 -170 -66.5v-119h-34zM270.001 449.998l3 -1v293c-40 -3.33301 -73.333 -17.5 -100 -42.5s-40 -56.167 -40 -93.5c0 -69.333 45.667 -121.333 137 -156zM464.001 170.998c0 42.667 -13 77.001 -39 103.001s-65.333 49.333 -118 70v-323
c47.333 4 85.333 19.667 114 47s43 61.666 43 102.999z" />
    <glyph glyph-name="percent" unicode="%" horiz-adv-x="909" 
d="M41 556c0 60.667 14.5 112.334 43.5 155.001s68.167 64 117.5 64s88.5 -21.333 117.5 -64s43.5 -94.334 43.5 -155.001s-14.5 -112.334 -43.5 -155.001s-68.167 -64 -117.5 -64s-88.5 21.333 -117.5 64s-43.5 94.334 -43.5 155.001zM138 0l566 758h66l-566 -758h-66z
M113 556c0 -58.667 7.5 -105.5 22.5 -140.5s37.167 -52.5 66.5 -52.5s51.5 17.5 66.5 52.5s22.5 81.833 22.5 140.5s-7.5 105.5 -22.5 140.5s-37.167 52.5 -66.5 52.5s-51.5 -17.5 -66.5 -52.5s-22.5 -81.833 -22.5 -140.5zM546 207c0 60.667 14.5 112.334 43.5 155.001
s68.167 64 117.5 64s88.5 -21.333 117.5 -64s43.5 -94.334 43.5 -155.001s-14.5 -112.334 -43.5 -155.001s-68.167 -64 -117.5 -64s-88.5 21.333 -117.5 64s-43.5 94.334 -43.5 155.001zM618 207c0 -58.667 7.5 -105.5 22.5 -140.5s37.167 -52.5 66.5 -52.5
s51.5 17.5 66.5 52.5s22.5 81.833 22.5 140.5s-7.5 105.5 -22.5 140.5s-37.167 52.5 -66.5 52.5s-51.5 -17.5 -66.5 -52.5s-22.5 -81.833 -22.5 -140.5z" />
    <glyph glyph-name="ampersand" unicode="&#x26;" horiz-adv-x="821" 
d="M301 -12c-72 0 -130.668 21.6689 -176.001 65.002s-68 94.333 -68 153c0 55.333 19.167 103.166 57.5 143.499s88.5 71.166 150.5 92.499c-32 32.667 -56 62.5 -72 89.5s-24 54.833 -24 83.5c0 47.333 19 85.666 57 114.999s86.667 44 146 44
c54 0 97.667 -12.167 131 -36.5s50 -56.833 50 -97.5c0 -44 -15.667 -80 -47 -108s-77.333 -52.333 -138 -73l216 -213c2.66699 3.33301 8.33398 13.333 17.001 30l124 226h51l-146 -269l-12 -21l168 -166l-59 -63l-156 155c-39.333 -53.333 -80.5 -91.666 -123.5 -114.999
s-91.833 -35 -146.5 -35zM248.999 642.002c0 -26.667 8.50195 -52.499 25.502 -77.499s42.5 -54.5 76.5 -88.5c92 36.667 138 88.667 138 156c0 34 -10.833 60.667 -32.5 80s-50.834 29 -87.501 29s-65.834 -9.33301 -87.501 -28s-32.5 -42.334 -32.5 -71.001z
M141.001 236.003c0 -57.333 17.833 -104 53.5 -140s78.834 -54 129.501 -54c42 0 79.667 10.167 113 30.5s66.666 53.5 99.999 99.5l-255 253c-46 -19.333 -81 -45.5 -105 -78.5s-36 -69.833 -36 -110.5z" />
    <glyph glyph-name="quotesingle" unicode="'" horiz-adv-x="216" 
d="M94 478l-30 262c-1.33301 12.667 1.16699 21.5 7.5 26.5s18.833 7.5 37.5 7.5c18 0 30 -2.5 36 -7.5s8.33301 -13.833 7 -26.5l-30 -262h-28z" />
    <glyph glyph-name="parenleft" unicode="(" horiz-adv-x="319" 
d="M284 -239c-78 67.333 -136.167 146.502 -174.5 237.502s-57.5 188.5 -57.5 292.5c0 103.333 19.167 200.5 57.5 291.5s96.5 170.167 174.5 237.5l23 -20c-116.667 -122.667 -175 -292.334 -175 -509.001s58.333 -386.334 175 -509.001z" />
    <glyph glyph-name="parenright" unicode=")" horiz-adv-x="319" 
d="M31 820c78 -67.333 136.167 -146.502 174.5 -237.502s57.5 -188.5 57.5 -292.5c0 -103.333 -19.167 -200.5 -57.5 -291.5s-96.5 -170.167 -174.5 -237.5l-23 20c116.667 122.667 175 292.334 175 509.001s-58.333 386.334 -175 509.001z" />
    <glyph glyph-name="asterisk" unicode="*" horiz-adv-x="501" 
d="M143 436l-18 12l86 142l-152 63l7 22l160 -39l13 164h23l13 -164l161 38l6 -21l-152 -63l85 -142l-18 -12l-107 125z" />
    <glyph glyph-name="plus" unicode="+" horiz-adv-x="657" 
d="M303 0v237h-239v48h239v231h50v-231h239v-48h-239v-237h-50z" />
    <glyph glyph-name="comma" unicode="," horiz-adv-x="275" 
d="M55 -186l-15 25.001c62.667 48 94 95 94 141c0 34 -22 57 -66 69c-0.666992 19.333 5.66602 35 18.999 47s29 18 47 18c21.333 0 39 -8 53 -24s21 -37.333 21 -64c0 -32.667 -12.667 -67.834 -38 -105.501s-63.666 -73.167 -114.999 -106.5z" />
    <glyph glyph-name="hyphen" unicode="-" horiz-adv-x="446" 
d="M76 236v51h294v-51h-294z" />
    <glyph glyph-name="period" unicode="." horiz-adv-x="260" 
d="M129 -12c-17.333 0 -32.166 6.33301 -44.499 19s-18.5 28 -18.5 46c0 17.333 6.16699 32.166 18.5 44.499s27.166 18.5 44.499 18.5c18.667 0 34.167 -6.16699 46.5 -18.5s18.5 -27.166 18.5 -44.499c0 -18 -6.16699 -33.333 -18.5 -46s-27.833 -19 -46.5 -19z" />
    <glyph glyph-name="slash" unicode="/" horiz-adv-x="507" 
d="M31 -52l381 828h63l-381 -828h-63z" />
    <glyph glyph-name="zero" unicode="0" horiz-adv-x="689" 
d="M61 381c0 108 25.667 200.5 77 277.5s120 115.5 206 115.5c58 0 109 -18.667 153 -56s76.833 -85.333 98.5 -144s32.5 -123 32.5 -193c0 -69.333 -10.833 -133.5 -32.5 -192.5s-54.5 -107.167 -98.5 -144.5s-95 -56 -153 -56c-57.333 0 -108 18.667 -152 56
s-76.833 85.5 -98.5 144.5s-32.5 123.167 -32.5 192.5zM163 381c0 -110 15.667 -197.333 47 -262s76 -97 134 -97s102.833 32.333 134.5 97s47.5 152 47.5 262c0 110.667 -15.667 198.334 -47 263.001s-76.333 97 -135 97c-58 0 -102.667 -32.333 -134 -97
s-47 -152.334 -47 -263.001z" />
    <glyph glyph-name="one" unicode="1" horiz-adv-x="383" 
d="M183 0v693l-159 -66v37l249 105v-769h-90z" />
    <glyph glyph-name="two" unicode="2" horiz-adv-x="602" 
d="M16 0l0.00195312 4.00098c146 142 250.833 255.167 314.5 339.5s95.5 161.166 95.5 230.499c0 47.333 -12.833 83.333 -38.5 108s-60.834 37 -105.501 37c-46 0 -84.5 -15 -115.5 -45s-48.167 -74.667 -51.5 -134h-30c0.666992 74.667 21.5 132.334 62.5 173.001
s96.833 61 167.5 61c67.333 0 118.666 -17 153.999 -51s53 -77.333 53 -130c0 -32 -7 -64.333 -21 -97s-36.333 -67.5 -67 -104.5s-61.5 -70.833 -92.5 -101.5s-72.167 -69.334 -123.5 -116.001l-99 -90h439l-30 -84h-512z" />
    <glyph glyph-name="three" unicode="3" horiz-adv-x="597" 
d="M230 -12c-55.333 0 -100.668 10.8291 -136.001 32.4961s-53 46.5 -53 74.5c0 17.333 5.16699 30.333 15.5 39s22.5 13 36.5 13c8.66699 0 16.5 -2.33301 23.5 -7s12 -8.66699 15 -12s8.16699 -11 15.5 -23s11.666 -19.333 12.999 -22c26 -40.667 59.333 -61 100 -61
c49.333 0 95 17.333 137 52s63 82 63 142c0 58.667 -18.5 105.667 -55.5 141s-77.5 53 -121.5 53c-23.333 0 -49.666 -6.66699 -78.999 -20l-8 27l37 14c52.667 20 94.334 45.667 125.001 77s46 66 46 104c0 35.333 -11.667 62 -35 80s-54.666 27 -93.999 27
c-40.667 0 -75.834 -11 -105.501 -33s-48.5 -58 -56.5 -108h-30c7.33301 64.667 31.333 113.5 72 146.5s93.667 49.5 159 49.5c52 0 94.667 -12.167 128 -36.5s50 -55.166 50 -92.499c0 -68 -47.667 -121.667 -143 -161v-2c57.333 -13.333 103.5 -39.166 138.5 -77.499
s52.5 -85.166 52.5 -140.499c0 -77.333 -30.833 -142.666 -92.5 -195.999s-134.167 -80 -217.5 -80z" />
    <glyph glyph-name="four" unicode="4" horiz-adv-x="690" 
d="M425 0v204h-403v39l413 517h80v-496h145v-60h-145v-204h-90zM99 264h326v409z" />
    <glyph glyph-name="five" unicode="5" horiz-adv-x="587" 
d="M220 -12c-55.333 0 -100.665 10.8301 -135.998 32.4971s-53 46.5 -53 74.5c0 17.333 5.16699 30.333 15.5 39s22.5 13 36.5 13c8.66699 0 16.5 -2.33301 23.5 -7s12 -8.66699 15 -12s8.16699 -11 15.5 -23s11.666 -19.333 12.999 -22c24.667 -38 61.667 -57 111 -57
c53.333 0 98.333 16.5 135 49.5s55 76.167 55 129.5c0 120 -113.333 197.333 -340 232l84 321h350l-23 -84h-316l-40 -147c119.333 -17.333 207.666 -50.666 264.999 -99.999s86 -110.666 86 -183.999c0 -69.333 -28.5 -129.166 -85.5 -179.499s-127.5 -75.5 -211.5 -75.5z
" />
    <glyph glyph-name="six" unicode="6" horiz-adv-x="638" 
d="M578 234c0 -70.667 -25.332 -129.336 -75.999 -176.003s-111.334 -70 -182.001 -70c-80.667 0 -145.167 26.333 -193.5 79s-72.5 119.334 -72.5 200.001c0 111.333 47.667 216 143 314s222.333 172.333 381 223l10 -27c-117.333 -43.333 -212 -101.166 -284 -173.499
s-117.667 -152.166 -137 -239.499c20.667 30 47.5 53.167 80.5 69.5s68.833 24.5 107.5 24.5c60.667 0 113 -19.667 157 -59s66 -94.333 66 -165zM157.001 270.998c0 -74 14.999 -134.001 44.999 -180.001s70.667 -69 122 -69c46 0 83 17.333 111 52s42 81 42 139
c0 60.667 -15.167 108.834 -45.5 144.501s-70.166 53.5 -119.499 53.5c-62.667 0 -111.667 -19.667 -147 -59c-5.33301 -28.667 -8 -55.667 -8 -81z" />
    <glyph glyph-name="seven" unicode="7" horiz-adv-x="584" 
d="M58 758h523l-460 -758h-59l415 674h-444z" />
    <glyph glyph-name="eight" unicode="8" horiz-adv-x="612" 
d="M302 -12c-70 0 -128.334 17.9971 -175.001 53.9971s-70 83 -70 141c0 89.333 61.333 157 184 203c-96.667 56 -145 124.333 -145 205c0 55.333 21 99.666 63 132.999s93 50 153 50c55.333 0 103.333 -13.833 144 -41.5s61 -65.167 61 -112.5
c0 -42 -14.5 -78.5 -43.5 -109.5s-66.833 -56.5 -113.5 -76.5l8 -5c40 -21.333 72.333 -41.666 97 -60.999s45.667 -43.666 63 -72.999s26 -61.666 26 -96.999c0 -61.333 -24.167 -111.666 -72.5 -150.999s-108.166 -59 -179.499 -59zM304.999 462.997l37 -19.999
c72.667 36.667 109 92.667 109 168c0 41.333 -13.167 73.333 -39.5 96s-60.833 34 -103.5 34s-77.167 -9.83301 -103.5 -29.5s-39.5 -47.834 -39.5 -84.501c0 -34 11.333 -63.5 34 -88.5s58 -50.167 106 -75.5zM128.999 186.998c0 -50 16.333 -89.999 49 -119.999
s75 -45 127 -45c54.667 0 97.5 12.667 128.5 38s46.5 60.333 46.5 105c0 36 -13 67.167 -39 93.5s-66 54.166 -120 83.499l-64 35c-85.333 -38.667 -128 -102 -128 -190z" />
    <glyph glyph-name="nine" unicode="9" horiz-adv-x="638" 
d="M579 496c0 -111.333 -47.668 -215.998 -143.001 -313.998s-222.333 -172.333 -381 -223l-10 27c117.333 43.333 212 101.166 284 173.499s117.667 152.166 137 239.499c-20.667 -30 -47.5 -53.167 -80.5 -69.5s-68.833 -24.5 -107.5 -24.5c-60.667 0 -113 19.667 -157 59
s-66 94.333 -66 165s25.333 129.334 76 176.001s111.334 70 182.001 70c80.667 0 145.167 -26.333 193.5 -79s72.5 -119.334 72.5 -200.001zM155.999 550.002c0 -60.667 15.168 -108.833 45.501 -144.5s70.166 -53.5 119.499 -53.5c62.667 0 111.667 19.667 147 59
c5.33301 28.667 8 55.667 8 81c0 74 -15 134 -45 180s-70.667 69 -122 69c-46 0 -83 -17.333 -111 -52s-42 -81 -42 -139z" />
    <glyph glyph-name="colon" unicode=":" horiz-adv-x="280" 
d="M139 388c-17.333 0 -32.166 6.33301 -44.499 19s-18.5 28 -18.5 46c0 17.333 6.16699 32.166 18.5 44.499s27.166 18.5 44.499 18.5c18.667 0 34.167 -6.16699 46.5 -18.5s18.5 -27.166 18.5 -44.499c0 -18 -6.16699 -33.333 -18.5 -46s-27.833 -19 -46.5 -19zM139 -12
c-17.333 0 -32.166 6.33301 -44.499 19s-18.5 28 -18.5 46c0 17.333 6.16699 32.166 18.5 44.499s27.166 18.5 44.499 18.5c18.667 0 34.167 -6.16699 46.5 -18.5s18.5 -27.166 18.5 -44.499c0 -18 -6.16699 -33.333 -18.5 -46s-27.833 -19 -46.5 -19z" />
    <glyph glyph-name="semicolon" unicode=";" horiz-adv-x="309" 
d="M156 388c-17.333 0 -32.166 6.33301 -44.499 19s-18.5 28 -18.5 46c0 17.333 6.16699 32.166 18.5 44.499s27.166 18.5 44.499 18.5c18.667 0 34.167 -6.16699 46.5 -18.5s18.5 -27.166 18.5 -44.499c0 -18 -6.16699 -33.333 -18.5 -46s-27.833 -19 -46.5 -19zM73 -186
l-15 25.001c62.667 48 94 95 94 141c0 34 -22 57 -66 69c-0.666992 19.333 5.66602 35 18.999 47s29 18 47 18c21.333 0 39 -8 53 -24s21 -37.333 21 -64c0 -32.667 -12.667 -67.834 -38 -105.501s-63.666 -73.167 -114.999 -106.5z" />
    <glyph glyph-name="less" unicode="&#x3c;" horiz-adv-x="657" 
d="M61 239v44l513 227v-52l-447 -197l447 -197v-52z" />
    <glyph glyph-name="equal" unicode="=" horiz-adv-x="657" 
d="M78 351v48h501v-48h-501zM78 117v47h501v-47h-501z" />
    <glyph glyph-name="greater" unicode="&#x3e;" horiz-adv-x="657" 
d="M592 239l-513 -227v52l447 197l-447 197v52l513 -227v-44z" />
    <glyph glyph-name="question" unicode="?" horiz-adv-x="556" 
d="M194 216l-10.002 154.001c-2 29.333 1.66699 49 11 59s30.666 18.333 63.999 25l71 14c84.667 16 127 53.667 127 113c0 44 -18.5 80.5 -55.5 109.5s-81.5 43.5 -133.5 43.5c-50.667 0 -89.667 -16.333 -117 -49l-9.5 -12.5
c-4.33301 -5.66699 -7.66602 -9.83398 -9.99902 -12.501s-5.5 -5.83398 -9.5 -9.50098s-8.66699 -6.33398 -14 -8.00098s-11 -2.5 -17 -2.5c-15.333 0 -28.166 5 -38.499 15s-15.5 22.333 -15.5 37c0 22.667 18.667 42 56 58s82.333 24 135 24
c82 0 150.333 -22.167 205 -66.5s82 -99.5 82 -165.5c0 -45.333 -13.667 -79.666 -41 -102.999s-67.666 -40 -120.999 -50l-73 -14c-24.667 -4.66699 -40.167 -10.167 -46.5 -16.5s-9.83301 -21.166 -10.5 -44.499l-3 -98h-26zM205.998 -11.999
c-17.333 0 -32.166 6.33301 -44.499 19s-18.5 28 -18.5 46c0 17.333 6.16699 32.166 18.5 44.499s27.166 18.5 44.499 18.5c18.667 0 34.167 -6.16699 46.5 -18.5s18.5 -27.166 18.5 -44.499c0 -18 -6.16699 -33.333 -18.5 -46s-27.833 -19 -46.5 -19z" />
    <glyph glyph-name="at" unicode="@" horiz-adv-x="947" 
d="M413 -12c-98 0 -181.996 29 -251.996 87s-105 135.333 -105 232c0 60 14 118.667 42 176s65 107.166 111 149.499s100.167 76.5 162.5 102.5s126.166 39 191.499 39c58.667 0 113.334 -10.167 164.001 -30.5s93.167 -52.833 127.5 -97.5s51.5 -97.667 51.5 -159
c0 -98 -31.833 -174.667 -95.5 -230s-142.834 -83 -237.501 -83c-37.333 0 -56 9.33301 -56 28c0 8 6 27.667 18 59l24 62h-4c-67.333 -98.667 -140.666 -148 -219.999 -148c-29.333 0 -53.333 8.83301 -72 26.5s-28 42.5 -28 74.5c0 50.667 20.167 103.334 60.5 158.001
s89.166 99.5 146.499 134.5s110 52.5 158 52.5c40 0 82 -12.333 126 -37l-125 -318c-9.33301 -24 -14 -39 -14 -45c0 -8 7.66699 -12 23 -12c68 0 128 24.333 180 73s78 116 78 202c0 79.333 -29.833 141.833 -89.5 187.5s-132.834 68.5 -219.501 68.5
c-78.667 0 -152.334 -19 -221.001 -57s-123.5 -89.5 -164.5 -154.5s-61.5 -135.167 -61.5 -210.5c0 -86 28.5 -156.5 85.5 -211.5s132.833 -82.5 227.5 -82.5c82.667 0 156 15.667 220 47l13 -28c-70.667 -36.667 -152.334 -55 -245.001 -55zM372.004 221
c35.333 0 75.333 18.667 120 56s80 90.333 106 159l53 135c-12 13.333 -31.333 20 -58 20c-61.333 0 -123.5 -33 -186.5 -99s-94.5 -133.333 -94.5 -202c0 -46 20 -69 60 -69z" />
    <glyph glyph-name="A" unicode="A" horiz-adv-x="759" 
d="M641 0l-121 285h-329l-120 -285h-56l323 764h82l325 -764h-104zM211 332h289l-145 340z" />
    <glyph glyph-name="B" unicode="B" horiz-adv-x="738" 
d="M371 0l-261 0.000976562v758h235c92 0 163.333 -13.167 214 -39.5s76 -70.5 76 -132.5c0 -50 -18.833 -90.833 -56.5 -122.5s-88.834 -51.167 -153.501 -58.5v-1c80 -1.33301 143.5 -17.333 190.5 -48s70.5 -76.334 70.5 -137.001c0 -68 -26.667 -121.5 -80 -160.5
s-131.666 -58.5 -234.999 -58.5zM207 421.001h145c54 0 97.5 13 130.5 39s49.5 62.667 49.5 110c0 96 -67 144 -201 144h-124v-293zM207 44.001h134c158 0 237 57.333 237 172c0 109.333 -74.667 164 -224 164h-147v-336z" />
    <glyph glyph-name="C" unicode="C" horiz-adv-x="820" 
d="M481 -12c-125.333 0 -227.503 35.501 -306.503 106.501s-118.5 166.5 -118.5 286.5c0 119.333 40 214.666 120 285.999s183.333 107 310 107c104.667 0 187 -17.333 247 -52l19 -196h-30l-54 154c-6 17.333 -27.667 30.333 -65 39s-77.333 13 -120 13
s-82.167 -6 -118.5 -18s-69.666 -30.5 -99.999 -55.5s-54.166 -59.5 -71.499 -103.5s-26 -95.667 -26 -155c0 -112 28.833 -201.667 86.5 -269s136.5 -101 236.5 -101c42.667 0 82.334 4.33301 119.001 13s58 21.667 64 39l54 154h30l-19 -196
c-28 -16 -66.167 -28.667 -114.5 -38s-95.833 -14 -142.5 -14z" />
    <glyph glyph-name="D" unicode="D" horiz-adv-x="841" 
d="M322 0h-212v758h208c66 0 126.5 -7.33301 181.5 -22s104 -36.667 147 -66s76.667 -68.333 101 -117s36.5 -105 36.5 -169s-12.167 -121 -36.5 -171s-57.833 -90.167 -100.5 -120.5s-91.5 -53.333 -146.5 -69s-114.5 -23.5 -178.5 -23.5zM207 44l111 -0.000976562
c110 0 196.833 26.833 260.5 80.5s95.5 138.834 95.5 255.501s-31.833 201.5 -95.5 254.5s-150.5 79.5 -260.5 79.5h-111v-670z" />
    <glyph glyph-name="E" unicode="E" horiz-adv-x="667" 
d="M110 0v758h500v-47h-403v-292h345v-47h-345v-325h403v-47h-500z" />
    <glyph glyph-name="F" unicode="F" horiz-adv-x="648" 
d="M110 0v758h508v-47h-411v-292h364v-47h-364v-372h-97z" />
    <glyph glyph-name="G" unicode="G" horiz-adv-x="863" 
d="M491 774c44.667 0 89.6699 -4.49805 135.003 -13.498s82.333 -21.833 111 -38.5l18 -186h-30l-53 144c-6.66699 17.333 -28.834 30.333 -66.501 39s-77.834 13 -120.501 13c-32.667 0 -63.667 -3.5 -93 -10.5s-58 -18.833 -86 -35.5s-52 -37.334 -72 -62.001
s-36.167 -56.167 -48.5 -94.5s-18.5 -81.5 -18.5 -129.5c0 -112 29.167 -201.333 87.5 -268s138.5 -100 240.5 -100c74 0 134.333 12.333 181 37v257h-218v47h315v-323c-76.667 -41.333 -172.334 -62 -287.001 -62c-127.333 0 -230.833 35.5 -310.5 106.5
s-119.5 166.5 -119.5 286.5c0 119.333 40.5 214.666 121.5 285.999s185.5 107 313.5 107z" />
    <glyph glyph-name="H" unicode="H" horiz-adv-x="858" 
d="M110 0v758h97v-339h444v339h97v-758h-97v372h-444v-372h-97z" />
    <glyph glyph-name="I" unicode="I" horiz-adv-x="317" 
d="M110 0v758h97v-758h-97z" />
    <glyph glyph-name="J" unicode="J" horiz-adv-x="324" 
d="M-10 -143l-18.001 26.998l19 16c28.667 24 48.834 41.667 60.501 53s24 26.333 37 45s21.5 38.334 25.5 59.001s6 46.334 6 77.001v624h97v-615c0 -51.333 -8.16699 -90.833 -24.5 -118.5s-46.833 -58.5 -91.5 -92.5c-18.667 -14.667 -55.667 -39.667 -111 -75z" />
    <glyph glyph-name="K" unicode="K" horiz-adv-x="775" 
d="M110 0v758h97v-371l2 2l450 369h72l-419 -344l477 -414h-138l-444 381v-381h-97z" />
    <glyph glyph-name="L" unicode="L" horiz-adv-x="621" 
d="M110 0v758h97v-711h397v-47h-494z" />
    <glyph glyph-name="M" unicode="M" horiz-adv-x="1004" 
d="M162 646v-646h-52v758h100l299 -489l296 489h89v-758h-97v646l-297 -485h-40z" />
    <glyph glyph-name="N" unicode="N" horiz-adv-x="850" 
d="M162 758l526 -607v607h52v-758h-52l-526 613v-613h-52v758h52z" />
    <glyph glyph-name="O" unicode="O" horiz-adv-x="918" 
d="M459 -12c-112.667 0 -208 36.667 -286 110s-117 167.666 -117 282.999s38.833 209.666 116.5 282.999s173.167 110 286.5 110c112.667 0 208 -36.667 286 -110s117 -167.666 117 -282.999s-39 -209.666 -117 -282.999s-173.333 -110 -286 -110zM463 30
c79.333 0 146.834 28.499 202.501 85.499s83.5 138.5 83.5 244.5c0 114.667 -27.833 205.334 -83.5 272.001s-125.834 100 -210.501 100c-80 0 -147.833 -28.333 -203.5 -85s-83.5 -138 -83.5 -244c0 -115.333 28 -206.333 84 -273s126.333 -100 211 -100z" />
    <glyph glyph-name="P" unicode="P" horiz-adv-x="716" 
d="M207 0h-97.002v758h256c46.667 0 87.834 -3 123.501 -9s68.834 -16.167 99.501 -30.5s54.167 -35.333 70.5 -63s24.5 -61.167 24.5 -100.5c0 -140 -106 -210 -318 -210h-159v-345zM206.998 714v-324h151c70 0 123.833 12 161.5 36s56.5 65.667 56.5 125
s-19 101.333 -57 126s-91.667 37 -161 37h-151z" />
    <glyph glyph-name="Q" unicode="Q" horiz-adv-x="918" 
d="M459 -12c-112.667 0 -208 36.6689 -286 110.002s-117 167.666 -117 282.999s38.833 209.666 116.5 282.999s173.167 110 286.5 110c112.667 0 208 -36.667 286 -110s117 -167.666 117 -282.999c0 -75.333 -17.833 -142.833 -53.5 -202.5s-83.5 -105.834 -143.5 -138.501
l130 -147l-33 -32l-140 158c-52 -20.667 -106.333 -31 -163 -31zM463 30.002c45.333 0 86.668 9.33105 124.001 27.998l-121 136l33 32l128 -144c81.333 58.667 122 151.334 122 278.001c0 114.667 -27.833 205.334 -83.5 272.001s-125.834 100 -210.501 100
c-80 0 -147.833 -28.333 -203.5 -85s-83.5 -138 -83.5 -244c0 -115.333 28 -206.333 84 -273s126.333 -100 211 -100z" />
    <glyph glyph-name="R" unicode="R" horiz-adv-x="739" 
d="M207 0h-97v758h208c47.333 0 89 -3 125 -9s68.5 -16 97.5 -30s51 -33.5 66 -58.5s22.5 -55.5 22.5 -91.5c0 -56.667 -19.5 -100.667 -58.5 -132s-94.167 -51 -165.5 -59l347 -378h-125l-332 364h-88v-364zM207 408l99 0.00195312c69.333 0 122.5 11.667 159.5 35
s55.5 62.666 55.5 117.999s-18.5 94.666 -55.5 117.999s-90.5 35 -160.5 35h-98v-306z" />
    <glyph glyph-name="S" unicode="S" horiz-adv-x="644" 
d="M316 -12c-88.667 0 -161.999 13.668 -219.999 41.001l-20 209h30l55 -162c10.667 -30.667 62 -46 154 -46c54 0 97.333 12.5 130 37.5s49 59.5 49 103.5s-14 78.167 -42 102.5s-72.667 46.5 -134 66.5l-54 18c-126.667 42.667 -190 115.667 -190 219
c0 60 26.167 107.833 78.5 143.5s115.166 53.5 188.499 53.5c76 0 135.667 -11 179 -33l27 -195h-30l-57 143c-11.333 28.667 -53 43 -125 43c-48 0 -88.167 -10.833 -120.5 -32.5s-48.5 -51.834 -48.5 -90.501c0 -36 10 -66 30 -90s52 -43.333 96 -58l54 -18
c79.333 -26 139.5 -56.667 180.5 -92s61.5 -84 61.5 -146c0 -63.333 -26.333 -115.333 -79 -156s-117 -61 -193 -61z" />
    <glyph glyph-name="T" unicode="T" horiz-adv-x="698" 
d="M300 0v711h-289v47h676v-47h-289v-711h-98z" />
    <glyph glyph-name="U" unicode="U" horiz-adv-x="830" 
d="M411 -12c-206.667 0 -309.999 99.666 -309.999 298.999v471h97v-465c0 -88 19.167 -152.667 57.5 -194s98.166 -62 179.499 -62c85.333 0 147 22.833 185 68.5s57 111.834 57 198.501v454h52v-463c0 -204.667 -106 -307 -318 -307z" />
    <glyph glyph-name="V" unicode="V" horiz-adv-x="744" 
d="M347 -6l-334 764h106l277 -637l277 637h57l-333 -764h-50z" />
    <glyph glyph-name="W" unicode="W" horiz-adv-x="1105" 
d="M273 -6l-251 764h102l203 -629l219 629h52l223 -624l205 624h57l-251 -764h-60l-222 614l-217 -614h-60z" />
    <glyph glyph-name="X" unicode="X" horiz-adv-x="741" 
d="M-3 0l327 386l-287 372h119l231 -298l252 298h64l-286 -337l326 -421h-120l-268 347l-295 -347h-63z" />
    <glyph glyph-name="Y" unicode="Y" horiz-adv-x="769" 
d="M433 342v-342h-97v342l-316 416h114l275 -363l277 363h63z" />
    <glyph glyph-name="Z" unicode="Z" horiz-adv-x="678" 
d="M18 0v44l509 667h-454v47h564v-45l-508 -666h510v-47h-621z" />
    <glyph glyph-name="bracketleft" unicode="[" horiz-adv-x="300" 
d="M103 -226v1038h162v-29l-43 -2c-22.667 -1.33301 -38.167 -5.66602 -46.5 -12.999s-12.5 -21.333 -12.5 -42v-866c0 -20.667 4.16699 -34.667 12.5 -42s23.833 -11.666 46.5 -12.999l43 -2v-29h-162z" />
    <glyph glyph-name="backslash" unicode="\" horiz-adv-x="508" 
d="M477 -52h-63l-382 828h63z" />
    <glyph glyph-name="bracketright" unicode="]" horiz-adv-x="300" 
d="M193 811v-1038h-162v29l43 2c22.667 1.33301 38.167 5.66602 46.5 12.999s12.5 21.333 12.5 42v866c0 20.667 -4.16699 34.667 -12.5 42s-23.833 11.666 -46.5 12.999l-43 2v29h162z" />
    <glyph glyph-name="asciicircum" unicode="^" horiz-adv-x="657" 
d="M94 361l210 415h48l210 -415h-52l-182 362l-182 -362h-52z" />
    <glyph glyph-name="underscore" unicode="_" horiz-adv-x="620" 
d="M16 -99v45h588v-45h-588z" />
    <glyph glyph-name="grave" unicode="`" 
d="M95 605h-26l-184 163v7h102z" />
    <glyph glyph-name="a" unicode="a" horiz-adv-x="563" 
d="M204 -12c-46.667 0 -85.334 12.167 -116.001 36.5s-46 56.166 -46 95.499c0 96.667 109.667 155.667 329 177v36c0 53.333 -8.83301 92.5 -26.5 117.5s-45.167 37.5 -82.5 37.5c-42 0 -71.333 -11 -88 -33c-6 -7.33301 -9.66699 -15.666 -11 -24.999
s-1.33301 -20.333 0 -33s2 -19.667 2 -21c0 -13.333 -4 -24 -12 -32s-18.333 -12 -31 -12c-14 0 -25.167 4.33301 -33.5 13s-12.5 20.334 -12.5 35.001c0 36 18.333 67.667 55 95s82.334 41 137.001 41c64 0 112 -14.333 144 -43s47.667 -77.334 47 -146.001l-1 -230
c0 -24 2.83301 -40.833 8.5 -50.5s15.167 -14.5 28.5 -14.5c22 0 40.667 13.333 56 40l16 -9c-21.333 -49.333 -57.333 -74 -108 -74c-26 0 -46.833 8.33301 -62.5 25s-23.5 42 -23.5 76v28c-20 -86.667 -76.333 -130 -169 -130zM246 31c33.333 0 62.499 12 87.499 36
s37.5 61.333 37.5 112v94c-35.333 -4.66699 -65.833 -10.167 -91.5 -16.5s-49.667 -14.833 -72 -25.5s-39.166 -24 -50.499 -40s-17 -34.667 -17 -56c0 -28.667 9.66699 -53.167 29 -73.5s45 -30.5 77 -30.5z" />
    <glyph glyph-name="b" unicode="b" horiz-adv-x="631" 
d="M177 0l-90 0.00195312v780h90v-352c36 58.667 91 88 165 88c70.667 0 128 -24.833 172 -74.5s66 -112.834 66 -189.501s-22 -139.834 -66 -189.501s-101.333 -74.5 -172 -74.5c-74 0 -129 29.333 -165 88v-76zM303 472.002c-52 0 -94 -18.667 -126 -56v-328
c32.667 -37.333 74.667 -56 126 -56c53.333 0 96.333 20.667 129 62s49 94 49 158s-16.333 116.667 -49 158s-75.667 62 -129 62z" />
    <glyph glyph-name="c" unicode="c" horiz-adv-x="579" 
d="M307 -12c-76.667 0 -138.5 24.668 -185.5 74.001s-70.5 112 -70.5 188c0 81.333 25.333 146 76 194s112.667 72 186 72c58.667 0 106.334 -11.833 143.001 -35.5s55 -49.834 55 -78.501c0 -14 -3.83301 -25.333 -11.5 -34s-17.5 -13 -29.5 -13
c-27.333 0 -46.333 16.667 -57 50c-6.66699 25.333 -18 45.333 -34 60s-41.667 22 -77 22c-46 0 -84.167 -17.333 -114.5 -52s-45.5 -83 -45.5 -145c0 -74 18.167 -133 54.5 -177s84.166 -66 143.499 -66c94 0 154 48 180 144h27c-28.667 -135.333 -108.667 -203 -240 -203z
" />
    <glyph glyph-name="d" unicode="d" horiz-adv-x="631" 
d="M289 -12c-70.667 0 -128 24.8311 -172 74.498s-66 112.834 -66 189.501s22 139.834 66 189.501s101.333 74.5 172 74.5c74 0 129 -29.333 165 -88v352h90v-780h-90v76c-36 -58.667 -91 -88 -165 -88zM150 251.998c0 -64 16.333 -116.667 49 -158s75.667 -62 129 -62
c52 0 94 18.667 126 56v328c-32.667 37.333 -74.667 56 -126 56c-53.333 0 -96.333 -20.667 -129 -62s-49 -94 -49 -158z" />
    <glyph glyph-name="e" unicode="e" horiz-adv-x="594" 
d="M307 -12c-76.667 0 -138.5 24.666 -185.5 73.999s-70.5 112 -70.5 188c0 80 25.167 144.333 75.5 193s108.5 73 174.5 73c64 0 118 -18.5 162 -55.5s71 -89.833 81 -158.5h-402v-12c0 -74 18.333 -133 55 -177s84.667 -66 144 -66c96 0 157.333 46.333 184 139h27
c-14 -65.333 -41.833 -114.666 -83.5 -147.999s-95.5 -50 -161.5 -50zM299 486.999c-38.667 0 -72.168 -13.167 -100.501 -39.5s-46.166 -63.5 -53.499 -111.5h296c-4 50.667 -18.833 88.5 -44.5 113.5s-58.167 37.5 -97.5 37.5z" />
    <glyph glyph-name="f" unicode="f" horiz-adv-x="392" 
d="M127 0v453h-109v49h109c13.333 83.333 39.666 150.5 78.999 201.5s92.333 76.5 159 76.5h10v-88h-68c-32.667 0 -58.667 -6.16699 -78 -18.5s-31.666 -32.5 -36.999 -60.5s1.66699 -65 21 -111h168v-49h-164v-453h-90z" />
    <glyph glyph-name="g" unicode="g" horiz-adv-x="590" 
d="M281 173c-25.333 0 -48.999 2.99805 -70.999 8.99805c-26.667 -7.33301 -50.334 -17.666 -71.001 -30.999s-31 -27.333 -31 -42c0 -32 36 -48 108 -48h114c76 0 133.833 -9.5 173.5 -28.5s59.5 -53.833 59.5 -104.5c0 -40.667 -15.5 -75.334 -46.5 -104.001
s-68 -48.834 -111 -60.501s-88.833 -17.5 -137.5 -17.5c-70.667 0 -127.334 11.667 -170.001 35s-64 53.333 -64 90c0 26.667 12.167 49.5 36.5 68.5s57.5 33.167 99.5 42.5c-39.333 2 -70.333 11 -93 27s-34 38 -34 66c0 24.667 14.167 47.334 42.5 68.001
s64.166 35.667 107.499 45c-36.667 12.667 -65.667 32.834 -87 60.501s-32 59.5 -32 95.5c0 50 19.333 91.167 58 123.5s88.334 48.5 149.001 48.5c50.667 0 94.334 -12 131.001 -36l30 59h167l-31 -63h-160c46.667 -32.667 70 -76.667 70 -132
c0 -49.333 -19.5 -90.166 -58.5 -122.499s-88.5 -48.5 -148.5 -48.5zM281.001 196.998c36.667 0 65 13.333 85 40s30 62.334 30 107.001c0 45.333 -10 81.333 -30 108s-48.333 40 -85 40s-65.167 -13.333 -85.5 -40s-30.5 -62.667 -30.5 -108
c0 -44.667 10.167 -80.334 30.5 -107.001s48.833 -40 85.5 -40zM115.001 -116.002c0 -34.667 13.832 -61.666 41.499 -80.999s66.834 -29 117.501 -29c58 0 106 9.66699 144 29s57 48.666 57 87.999c0 32 -12.667 55 -38 69s-64 21 -116 21h-131h-4
c-47.333 -18 -71 -50.333 -71 -97z" />
    <glyph glyph-name="h" unicode="h" horiz-adv-x="604" 
d="M177 0l-90 -0.000976562v780h90v-420c8.66699 52.667 29 91.834 61 117.501s70.667 38.5 116 38.5c112.667 0 169 -66.667 169 -200v-316h-90v299c0 108 -41 162 -123 162c-38 0 -69.667 -13.333 -95 -40s-38 -67.667 -38 -123v-298z" />
    <glyph glyph-name="i" unicode="i" horiz-adv-x="268" 
d="M73 717c0 16 6.16699 30.167 18.5 42.5s26.5 18.5 42.5 18.5c16.667 0 31.167 -6.16699 43.5 -18.5s18.5 -26.5 18.5 -42.5c0 -16.667 -6.16699 -31.167 -18.5 -43.5s-26.833 -18.5 -43.5 -18.5c-16 0 -30.167 6.16699 -42.5 18.5s-18.5 26.833 -18.5 43.5zM89 0v502h90
v-502h-90z" />
    <glyph glyph-name="j" unicode="j" horiz-adv-x="274" 
d="M79 717c0 16 6.16699 30.167 18.5 42.5s26.5 18.5 42.5 18.5c16.667 0 31.167 -6.16699 43.5 -18.5s18.5 -26.5 18.5 -42.5c0 -16.667 -6.16699 -31.167 -18.5 -43.5s-26.833 -18.5 -43.5 -18.5c-16 0 -30.167 6.16699 -42.5 18.5s-18.5 26.833 -18.5 43.5zM-22 -261
l-15.999 22.001l44 37.5c8 7 18.833 17.667 32.5 32s22.667 26.333 27 36s9.5 23 15.5 40s9.83301 35.167 11.5 54.5s2.5 42.333 2.5 69v472h90v-468c0 -58.667 -6.83301 -102.834 -20.5 -132.501s-38.167 -58.5 -73.5 -86.5c-22.667 -16.667 -60.334 -42 -113.001 -76z" />
    <glyph glyph-name="k" unicode="k" horiz-adv-x="572" 
d="M87 0v780h90v-508l290 230h65l-259 -206l309 -296h-120l-285 267v-267h-90z" />
    <glyph glyph-name="l" unicode="l" horiz-adv-x="268" 
d="M89 0v780h90v-780h-90z" />
    <glyph glyph-name="m" unicode="m" horiz-adv-x="939" 
d="M177 0l-90 -0.00195312v502h90v-142c8.66699 52.667 28.667 91.834 60 117.501s69.333 38.5 114 38.5c98.667 0 153.667 -53 165 -159c9.33301 54.667 29.833 94.834 61.5 120.501s69.834 38.5 114.501 38.5c110.667 0 166 -66.667 166 -200v-316h-90v299
c0 108 -40.333 162 -121 162c-36.667 0 -67.334 -13.333 -92.001 -40s-37 -67.667 -37 -123v-298h-90v299c0 108 -40.333 162 -121 162c-37.333 0 -68.333 -13.333 -93 -40s-37 -67.667 -37 -123v-298z" />
    <glyph glyph-name="n" unicode="n" horiz-adv-x="604" 
d="M177 0l-90 -0.000976562v502h90v-142c8.66699 52.667 29 91.834 61 117.501s70.667 38.5 116 38.5c112.667 0 169 -66.667 169 -200v-316h-90v299c0 108 -41 162 -123 162c-38 0 -69.667 -13.333 -95 -40s-38 -67.667 -38 -123v-298z" />
    <glyph glyph-name="o" unicode="o" horiz-adv-x="634" 
d="M317 -12c-75.333 0 -138.666 24.667 -189.999 74s-77 112.666 -77 189.999c0 78 25.667 141.5 77 190.5s114.666 73.5 189.999 73.5s138.666 -24.5 189.999 -73.5s77 -112.5 77 -190.5c0 -77.333 -25.667 -140.666 -77 -189.999s-114.666 -74 -189.999 -74zM323 22
c44.667 0 82.834 17 114.501 51s47.5 84 47.5 150c0 68.667 -16.333 129.167 -49 181.5s-74.334 78.5 -125.001 78.5c-44.667 0 -82.834 -17.167 -114.501 -51.5s-47.5 -84.5 -47.5 -150.5c0 -68.667 16.333 -129 49 -181s74.334 -78 125.001 -78z" />
    <glyph glyph-name="p" unicode="p" horiz-adv-x="631" 
d="M87 -248v750.002h90v-74c36 58.667 91 88 165 88c70.667 0 128 -24.833 172 -74.5s66 -112.834 66 -189.501s-22 -139.834 -66 -189.501s-101.333 -74.5 -172 -74.5c-74 0 -129 29.333 -165 88v-324h-90zM303 472.002c-52 0 -94 -18.667 -126 -56v-328
c32.667 -37.333 74.667 -56 126 -56c53.333 0 96.333 20.667 129 62s49 94 49 158s-16.333 116.667 -49 158s-75.667 62 -129 62z" />
    <glyph glyph-name="q" unicode="q" horiz-adv-x="631" 
d="M289 -12c-70.667 0 -128 24.8311 -172 74.498s-66 112.834 -66 189.501s22 139.834 66 189.501s101.333 74.5 172 74.5c74 0 129 -29.333 165 -88v74h90v-750h-90v324c-36 -58.667 -91 -88 -165 -88zM150 251.998c0 -64 16.333 -116.667 49 -158s75.667 -62 129 -62
c52 0 94 18.667 126 56v328c-32.667 37.333 -74.667 56 -126 56c-53.333 0 -96.333 -20.667 -129 -62s-49 -94 -49 -158z" />
    <glyph glyph-name="r" unicode="r" horiz-adv-x="392" 
d="M87 0l-0.000976562 502h90v-152c22.667 107.333 84.334 161 185.001 161h8v-85h-33c-106.667 0 -160 -40.667 -160 -122v-304h-90z" />
    <glyph glyph-name="s" unicode="s" horiz-adv-x="489" 
d="M228 -12c-56.667 0 -107.334 10.667 -152.001 32l-18 167h30l42 -124c5.33301 -16 17.333 -26.667 36 -32s43.667 -8 75 -8c30.667 0 57.5 8.16699 80.5 24.5s34.5 38.833 34.5 67.5c0 26.667 -8.83301 47 -26.5 61s-43.5 24.667 -77.5 32l-48 11
c-42.667 10 -76 27.833 -100 53.5s-36 58.167 -36 97.5c0 44 18.333 79.333 55 106s82.334 40 137.001 40c50.667 0 94.334 -11 131.001 -33l25 -148h-30l-46 104c-12.667 28.667 -44.334 43 -95.001 43c-29.333 0 -54 -7.66699 -74 -23s-30 -35 -30 -59
c0 -47.333 30.667 -78 92 -92l48 -11c103.333 -23.333 155 -74 155 -152c0 -47.333 -19.667 -85.333 -59 -114s-89 -43 -149 -43z" />
    <glyph glyph-name="t" unicode="t" horiz-adv-x="412" 
d="M242 -12c-40 0 -69.333 8.66797 -88 26.001s-28 48.666 -28 93.999v345h-111v49h111v116l90 41v-157h188v-49h-188v-346c0 -30 7 -50.333 21 -61s36 -16 66 -16c34 0 63 3 87 9v-32c-50.667 -12.667 -100 -19 -148 -19z" />
    <glyph glyph-name="u" unicode="u" horiz-adv-x="598" 
d="M421 502h90v-502h-90v145c-8.66699 -53.333 -28.667 -92.833 -60 -118.5s-69.333 -38.5 -114 -38.5c-110.667 0 -166 67 -166 201v313h89v-297c0 -108 40.333 -162 121 -162c36.667 0 67.5 13.5 92.5 40.5s37.5 67.833 37.5 122.5v296z" />
    <glyph glyph-name="v" unicode="v" horiz-adv-x="552" 
d="M538 502l-245 -506h-34l-245 506h98l188 -389l188 389h50z" />
    <glyph glyph-name="w" unicode="w" horiz-adv-x="868" 
d="M115 502l156 -390l168 390h37l171 -385l155 385h49l-205 -506h-39l-175 387l-169 -387h-41l-205 506h98z" />
    <glyph glyph-name="x" unicode="x" horiz-adv-x="555" 
d="M73 0h-58l220 245l-204 257h109l153 -193l174 193h58l-205 -227l218 -275h-109l-167 210z" />
    <glyph glyph-name="y" unicode="y" horiz-adv-x="559" 
d="M123 -248l128 256l-236 494h99l187 -393l196 393h51l-375 -750h-50z" />
    <glyph glyph-name="z" unicode="z" horiz-adv-x="517" 
d="M31 0v35l329 418h-303v49h417v-35l-329 -418h328v-49h-442z" />
    <glyph glyph-name="braceleft" unicode="{" horiz-adv-x="349" 
d="M318 -236c-30.667 4.66699 -58.667 12.5 -84 23.5s-48.166 25.833 -68.499 44.5s-34.5 42.667 -42.5 72s-8.33301 62.333 -1 99l20 103c10 53.333 4.33301 93 -17 119s-55 43 -101 51v26c97.333 15.333 136.666 72 117.999 170l-20 103c-7.33301 36.667 -7 69.667 1 99
s22.167 53.333 42.5 72s43.166 33.5 68.499 44.5s53.333 18.833 84 23.5l6 -29c-105.333 -20 -146.666 -81.667 -123.999 -185l19 -89c14 -65.333 7.5 -116.5 -19.5 -153.5s-62.833 -59.5 -107.5 -67.5v-2c44.667 -8 80.5 -30.5 107.5 -67.5s33.5 -88.167 19.5 -153.5
l-19 -90c-11.333 -54 -6.5 -95.833 14.5 -125.5s57.5 -49.167 109.5 -58.5z" />
    <glyph glyph-name="bar" unicode="|" horiz-adv-x="264" 
d="M103 -226v1038h58v-1038h-58z" />
    <glyph glyph-name="braceright" unicode="}" horiz-adv-x="349" 
d="M27 814c30.667 -4.66699 58.667 -12.5 84 -23.5s48.166 -25.833 68.499 -44.5s34.5 -42.667 42.5 -72s8.33301 -62.333 1 -99l-20 -103c-10 -53.333 -4.33301 -93 17 -119s55 -43 101 -51v-26c-97.333 -15.333 -136.666 -72 -117.999 -170l20 -103
c7.33301 -36.667 7 -69.667 -1 -99s-22.167 -53.333 -42.5 -72s-43.166 -33.5 -68.499 -44.5s-53.333 -18.833 -84 -23.5l-6 29c105.333 20 146.666 81.667 123.999 185l-19 89c-14 65.333 -7.5 116.5 19.5 153.5s62.833 59.5 107.5 67.5v2
c-44.667 8 -80.5 30.5 -107.5 67.5s-33.5 88.167 -19.5 153.5l19 90c11.333 54 6.5 95.833 -14.5 125.5s-57.5 49.167 -109.5 58.5z" />
    <glyph glyph-name="asciitilde" unicode="~" horiz-adv-x="657" 
d="M211 330c24.667 0 48.6689 -4.83105 72.002 -14.498s42.666 -20.334 57.999 -32.001s32.666 -22.334 51.999 -32.001s37.666 -14.5 54.999 -14.5c54.667 0 85.334 29.667 92.001 89h48c-4 -42.667 -19.167 -75.334 -45.5 -98.001s-57.833 -34 -94.5 -34
c-28 0 -55.5 7.66699 -82.5 23l-79.5 46c-26 15.333 -51.333 23 -76 23c-54.667 0 -85.334 -29.333 -92.001 -88h-48c4 42.667 19.333 75.334 46 98.001s58.334 34 95.001 34z" />
    <glyph glyph-name="uni00A0" unicode="&#xa0;" horiz-adv-x="234" 
 />
    <glyph glyph-name="exclamdown" unicode="&#xa1;" horiz-adv-x="266" 
d="M132 519c18.667 0 34.167 -6.33301 46.5 -19s18.5 -28 18.5 -46c0 -17.333 -6.16699 -32.166 -18.5 -44.499s-27.833 -18.5 -46.5 -18.5c-17.333 0 -32.166 6.16699 -44.499 18.5s-18.5 27.166 -18.5 44.499c0 18 6.16699 33.333 18.5 46s27.166 19 44.499 19zM121 291
h28c2.66699 -98 10.167 -196.167 22.5 -294.5s18.5 -177.166 18.5 -236.499c0 -14 -18.333 -21 -55 -21s-55 7 -55 21c0 59.333 6.16699 138.166 18.5 236.499s19.833 196.5 22.5 294.5z" />
    <glyph glyph-name="cent" unicode="&#xa2;" horiz-adv-x="591" 
d="M295 -130v118c-72 4 -129.833 30.5 -173.5 79.5s-65.5 109.833 -65.5 182.5c0 76.667 22.833 138.667 68.5 186s102.5 73.666 170.5 78.999v126h34v-125c55.333 -2 100.333 -14.667 135 -38s52 -48.666 52 -75.999c0 -14 -3.83301 -25.333 -11.5 -34s-17.5 -13 -29.5 -13
c-27.333 0 -46.333 16.667 -57 50c-6 22.667 -15.5 41 -28.5 55s-33.167 22.667 -60.5 26v-438c3.33301 -0.666992 8.66602 -1 15.999 -1c94 0 154 48 180 144h27c-27.333 -129.333 -101.666 -197 -222.999 -203v-118h-34zM147 290c0 -62.667 13.333 -114.999 40 -156.999
s62.667 -68.667 108 -80v434c-42.667 -3.33301 -78 -22.333 -106 -57s-42 -81.334 -42 -140.001z" />
    <glyph glyph-name="sterling" unicode="&#xa3;" horiz-adv-x="645" 
d="M40 0l-0.00195312 4l112 101c66 59.333 99 112.666 99 159.999c0 19.333 -4.66699 39.333 -14 60h-168v43h145c-1.33301 2.66699 -3.5 6.33398 -6.5 11.001l-6.5 10l-34 55c-36 58.667 -54 107 -54 145c0 52.667 25.5 96.667 76.5 132s113.833 53 188.5 53
c46.667 0 86.334 -7.33301 119.001 -22s49 -35.667 49 -63c0 -14 -4.33301 -25.667 -13 -35s-20.667 -14 -36 -14c-18 0 -34.333 9.66699 -49 29c0 0.666992 -2.5 4.16699 -7.5 10.5s-8.5 10.666 -10.5 12.999s-6 6.5 -12 12.5s-11.667 10.333 -17 13
s-12 5.83398 -20 9.50098s-17 6.33398 -27 8.00098s-21 2.5 -33 2.5c-37.333 0 -68.166 -10.167 -92.499 -30.5s-36.5 -44.833 -36.5 -73.5c0 -30 17.333 -72.667 52 -128l36 -57c22 -34.667 36 -61.667 42 -81h193v-43h-187c0 -32 -8.16699 -63.333 -24.5 -94
s-49.833 -67.334 -100.5 -110.001l-52 -44h455l-19 -77h-547z" />
    <glyph glyph-name="yen" unicode="&#xa5;" horiz-adv-x="779" 
d="M155 186v44h190v88h-190v43h176l-303 397h108l277 -366l278 366h60l-302 -397h176v-43h-190v-88h190v-44h-190v-186h-90v186h-190z" />
    <glyph glyph-name="brokenbar" unicode="&#xa6;" horiz-adv-x="264" 
d="M103 399v394h58v-394h-58zM103 -211v394h58v-394h-58z" />
    <glyph glyph-name="section" unicode="&#xa7;" horiz-adv-x="571" 
d="M221 -196c-48 0 -88.5059 9.83203 -121.506 29.499s-49.5 43.5 -49.5 71.5c0 15.333 4.83301 27.666 14.5 36.999s21.834 14 36.501 14c10 0 18.667 -2.66699 26 -8s13 -10.833 17 -16.5s8.66699 -13.834 14 -24.501c0.666992 -1.33301 2.83398 -5.16602 6.50098 -11.499
l7.5 -13c1.33301 -2.33301 3.83301 -6.16602 7.5 -11.499s6.83398 -9.33301 9.50098 -12l10.5 -10c4.33301 -4 8.66602 -6.83301 12.999 -8.5s9.5 -3.16699 15.5 -4.5s12.333 -2 19 -2c31.333 0 57.5 12.833 78.5 38.5s31.5 59.5 31.5 101.5
c0 72.667 -31.333 141.667 -94 207l-82 87c-43.333 46 -75.5 88.167 -96.5 126.5s-31.5 80.5 -31.5 126.5c0 76 30.167 138 90.5 186s131.166 72 212.499 72c42 0 77.5 -6.83301 106.5 -20.5s43.5 -34.167 43.5 -61.5c0 -16.667 -5 -30 -15 -40s-23 -15 -39 -15
c-6.66699 0 -12.667 0.833008 -18 2.5s-10.166 4.83398 -14.499 9.50098l-10 11c-2.33301 2.66699 -5.66602 8 -9.99902 16s-7.16602 13 -8.49902 15c-6 10 -11.167 17.833 -15.5 23.5s-12 11.667 -23 18s-23.5 9.5 -37.5 9.5c-29.333 0 -55.166 -12 -77.499 -36
s-33.5 -54.667 -33.5 -92c0 -31.333 7.83301 -61.166 23.5 -89.499s40.834 -60.833 75.501 -97.5l82 -87c52 -56 88.333 -102.333 109 -139s31 -78.334 31 -125.001c0 -76 -29.333 -141.167 -88 -195.5s-130.667 -81.5 -216 -81.5zM392.994 -96.001
c50.667 42.667 76 96.6631 76 161.996c0 30 -7.16699 60.333 -21.5 91s-29.333 55.834 -45 75.501s-37.5 44.167 -65.5 73.5l-82 87c-68 73.333 -102 138 -102 194c0 30.667 6.33301 62.334 19 95.001c-44.667 -38.667 -67 -88 -67 -148c0 -62 30.333 -125.333 91 -190
l82 -87c45.333 -47.333 79 -89.166 101 -125.499s33 -75.833 33 -118.5c0 -47.333 -6.33301 -83.666 -19 -108.999z" />
    <glyph glyph-name="dieresis" unicode="&#xa8;" 
d="M-116 645c-16 0 -30.167 6.16699 -42.5 18.5s-18.5 26.833 -18.5 43.5c0 16 6.16699 30.167 18.5 42.5s26.5 18.5 42.5 18.5c16.667 0 31.167 -6.16699 43.5 -18.5s18.5 -26.5 18.5 -42.5c0 -16.667 -6.16699 -31.167 -18.5 -43.5s-26.833 -18.5 -43.5 -18.5zM115 645
c-16 0 -30.167 6.16699 -42.5 18.5s-18.5 26.833 -18.5 43.5c0 16 6.16699 30.167 18.5 42.5s26.5 18.5 42.5 18.5c16.667 0 31.167 -6.16699 43.5 -18.5s18.5 -26.5 18.5 -42.5c0 -16.667 -6.16699 -31.167 -18.5 -43.5s-26.833 -18.5 -43.5 -18.5z" />
    <glyph glyph-name="copyright" unicode="&#xa9;" horiz-adv-x="895" 
d="M447 -12c-112 0 -205.167 37.333 -279.5 112s-111.5 168.334 -111.5 281.001c0 113.333 37.167 207.166 111.5 281.499s167.5 111.5 279.5 111.5c112.667 0 206.167 -37.167 280.5 -111.5s111.5 -168.166 111.5 -281.499c0 -112.667 -37.167 -206.334 -111.5 -281.001
s-167.833 -112 -280.5 -112zM447 23c98 0 180.833 32.833 248.5 98.5s101.5 152.167 101.5 259.5s-33.833 194 -101.5 260s-150.5 99 -248.5 99s-180.667 -33 -248 -99s-101 -152.667 -101 -260s33.667 -193.833 101 -259.5s150 -98.5 248 -98.5zM463 163
c-72 0 -131.168 20.5 -177.501 61.5s-69.5 95.167 -69.5 162.5s23.333 121.333 70 162s106.334 61 179.001 61c54.667 0 99.334 -8.33301 134.001 -25l26 -130h-18l-52 91c-6 10.667 -14.333 19 -25 25c-14 8.66699 -36.333 13 -67 13
c-48.667 0 -89.834 -14.833 -123.501 -44.5s-50.5 -76.167 -50.5 -139.5c0 -62.667 16 -113.5 48 -152.5s76 -58.5 132 -58.5c30 0 52 4 66 12c12 7.33301 20.667 16 26 26l54 93h17l-30 -132c-34.667 -16.667 -81 -25 -139 -25z" />
    <glyph glyph-name="ordfeminine" unicode="&#xaa;" horiz-adv-x="526" 
d="M188 354c-38 0 -69.5 10.5 -94.5 31.5s-37.5 47.167 -37.5 78.5c0 79.333 89 127.333 267 144v33c0 76.667 -30 115 -90 115c-32 0 -55 -9 -69 -27c-7.33301 -9.33301 -11 -29 -11 -59c0 -10 -3.16699 -19 -9.5 -27s-16.166 -12 -29.499 -12c-23.333 0 -35 12 -35 36
c0 31.333 15.667 58 47 80s71.333 33 120 33c50 0 88.5 -11.5 115.5 -34.5s40.5 -62.5 40.5 -118.5l-1 -182c-0.666992 -19.333 1.33301 -33 6 -41s12.667 -12 24 -12c18.667 0 33.667 10.667 45 32l14 -7c-17.333 -42 -48 -63 -92 -63c-20.667 0 -37.834 6.5 -51.501 19.5
s-20.5 31.833 -20.5 56.5v27c-16.667 -68.667 -62.667 -103 -138 -103zM223 391c27.333 0 50.833 9.33398 70.5 28.001s29.5 47.667 29.5 87v81c-58 -8 -102.5 -20.833 -133.5 -38.5s-46.5 -42.834 -46.5 -75.501c0 -22.667 7.16699 -42 21.5 -58s33.833 -24 58.5 -24z" />
    <glyph glyph-name="guillemotleft" unicode="&#xab;" horiz-adv-x="547" 
d="M255 29l-206 225l206 225l29 -20l-126 -205l126 -205zM461 29l-206 225l206 225l29 -20l-126 -205l126 -205z" />
    <glyph glyph-name="uni00AD" unicode="&#xad;" horiz-adv-x="446" 
d="M76 236v51h294v-51h-294z" />
    <glyph glyph-name="registered" unicode="&#xae;" horiz-adv-x="895" 
d="M447 -12c-112 0 -205.167 37.333 -279.5 112s-111.5 168.334 -111.5 281.001c0 113.333 37.167 207.166 111.5 281.499s167.5 111.5 279.5 111.5c112.667 0 206.167 -37.167 280.5 -111.5s111.5 -168.166 111.5 -281.499c0 -112.667 -37.167 -206.334 -111.5 -281.001
s-167.833 -112 -280.5 -112zM447 23c98 0 180.833 32.833 248.5 98.5s101.5 152.167 101.5 259.5s-33.833 194 -101.5 260s-150.5 99 -248.5 99s-180.667 -33 -248 -99s-101 -152.667 -101 -260s33.667 -193.833 101 -259.5s150 -98.5 248 -98.5zM352 179h-65.001v430h136
c118.667 0 178 -35.667 178 -107c0 -28.667 -10.167 -52.667 -30.5 -72s-49.166 -32 -86.499 -38l188 -213h-81l-180 205h-59v-205zM351.999 414h64c76 0 114 27.667 114 83c0 54.667 -38 82 -114 82h-64v-165z" />
    <glyph glyph-name="macron" unicode="&#xaf;" 
d="M-148 668v43h296v-43h-296z" />
    <glyph glyph-name="degree" unicode="&#xb0;" horiz-adv-x="444" 
d="M222 436c-47.333 0 -87.5 16.333 -120.5 49s-49.5 72.667 -49.5 120s16.5 87.333 49.5 120s73.167 49 120.5 49s87.5 -16.333 120.5 -49s49.5 -72.667 49.5 -120s-16.5 -87.333 -49.5 -120s-73.167 -49 -120.5 -49zM222 478c34 0 63.333 11.833 88 35.5
s37 54.167 37 91.5c0 38 -12.333 68.833 -37 92.5s-54 35.5 -88 35.5s-63.333 -11.833 -88 -35.5s-37 -54.5 -37 -92.5c0 -37.333 12.333 -67.833 37 -91.5s54 -35.5 88 -35.5z" />
    <glyph glyph-name="plusminus" unicode="&#xb1;" horiz-adv-x="657" 
d="M303 103v189h-227v48h227v184h50v-184h228v-48h-228v-189h-50zM76 0v48h505v-48h-505z" />
    <glyph glyph-name="twosuperior" unicode="&#xb2;" horiz-adv-x="350" 
d="M20 401v1.99902c77.333 76.667 133 138.5 167 185.5s51 89.167 51 126.5c0 24.667 -6.5 44.167 -19.5 58.5s-31.833 21.5 -56.5 21.5s-44.834 -8 -60.501 -24s-24.167 -39.333 -25.5 -70h-21c0.666992 40.667 12.834 72.334 36.501 95.001s55.167 34 94.5 34
c36 0 64.5 -9 85.5 -27s31.5 -42 31.5 -72c0 -32.667 -13 -66.167 -39 -100.5s-63 -72.833 -111 -115.5l-63 -56h218l-21 -58h-267z" />
    <glyph glyph-name="threesuperior" unicode="&#xb3;" horiz-adv-x="357" 
d="M142 392c-30.667 0 -56.167 7.66797 -76.5 23.001s-30.5 31.333 -30.5 48c0 8.66699 3 16 9 22s13.667 9 23 9c12.667 0 23.667 -10.333 33 -31c13.333 -30.667 35.333 -46 66 -46c24 0 45.333 9 64 27s28 42.667 28 74s-9.83301 56.666 -29.5 75.999
s-40.834 29 -63.501 29c-13.333 0 -28 -3.33301 -44 -10l-6 18l23 9c28 10.667 50.167 24.5 66.5 41.5s24.5 35.167 24.5 54.5c0 18.667 -6.16699 33.167 -18.5 43.5s-28.5 15.5 -48.5 15.5c-50.667 0 -78.667 -26 -84 -78h-20c2.66699 35.333 15.834 63 39.501 83
s54.167 30 91.5 30c28 0 51.5 -6.66699 70.5 -20s28.5 -30.333 28.5 -51c0 -36.667 -27 -65 -81 -85v-2c32.667 -8.66699 58.667 -24 78 -46s29 -47.667 29 -77c0 -44 -16.833 -81.167 -50.5 -111.5s-74.167 -45.5 -121.5 -45.5z" />
    <glyph glyph-name="acute" unicode="&#xb4;" 
d="M-100 605l109 170h101v-7l-184 -163h-26z" />
    <glyph glyph-name="paragraph" unicode="&#xb6;" horiz-adv-x="561" 
d="M273 -220l0.000976562 506.001c-74.667 1.33301 -132.834 22.166 -174.501 62.499s-62.5 93.5 -62.5 159.5c0 73.333 29.167 133.333 87.5 180s139.5 70 243.5 70h80v-851l-57 -41v436c-25.333 -8 -50.333 -13 -75 -15v-476z" />
    <glyph glyph-name="periodcentered" unicode="&#xb7;" horiz-adv-x="278" 
d="M138 197c-17.333 0 -32.166 6.33301 -44.499 19s-18.5 28 -18.5 46c0 17.333 6.16699 32.166 18.5 44.499s27.166 18.5 44.499 18.5c18.667 0 34.167 -6.16699 46.5 -18.5s18.5 -27.166 18.5 -44.499c0 -18 -6.16699 -33.333 -18.5 -46s-27.833 -19 -46.5 -19z" />
    <glyph glyph-name="cedilla" unicode="&#xb8;" 
d="M-18 -257c-24 0 -45.001 5.33105 -63.001 15.998s-27 24 -27 40c0 8 3.5 14.5 10.5 19.5s15.833 6.5 26.5 4.5c0.666992 -18 7.5 -32.167 20.5 -42.5s28.167 -15.5 45.5 -15.5c16 0 29.333 3.83301 40 11.5s16 17.5 16 29.5c0 13.333 -9.83301 26.333 -29.5 39
s-48.5 27.334 -86.5 44.001l111 114h32l-83 -85c32.667 -16.667 56.167 -31.667 70.5 -45s21.5 -29.666 21.5 -48.999c0 -22 -9.66699 -41 -29 -57s-44.666 -24 -75.999 -24z" />
    <glyph glyph-name="onesuperior" unicode="&#xb9;" horiz-adv-x="246" 
d="M111 401v373l-84 -34v25l146 61v-425h-62z" />
    <glyph glyph-name="ordmasculine" unicode="&#xba;" horiz-adv-x="529" 
d="M265 354c-61.333 0 -112.333 19.833 -153 59.5s-61 90.834 -61 153.501s20.333 113.834 61 153.501s91.667 59.5 153 59.5s112.166 -19.833 152.499 -59.5s60.5 -90.834 60.5 -153.501s-20.167 -113.834 -60.5 -153.501s-91.166 -59.5 -152.499 -59.5zM270 383
c34.667 0 63.666 13.167 86.999 39.5s35 66.166 35 119.499c0 56 -12.167 105 -36.5 147s-56.166 63 -95.499 63c-34.667 0 -63.667 -13.167 -87 -39.5s-35 -66.166 -35 -119.499c0 -56 12 -105 36 -147s56 -63 96 -63z" />
    <glyph glyph-name="guillemotright" unicode="&#xbb;" horiz-adv-x="547" 
d="M82 29l-29 20l126 205l-126 205l29 20l206 -225zM288 29l-29 20l126 205l-126 205l29 20l206 -225z" />
    <glyph glyph-name="onequarter" unicode="&#xbc;" horiz-adv-x="806" 
d="M111 341v373l-84 -34v25l146 61v-425h-62zM21 0l566 758h65l-566 -758h-65zM635 0v109h-212v27l219 281h56v-267h77v-41h-77v-109h-63zM472 150h163v207z" />
    <glyph glyph-name="onehalf" unicode="&#xbd;" horiz-adv-x="772" 
d="M111 341v373l-84 -34v25l146 61v-425h-62zM21 0l566 758h65l-566 -758h-65zM443 0v1.99902c77.333 76.667 133 138.5 167 185.5s51 89.167 51 126.5c0 24.667 -6.5 44.167 -19.5 58.5s-31.833 21.5 -56.5 21.5s-44.834 -8 -60.501 -24s-24.167 -39.333 -25.5 -70h-21
c0.666992 40.667 12.834 72.334 36.501 95.001s55.167 34 94.5 34c36 0 64.5 -9 85.5 -27s31.5 -42 31.5 -72c0 -32.667 -13 -66.167 -39 -100.5s-63 -72.833 -111 -115.5l-63 -56h218l-21 -58h-267z" />
    <glyph glyph-name="threequarters" unicode="&#xbe;" horiz-adv-x="917" 
d="M142 332c-30.667 0 -56.167 7.66797 -76.5 23.001s-30.5 31.333 -30.5 48c0 8.66699 3 16 9 22s13.667 9 23 9c12.667 0 23.667 -10.333 33 -31c13.333 -30.667 35.333 -46 66 -46c24 0 45.333 9 64 27s28 42.667 28 74s-9.83301 56.666 -29.5 75.999
s-40.834 29 -63.501 29c-13.333 0 -28 -3.33301 -44 -10l-6 18l23 9c28 10.667 50.167 24.5 66.5 41.5s24.5 35.167 24.5 54.5c0 18.667 -6.16699 33.167 -18.5 43.5s-28.5 15.5 -48.5 15.5c-50.667 0 -78.667 -26 -84 -78h-20c2.66699 35.333 15.834 63 39.501 83
s54.167 30 91.5 30c28 0 51.5 -6.66699 70.5 -20s28.5 -30.333 28.5 -51c0 -36.667 -27 -65 -81 -85v-2c32.667 -8.66699 58.667 -24 78 -46s29 -47.667 29 -77c0 -44 -16.833 -81.167 -50.5 -111.5s-74.167 -45.5 -121.5 -45.5zM132 0.000976562l566 758h65l-566 -758h-65z
M746 0.000976562v109h-212v27l219 281h56v-267h77v-41h-77v-109h-63zM583 150.001h163v207z" />
    <glyph glyph-name="questiondown" unicode="&#xbf;" horiz-adv-x="548" 
d="M345 519c17.333 0 32.166 -6.33301 44.499 -19s18.5 -28 18.5 -46c0 -17.333 -6.16699 -32.166 -18.5 -44.499s-27.166 -18.5 -44.499 -18.5c-18.667 0 -34.167 6.16699 -46.5 18.5s-18.5 27.166 -18.5 44.499c0 18 6.16699 33.333 18.5 46s27.833 19 46.5 19zM325 -262
c-82 0 -150.332 22.167 -204.999 66.5s-82 99.5 -82 165.5c0 45.333 13.667 79.666 41 102.999s67.666 40 120.999 50l73 14c24.667 4.66699 40.167 10.167 46.5 16.5s9.83301 21.166 10.5 44.499l3 93h26l10 -149c2 -29.333 -1.66699 -49 -11 -59
s-30.666 -18.333 -63.999 -25l-71 -14c-84.667 -16 -127 -53.667 -127 -113c0 -44 18.5 -80.5 55.5 -109.5s81.5 -43.5 133.5 -43.5c54 0 93.667 15 119 45l9.5 12.5c4.33301 5.66699 7.66602 9.83398 9.99902 12.501s5.5 5.83398 9.5 9.50098s8.66699 6.33398 14 8.00098
s11 2.5 17 2.5c15.333 0 27.833 -4.33301 37.5 -13s14.5 -20.334 14.5 -35.001c0 -22.667 -18.667 -42 -56 -58s-82.333 -24 -135 -24z" />
    <glyph glyph-name="Agrave" unicode="&#xc0;" horiz-adv-x="759" 
d="M426 843h-28l-221 127v2h122zM641 0l-121 285h-329l-120 -285h-56l323 764h82l325 -764h-104zM211 332h289l-145 340z" />
    <glyph glyph-name="Aacute" unicode="&#xc1;" horiz-adv-x="759" 
d="M351 843l127 129h122v-2l-221 -127h-28zM641 0l-121 285h-329l-120 -285h-56l323 764h82l325 -764h-104zM211 332h289l-145 340z" />
    <glyph glyph-name="Acircumflex" unicode="&#xc2;" horiz-adv-x="759" 
d="M217 837l157 146h10l157 -146h-28l-134 74l-134 -74h-28zM641 0l-121 285h-329l-120 -285h-56l323 764h82l325 -764h-104zM211 332h289l-145 340z" />
    <glyph glyph-name="Atilde" unicode="&#xc3;" horiz-adv-x="759" 
d="M457 833c-24.667 0 -53.501 11.333 -86.501 34s-58.167 34 -75.5 34c-35.333 0 -54 -20.333 -56 -61h-22c0 34 8.16699 64 24.5 90s37.833 39 64.5 39c20.667 0 47.834 -11.5 81.501 -34.5s59.5 -34.5 77.5 -34.5c34 0 52 20 54 60h22c0 -40.667 -8.5 -72 -25.5 -94
s-36.5 -33 -58.5 -33zM640.999 0l-121 285h-329l-120 -285h-56l323 764h82l325 -764h-104zM210.999 332h289l-145 340z" />
    <glyph glyph-name="Adieresis" unicode="&#xc4;" horiz-adv-x="759" 
d="M263 858c-16 0 -30.167 6.16699 -42.5 18.5s-18.5 26.833 -18.5 43.5c0 16 6.16699 30.167 18.5 42.5s26.5 18.5 42.5 18.5c16.667 0 31.167 -6.16699 43.5 -18.5s18.5 -26.5 18.5 -42.5c0 -16.667 -6.16699 -31.167 -18.5 -43.5s-26.833 -18.5 -43.5 -18.5zM494 858
c-16 0 -30.167 6.16699 -42.5 18.5s-18.5 26.833 -18.5 43.5c0 16 6.16699 30.167 18.5 42.5s26.5 18.5 42.5 18.5c16.667 0 31.167 -6.16699 43.5 -18.5s18.5 -26.5 18.5 -42.5c0 -16.667 -6.16699 -31.167 -18.5 -43.5s-26.833 -18.5 -43.5 -18.5zM641 0l-121 285h-329
l-120 -285h-56l323 764h82l325 -764h-104zM211 332h289l-145 340z" />
    <glyph glyph-name="Aring" unicode="&#xc5;" horiz-adv-x="759" 
d="M379 835c-31.333 0 -58.333 10.8291 -81 32.4961s-34 47.834 -34 78.501s11.333 56.834 34 78.501s49.667 32.5 81 32.5c32.667 0 60.167 -10.667 82.5 -32s33.5 -47.666 33.5 -78.999s-11.167 -57.666 -33.5 -78.999s-49.833 -32 -82.5 -32zM379 869.996
c22.667 0 41 7 55 21s21 32.333 21 55c0 22 -7 40 -21 54s-32.333 21 -55 21c-22 0 -40.167 -7 -54.5 -21s-21.5 -32 -21.5 -54c0 -22.667 7.16699 -41 21.5 -55s32.5 -21 54.5 -21zM641 -0.00390625l-121 285h-329l-120 -285h-56l323 764h82l325 -764h-104zM211 331.996
h289l-145 340z" />
    <glyph glyph-name="AE" unicode="&#xc6;" horiz-adv-x="1063" 
d="M506 0v285h-265l-195 -285h-59l519 758h500v-47h-402v-292h344v-47h-344v-325h402v-47h-500zM273 332h233v340z" />
    <glyph glyph-name="Ccedilla" unicode="&#xc7;" horiz-adv-x="820" 
d="M414 -260c-24 0 -45.0039 5.33203 -63.0039 15.999s-27 24.334 -27 41.001c0 8 3.5 14.333 10.5 19s15.833 6 26.5 4c0.666992 -18 7.5 -32.167 20.5 -42.5s28.167 -15.5 45.5 -15.5c16 0 29.333 3.83301 40 11.5s16 17.5 16 29.5c0 13.333 -9.66699 26.333 -29 39
s-48 27.334 -86 44.001l99 102c-122 3.33301 -221 40.333 -297 111s-114 164.667 -114 282c0 119.333 40 214.666 120 285.999s183.333 107 310 107c104.667 0 187 -17.333 247 -52l19 -196h-30l-54 154c-6 17.333 -27.667 30.333 -65 39s-77.333 13 -120 13
s-82.167 -6 -118.5 -18s-69.666 -30.5 -99.999 -55.5s-54.166 -59.5 -71.499 -103.5s-26 -95.667 -26 -155c0 -112 28.833 -201.667 86.5 -269s136.5 -101 236.5 -101c42.667 0 82.334 4.33301 119.001 13s58 21.667 64 39l54 154h30l-19 -196
c-55.333 -32 -135.333 -49.333 -240 -52l-71 -73c32.667 -16 56.167 -30.667 70.5 -44s21.5 -30 21.5 -50c0 -22 -9.66699 -41 -29 -57s-44.666 -24 -75.999 -24z" />
    <glyph glyph-name="Egrave" unicode="&#xc8;" horiz-adv-x="667" 
d="M427 843h-28l-221 127v2h122zM110 0v758h500v-47h-403v-292h345v-47h-345v-325h403v-47h-500z" />
    <glyph glyph-name="Eacute" unicode="&#xc9;" horiz-adv-x="667" 
d="M352 843l127 129h122v-2l-221 -127h-28zM110 0v758h500v-47h-403v-292h345v-47h-345v-325h403v-47h-500z" />
    <glyph glyph-name="Ecircumflex" unicode="&#xca;" horiz-adv-x="667" 
d="M218 837l157 146h10l157 -146h-28l-134 74l-134 -74h-28zM110 0v758h500v-47h-403v-292h345v-47h-345v-325h403v-47h-500z" />
    <glyph glyph-name="Edieresis" unicode="&#xcb;" horiz-adv-x="667" 
d="M264 858c-16 0 -30.167 6.16699 -42.5 18.5s-18.5 26.833 -18.5 43.5c0 16 6.16699 30.167 18.5 42.5s26.5 18.5 42.5 18.5c16.667 0 31.167 -6.16699 43.5 -18.5s18.5 -26.5 18.5 -42.5c0 -16.667 -6.16699 -31.167 -18.5 -43.5s-26.833 -18.5 -43.5 -18.5zM495 858
c-16 0 -30.167 6.16699 -42.5 18.5s-18.5 26.833 -18.5 43.5c0 16 6.16699 30.167 18.5 42.5s26.5 18.5 42.5 18.5c16.667 0 31.167 -6.16699 43.5 -18.5s18.5 -26.5 18.5 -42.5c0 -16.667 -6.16699 -31.167 -18.5 -43.5s-26.833 -18.5 -43.5 -18.5zM110 0v758h500v-47h-403
v-292h345v-47h-345v-325h403v-47h-500z" />
    <glyph glyph-name="Igrave" unicode="&#xcc;" horiz-adv-x="317" 
d="M205 843h-28l-221 127v2h122zM110 0v758h97v-758h-97z" />
    <glyph glyph-name="Iacute" unicode="&#xcd;" horiz-adv-x="317" 
d="M130 843l127 129h122v-2l-221 -127h-28zM110 0v758h97v-758h-97z" />
    <glyph glyph-name="Icircumflex" unicode="&#xce;" horiz-adv-x="317" 
d="M-4 837l157 146h10l157 -146h-28l-134 74l-134 -74h-28zM110 0v758h97v-758h-97z" />
    <glyph glyph-name="Idieresis" unicode="&#xcf;" horiz-adv-x="317" 
d="M42 858c-16 0 -30.167 6.16699 -42.5 18.5s-18.5 26.833 -18.5 43.5c0 16 6.16699 30.167 18.5 42.5s26.5 18.5 42.5 18.5c16.667 0 31.167 -6.16699 43.5 -18.5s18.5 -26.5 18.5 -42.5c0 -16.667 -6.16699 -31.167 -18.5 -43.5s-26.833 -18.5 -43.5 -18.5zM273 858
c-16 0 -30.167 6.16699 -42.5 18.5s-18.5 26.833 -18.5 43.5c0 16 6.16699 30.167 18.5 42.5s26.5 18.5 42.5 18.5c16.667 0 31.167 -6.16699 43.5 -18.5s18.5 -26.5 18.5 -42.5c0 -16.667 -6.16699 -31.167 -18.5 -43.5s-26.833 -18.5 -43.5 -18.5zM110 0v758h97v-758h-97z
" />
    <glyph glyph-name="Eth" unicode="&#xd0;" horiz-adv-x="849" 
d="M332 0h-212v372h-100v47h100v339h208c66 0 126.5 -7.33301 181.5 -22s104 -36.667 147 -66s76.667 -68.333 101 -117s36.5 -105 36.5 -169s-12.167 -121 -36.5 -171s-57.833 -90.167 -100.5 -120.5s-91.5 -53.333 -146.5 -69s-114.5 -23.5 -178.5 -23.5zM217 44
l111 -0.000976562c110 0 196.833 26.833 260.5 80.5s95.5 138.834 95.5 255.501s-31.833 201.5 -95.5 254.5s-150.5 79.5 -260.5 79.5h-111v-295h194v-47h-194v-328z" />
    <glyph glyph-name="Ntilde" unicode="&#xd1;" horiz-adv-x="850" 
d="M511 833c-24.667 0 -53.501 11.333 -86.501 34s-58.167 34 -75.5 34c-35.333 0 -54 -20.333 -56 -61h-22c0 34 8.16699 64 24.5 90s37.833 39 64.5 39c20.667 0 47.834 -11.5 81.501 -34.5s59.5 -34.5 77.5 -34.5c34 0 52 20 54 60h22c0 -40.667 -8.5 -72 -25.5 -94
s-36.5 -33 -58.5 -33zM161.999 758l526 -607v607h52v-758h-52l-526 613v-613h-52v758h52z" />
    <glyph glyph-name="Ograve" unicode="&#xd2;" horiz-adv-x="918" 
d="M501 843h-28l-221 127v2h122zM459 -12c-112.667 0 -208 36.667 -286 110s-117 167.666 -117 282.999s38.833 209.666 116.5 282.999s173.167 110 286.5 110c112.667 0 208 -36.667 286 -110s117 -167.666 117 -282.999s-39 -209.666 -117 -282.999
s-173.333 -110 -286 -110zM463 30c79.333 0 146.834 28.499 202.501 85.499s83.5 138.5 83.5 244.5c0 114.667 -27.833 205.334 -83.5 272.001s-125.834 100 -210.501 100c-80 0 -147.833 -28.333 -203.5 -85s-83.5 -138 -83.5 -244c0 -115.333 28 -206.333 84 -273
s126.333 -100 211 -100z" />
    <glyph glyph-name="Oacute" unicode="&#xd3;" horiz-adv-x="918" 
d="M426 843l127 129h122v-2l-221 -127h-28zM459 -12c-112.667 0 -208 36.667 -286 110s-117 167.666 -117 282.999s38.833 209.666 116.5 282.999s173.167 110 286.5 110c112.667 0 208 -36.667 286 -110s117 -167.666 117 -282.999s-39 -209.666 -117 -282.999
s-173.333 -110 -286 -110zM463 30c79.333 0 146.834 28.499 202.501 85.499s83.5 138.5 83.5 244.5c0 114.667 -27.833 205.334 -83.5 272.001s-125.834 100 -210.501 100c-80 0 -147.833 -28.333 -203.5 -85s-83.5 -138 -83.5 -244c0 -115.333 28 -206.333 84 -273
s126.333 -100 211 -100z" />
    <glyph glyph-name="Ocircumflex" unicode="&#xd4;" horiz-adv-x="918" 
d="M292 837l157 146h10l157 -146h-28l-134 74l-134 -74h-28zM459 -12c-112.667 0 -208 36.667 -286 110s-117 167.666 -117 282.999s38.833 209.666 116.5 282.999s173.167 110 286.5 110c112.667 0 208 -36.667 286 -110s117 -167.666 117 -282.999
s-39 -209.666 -117 -282.999s-173.333 -110 -286 -110zM463 30c79.333 0 146.834 28.499 202.501 85.499s83.5 138.5 83.5 244.5c0 114.667 -27.833 205.334 -83.5 272.001s-125.834 100 -210.501 100c-80 0 -147.833 -28.333 -203.5 -85s-83.5 -138 -83.5 -244
c0 -115.333 28 -206.333 84 -273s126.333 -100 211 -100z" />
    <glyph glyph-name="Otilde" unicode="&#xd5;" horiz-adv-x="918" 
d="M532 833c-24.667 0 -53.501 11.333 -86.501 34s-58.167 34 -75.5 34c-35.333 0 -54 -20.333 -56 -61h-22c0 34 8.16699 64 24.5 90s37.833 39 64.5 39c20.667 0 47.834 -11.5 81.501 -34.5s59.5 -34.5 77.5 -34.5c34 0 52 20 54 60h22c0 -40.667 -8.5 -72 -25.5 -94
s-36.5 -33 -58.5 -33zM458.999 -12c-112.667 0 -208 36.667 -286 110s-117 167.666 -117 282.999s38.833 209.666 116.5 282.999s173.167 110 286.5 110c112.667 0 208 -36.667 286 -110s117 -167.666 117 -282.999s-39 -209.666 -117 -282.999s-173.333 -110 -286 -110z
M462.999 30c79.333 0 146.834 28.499 202.501 85.499s83.5 138.5 83.5 244.5c0 114.667 -27.833 205.334 -83.5 272.001s-125.834 100 -210.501 100c-80 0 -147.833 -28.333 -203.5 -85s-83.5 -138 -83.5 -244c0 -115.333 28 -206.333 84 -273s126.333 -100 211 -100z" />
    <glyph glyph-name="Odieresis" unicode="&#xd6;" horiz-adv-x="918" 
d="M338 858c-16 0 -30.167 6.16699 -42.5 18.5s-18.5 26.833 -18.5 43.5c0 16 6.16699 30.167 18.5 42.5s26.5 18.5 42.5 18.5c16.667 0 31.167 -6.16699 43.5 -18.5s18.5 -26.5 18.5 -42.5c0 -16.667 -6.16699 -31.167 -18.5 -43.5s-26.833 -18.5 -43.5 -18.5zM569 858
c-16 0 -30.167 6.16699 -42.5 18.5s-18.5 26.833 -18.5 43.5c0 16 6.16699 30.167 18.5 42.5s26.5 18.5 42.5 18.5c16.667 0 31.167 -6.16699 43.5 -18.5s18.5 -26.5 18.5 -42.5c0 -16.667 -6.16699 -31.167 -18.5 -43.5s-26.833 -18.5 -43.5 -18.5zM459 -12
c-112.667 0 -208 36.667 -286 110s-117 167.666 -117 282.999s38.833 209.666 116.5 282.999s173.167 110 286.5 110c112.667 0 208 -36.667 286 -110s117 -167.666 117 -282.999s-39 -209.666 -117 -282.999s-173.333 -110 -286 -110zM463 30
c79.333 0 146.834 28.499 202.501 85.499s83.5 138.5 83.5 244.5c0 114.667 -27.833 205.334 -83.5 272.001s-125.834 100 -210.501 100c-80 0 -147.833 -28.333 -203.5 -85s-83.5 -138 -83.5 -244c0 -115.333 28 -206.333 84 -273s126.333 -100 211 -100z" />
    <glyph glyph-name="multiply" unicode="&#xd7;" horiz-adv-x="657" 
d="M135 32l-34 34l194 194l-194 194l34 35l194 -194l194 194l34 -34l-194 -194l194 -195l-34 -34l-194 194z" />
    <glyph glyph-name="Oslash" unicode="&#xd8;" horiz-adv-x="914" 
d="M88 -68l-34 30l119 134c-79.333 74.667 -119 169.667 -119 285s38.833 209.666 116.5 282.999s173.167 110 286.5 110c94.667 0 177.667 -26.333 249 -79l121 136l33 -30l-120 -135c80 -73.333 120 -168.333 120 -285c0 -115.333 -39 -209.666 -117 -282.999
s-173.333 -110 -286 -110c-94.667 0 -177.667 26.333 -249 79zM166 403c0 -96.667 21 -178 63 -244l428 481c-54 61.333 -122 92 -204 92c-80 0 -147.833 -28.333 -203.5 -85s-83.5 -138 -83.5 -244zM461 30c79.333 0 146.833 28.5 202.5 85.5s83.5 138.5 83.5 244.5
c0 98 -21 179 -63 243l-427 -481c54 -61.333 122 -92 204 -92z" />
    <glyph glyph-name="Ugrave" unicode="&#xd9;" horiz-adv-x="830" 
d="M475 843h-28l-221 127v2h122zM411 -12c-206.667 0 -309.999 99.666 -309.999 298.999v471h97v-465c0 -88 19.167 -152.667 57.5 -194s98.166 -62 179.499 -62c85.333 0 147 22.833 185 68.5s57 111.834 57 198.501v454h52v-463c0 -204.667 -106 -307 -318 -307z" />
    <glyph glyph-name="Uacute" unicode="&#xda;" horiz-adv-x="830" 
d="M400 843l127 129h122v-2l-221 -127h-28zM411 -12c-206.667 0 -309.999 99.666 -309.999 298.999v471h97v-465c0 -88 19.167 -152.667 57.5 -194s98.166 -62 179.499 -62c85.333 0 147 22.833 185 68.5s57 111.834 57 198.501v454h52v-463c0 -204.667 -106 -307 -318 -307
z" />
    <glyph glyph-name="Ucircumflex" unicode="&#xdb;" horiz-adv-x="830" 
d="M266 837l157 146h10l157 -146h-28l-134 74l-134 -74h-28zM411 -12c-206.667 0 -309.999 99.666 -309.999 298.999v471h97v-465c0 -88 19.167 -152.667 57.5 -194s98.166 -62 179.499 -62c85.333 0 147 22.833 185 68.5s57 111.834 57 198.501v454h52v-463
c0 -204.667 -106 -307 -318 -307z" />
    <glyph glyph-name="Udieresis" unicode="&#xdc;" horiz-adv-x="830" 
d="M312 858c-16 0 -30.167 6.16699 -42.5 18.5s-18.5 26.833 -18.5 43.5c0 16 6.16699 30.167 18.5 42.5s26.5 18.5 42.5 18.5c16.667 0 31.167 -6.16699 43.5 -18.5s18.5 -26.5 18.5 -42.5c0 -16.667 -6.16699 -31.167 -18.5 -43.5s-26.833 -18.5 -43.5 -18.5zM543 858
c-16 0 -30.167 6.16699 -42.5 18.5s-18.5 26.833 -18.5 43.5c0 16 6.16699 30.167 18.5 42.5s26.5 18.5 42.5 18.5c16.667 0 31.167 -6.16699 43.5 -18.5s18.5 -26.5 18.5 -42.5c0 -16.667 -6.16699 -31.167 -18.5 -43.5s-26.833 -18.5 -43.5 -18.5zM411 -12
c-206.667 0 -309.999 99.666 -309.999 298.999v471h97v-465c0 -88 19.167 -152.667 57.5 -194s98.166 -62 179.499 -62c85.333 0 147 22.833 185 68.5s57 111.834 57 198.501v454h52v-463c0 -204.667 -106 -307 -318 -307z" />
    <glyph glyph-name="Yacute" unicode="&#xdd;" horiz-adv-x="769" 
d="M367 843l127 129h122v-2l-221 -127h-28zM433 342v-342h-97v342l-316 416h114l275 -363l277 363h63z" />
    <glyph glyph-name="Thorn" unicode="&#xde;" horiz-adv-x="738" 
d="M207 0l-97 -0.000976562v758h97v-172h164c37.333 0 70.833 -1.66699 100.5 -5s58.5 -9.66602 86.5 -18.999s51.333 -21.5 70 -36.5s33.667 -34.667 45 -59s17 -52.5 17 -84.5c0 -139.333 -106.333 -209 -319 -209h-164v-173zM207 540.999v-321.999h157
c70 0 123.833 11.833 161.5 35.5s56.5 65.167 56.5 124.5s-19 101.166 -57 125.499s-91.667 36.5 -161 36.5h-157z" />
    <glyph glyph-name="germandbls" unicode="&#xdf;" horiz-adv-x="671" 
d="M419 -12c-56.667 0 -101 10.334 -133 31.001s-48 44.667 -48 72c0 12.667 4.16699 23.334 12.5 32.001s19.166 13 32.499 13c6.66699 0 12.5 -1 17.5 -3s9.5 -5.5 13.5 -10.5s7.16699 -9.16699 9.5 -12.5s5.5 -9.16602 9.5 -17.499l8 -16.5
c10 -20 21.333 -34.167 34 -42.5s32.667 -12.5 60 -12.5c34.667 0 63 9.5 85 28.5s33 44.833 33 77.5c0 27.333 -7.83301 51.666 -23.5 72.999s-42.5 45 -80.5 71l-35 24c-42.667 29.333 -72.834 54.166 -90.501 74.499s-26.5 42.5 -26.5 66.5c0 13.333 4 26.333 12 39
s16.167 22.334 24.5 29.001s21.5 16.667 39.5 30l15 11c26 18.667 44.833 36.667 56.5 54s17.5 37 17.5 59c0 27.333 -11.333 49.166 -34 65.499s-50.667 24.5 -84 24.5c-53.333 0 -94.5 -16 -123.5 -48s-43.5 -78.333 -43.5 -139v-561h-90v523
c0 78 22.833 140.667 68.5 188s109.834 71 192.501 71c58.667 0 104.667 -10.333 138 -31s50 -48.334 50 -83.001c0 -23.333 -6.83301 -43.5 -20.5 -60.5s-33.167 -34.5 -58.5 -52.5l-39 -27c-15.333 -10 -26.666 -19.167 -33.999 -27.5s-11 -19.166 -11 -32.499
c0 -15.333 7.16699 -30 21.5 -44s40.166 -34 77.499 -60l35 -24c46 -31.333 78.333 -60.333 97 -87s28 -57.334 28 -92.001c0 -53.333 -20.667 -95.5 -62 -126.5s-91.666 -46.5 -150.999 -46.5z" />
    <glyph glyph-name="agrave" unicode="&#xe0;" horiz-adv-x="563" 
d="M300 605h-26l-184 163v7h102zM204 -12c-46.667 0 -85.334 12.167 -116.001 36.5s-46 56.166 -46 95.499c0 96.667 109.667 155.667 329 177v36c0 53.333 -8.83301 92.5 -26.5 117.5s-45.167 37.5 -82.5 37.5c-42 0 -71.333 -11 -88 -33
c-6 -7.33301 -9.66699 -15.666 -11 -24.999s-1.33301 -20.333 0 -33s2 -19.667 2 -21c0 -13.333 -4 -24 -12 -32s-18.333 -12 -31 -12c-14 0 -25.167 4.33301 -33.5 13s-12.5 20.334 -12.5 35.001c0 36 18.333 67.667 55 95s82.334 41 137.001 41c64 0 112 -14.333 144 -43
s47.667 -77.334 47 -146.001l-1 -230c0 -24 2.83301 -40.833 8.5 -50.5s15.167 -14.5 28.5 -14.5c22 0 40.667 13.333 56 40l16 -9c-21.333 -49.333 -57.333 -74 -108 -74c-26 0 -46.833 8.33301 -62.5 25s-23.5 42 -23.5 76v28c-20 -86.667 -76.333 -130 -169 -130zM246 31
c33.333 0 62.499 12 87.499 36s37.5 61.333 37.5 112v94c-35.333 -4.66699 -65.833 -10.167 -91.5 -16.5s-49.667 -14.833 -72 -25.5s-39.166 -24 -50.499 -40s-17 -34.667 -17 -56c0 -28.667 9.66699 -53.167 29 -73.5s45 -30.5 77 -30.5z" />
    <glyph glyph-name="aacute" unicode="&#xe1;" horiz-adv-x="563" 
d="M231 605l109 170h101v-7l-184 -163h-26zM204 -12c-46.667 0 -85.334 12.167 -116.001 36.5s-46 56.166 -46 95.499c0 96.667 109.667 155.667 329 177v36c0 53.333 -8.83301 92.5 -26.5 117.5s-45.167 37.5 -82.5 37.5c-42 0 -71.333 -11 -88 -33
c-6 -7.33301 -9.66699 -15.666 -11 -24.999s-1.33301 -20.333 0 -33s2 -19.667 2 -21c0 -13.333 -4 -24 -12 -32s-18.333 -12 -31 -12c-14 0 -25.167 4.33301 -33.5 13s-12.5 20.334 -12.5 35.001c0 36 18.333 67.667 55 95s82.334 41 137.001 41c64 0 112 -14.333 144 -43
s47.667 -77.334 47 -146.001l-1 -230c0 -24 2.83301 -40.833 8.5 -50.5s15.167 -14.5 28.5 -14.5c22 0 40.667 13.333 56 40l16 -9c-21.333 -49.333 -57.333 -74 -108 -74c-26 0 -46.833 8.33301 -62.5 25s-23.5 42 -23.5 76v28c-20 -86.667 -76.333 -130 -169 -130zM246 31
c33.333 0 62.499 12 87.499 36s37.5 61.333 37.5 112v94c-35.333 -4.66699 -65.833 -10.167 -91.5 -16.5s-49.667 -14.833 -72 -25.5s-39.166 -24 -50.499 -40s-17 -34.667 -17 -56c0 -28.667 9.66699 -53.167 29 -73.5s45 -30.5 77 -30.5z" />
    <glyph glyph-name="acircumflex" unicode="&#xe2;" horiz-adv-x="563" 
d="M99 605l161 187h8l161 -187h-26l-139 106l-139 -106h-26zM204 -12c-46.667 0 -85.334 12.167 -116.001 36.5s-46 56.166 -46 95.499c0 96.667 109.667 155.667 329 177v36c0 53.333 -8.83301 92.5 -26.5 117.5s-45.167 37.5 -82.5 37.5c-42 0 -71.333 -11 -88 -33
c-6 -7.33301 -9.66699 -15.666 -11 -24.999s-1.33301 -20.333 0 -33s2 -19.667 2 -21c0 -13.333 -4 -24 -12 -32s-18.333 -12 -31 -12c-14 0 -25.167 4.33301 -33.5 13s-12.5 20.334 -12.5 35.001c0 36 18.333 67.667 55 95s82.334 41 137.001 41c64 0 112 -14.333 144 -43
s47.667 -77.334 47 -146.001l-1 -230c0 -24 2.83301 -40.833 8.5 -50.5s15.167 -14.5 28.5 -14.5c22 0 40.667 13.333 56 40l16 -9c-21.333 -49.333 -57.333 -74 -108 -74c-26 0 -46.833 8.33301 -62.5 25s-23.5 42 -23.5 76v28c-20 -86.667 -76.333 -130 -169 -130zM246 31
c33.333 0 62.499 12 87.499 36s37.5 61.333 37.5 112v94c-35.333 -4.66699 -65.833 -10.167 -91.5 -16.5s-49.667 -14.833 -72 -25.5s-39.166 -24 -50.499 -40s-17 -34.667 -17 -56c0 -28.667 9.66699 -53.167 29 -73.5s45 -30.5 77 -30.5z" />
    <glyph glyph-name="atilde" unicode="&#xe3;" horiz-adv-x="563" 
d="M342 629c-24.667 0 -53.501 11.499 -86.501 34.499s-58.167 34.5 -75.5 34.5c-35.333 0 -54 -20.667 -56 -62h-22c0 34.667 8.16699 64.834 24.5 90.501s37.833 38.5 64.5 38.5c20.667 0 47.834 -11.333 81.501 -34s59.5 -34 77.5 -34c34 0 52 19.667 54 59h22
c0 -40 -8.5 -71.167 -25.5 -93.5s-36.5 -33.5 -58.5 -33.5zM203.999 -12.001c-46.667 0 -85.334 12.167 -116.001 36.5s-46 56.166 -46 95.499c0 96.667 109.667 155.667 329 177v36c0 53.333 -8.83301 92.5 -26.5 117.5s-45.167 37.5 -82.5 37.5c-42 0 -71.333 -11 -88 -33
c-6 -7.33301 -9.66699 -15.666 -11 -24.999s-1.33301 -20.333 0 -33s2 -19.667 2 -21c0 -13.333 -4 -24 -12 -32s-18.333 -12 -31 -12c-14 0 -25.167 4.33301 -33.5 13s-12.5 20.334 -12.5 35.001c0 36 18.333 67.667 55 95s82.334 41 137.001 41c64 0 112 -14.333 144 -43
s47.667 -77.334 47 -146.001l-1 -230c0 -24 2.83301 -40.833 8.5 -50.5s15.167 -14.5 28.5 -14.5c22 0 40.667 13.333 56 40l16 -9c-21.333 -49.333 -57.333 -74 -108 -74c-26 0 -46.833 8.33301 -62.5 25s-23.5 42 -23.5 76v28c-20 -86.667 -76.333 -130 -169 -130z
M245.999 30.999c33.333 0 62.499 12 87.499 36s37.5 61.333 37.5 112v94c-35.333 -4.66699 -65.833 -10.167 -91.5 -16.5s-49.667 -14.833 -72 -25.5s-39.166 -24 -50.499 -40s-17 -34.667 -17 -56c0 -28.667 9.66699 -53.167 29 -73.5s45 -30.5 77 -30.5z" />
    <glyph glyph-name="adieresis" unicode="&#xe4;" horiz-adv-x="563" 
d="M148 645c-16 0 -30.167 6.16699 -42.5 18.5s-18.5 26.833 -18.5 43.5c0 16 6.16699 30.167 18.5 42.5s26.5 18.5 42.5 18.5c16.667 0 31.167 -6.16699 43.5 -18.5s18.5 -26.5 18.5 -42.5c0 -16.667 -6.16699 -31.167 -18.5 -43.5s-26.833 -18.5 -43.5 -18.5zM379 645
c-16 0 -30.167 6.16699 -42.5 18.5s-18.5 26.833 -18.5 43.5c0 16 6.16699 30.167 18.5 42.5s26.5 18.5 42.5 18.5c16.667 0 31.167 -6.16699 43.5 -18.5s18.5 -26.5 18.5 -42.5c0 -16.667 -6.16699 -31.167 -18.5 -43.5s-26.833 -18.5 -43.5 -18.5zM204 -12
c-46.667 0 -85.334 12.167 -116.001 36.5s-46 56.166 -46 95.499c0 96.667 109.667 155.667 329 177v36c0 53.333 -8.83301 92.5 -26.5 117.5s-45.167 37.5 -82.5 37.5c-42 0 -71.333 -11 -88 -33c-6 -7.33301 -9.66699 -15.666 -11 -24.999s-1.33301 -20.333 0 -33
s2 -19.667 2 -21c0 -13.333 -4 -24 -12 -32s-18.333 -12 -31 -12c-14 0 -25.167 4.33301 -33.5 13s-12.5 20.334 -12.5 35.001c0 36 18.333 67.667 55 95s82.334 41 137.001 41c64 0 112 -14.333 144 -43s47.667 -77.334 47 -146.001l-1 -230
c0 -24 2.83301 -40.833 8.5 -50.5s15.167 -14.5 28.5 -14.5c22 0 40.667 13.333 56 40l16 -9c-21.333 -49.333 -57.333 -74 -108 -74c-26 0 -46.833 8.33301 -62.5 25s-23.5 42 -23.5 76v28c-20 -86.667 -76.333 -130 -169 -130zM246 31c33.333 0 62.499 12 87.499 36
s37.5 61.333 37.5 112v94c-35.333 -4.66699 -65.833 -10.167 -91.5 -16.5s-49.667 -14.833 -72 -25.5s-39.166 -24 -50.499 -40s-17 -34.667 -17 -56c0 -28.667 9.66699 -53.167 29 -73.5s45 -30.5 77 -30.5z" />
    <glyph glyph-name="aring" unicode="&#xe5;" horiz-adv-x="563" 
d="M264 585c-32 0 -59.167 10.667 -81.5 32s-33.5 47.666 -33.5 78.999c0 30.667 11.333 56.834 34 78.501s49.667 32.5 81 32.5c32.667 0 60.167 -10.833 82.5 -32.5s33.5 -47.834 33.5 -78.501c0 -31.333 -11.167 -57.666 -33.5 -78.999s-49.833 -32 -82.5 -32zM264 620
c22.667 0 41 7 55 21s21 32.333 21 55c0 22 -7 40 -21 54s-32.333 21 -55 21c-22 0 -40.167 -7 -54.5 -21s-21.5 -32 -21.5 -54c0 -22.667 7.16699 -41 21.5 -55s32.5 -21 54.5 -21zM204 -12c-46.667 0 -85.334 12.167 -116.001 36.5s-46 56.166 -46 95.499
c0 96.667 109.667 155.667 329 177v36c0 53.333 -8.83301 92.5 -26.5 117.5s-45.167 37.5 -82.5 37.5c-42 0 -71.333 -11 -88 -33c-6 -7.33301 -9.66699 -15.666 -11 -24.999s-1.33301 -20.333 0 -33s2 -19.667 2 -21c0 -13.333 -4 -24 -12 -32s-18.333 -12 -31 -12
c-14 0 -25.167 4.33301 -33.5 13s-12.5 20.334 -12.5 35.001c0 36 18.333 67.667 55 95s82.334 41 137.001 41c64 0 112 -14.333 144 -43s47.667 -77.334 47 -146.001l-1 -230c0 -24 2.83301 -40.833 8.5 -50.5s15.167 -14.5 28.5 -14.5c22 0 40.667 13.333 56 40l16 -9
c-21.333 -49.333 -57.333 -74 -108 -74c-26 0 -46.833 8.33301 -62.5 25s-23.5 42 -23.5 76v28c-20 -86.667 -76.333 -130 -169 -130zM246 31c33.333 0 62.499 12 87.499 36s37.5 61.333 37.5 112v94c-35.333 -4.66699 -65.833 -10.167 -91.5 -16.5
s-49.667 -14.833 -72 -25.5s-39.166 -24 -50.499 -40s-17 -34.667 -17 -56c0 -28.667 9.66699 -53.167 29 -73.5s45 -30.5 77 -30.5z" />
    <glyph glyph-name="ae" unicode="&#xe6;" horiz-adv-x="917" 
d="M206 -12c-47.333 0 -86.4961 12.998 -117.496 38.998s-46.5 58.667 -46.5 98c0 30 10 56 30 78s48.167 39 84.5 51s71.166 21.167 104.499 27.5s72 11.5 116 15.5v36c0 53.333 -8.83301 92.5 -26.5 117.5s-45.834 37.5 -84.501 37.5c-42 0 -72 -11 -90 -33
c-6 -7.33301 -9.66699 -15.666 -11 -24.999s-1.33301 -20.333 0 -33s2 -19.667 2 -21c0 -13.333 -4 -24 -12 -32s-18.667 -12 -32 -12c-14 0 -25.333 4.33301 -34 13s-13 20.334 -13 35.001c0 36 18.667 67.667 56 95s84 41 140 41c89.333 0 147 -26.667 173 -80
c49.333 53.333 110 80 182 80c64 0 118 -18.5 162 -55.5s71 -89.833 81 -158.5h-404v-12c0 -73.333 18.5 -131.5 55.5 -174.5s85.5 -64.5 145.5 -64.5c95.333 0 155.666 44.333 180.999 133h27c-28 -130.667 -108.667 -196 -242 -196c-52 0 -97.667 11.833 -137 35.5
s-69.333 56.167 -90 97.5c-11.333 -45.333 -35.833 -78.833 -73.5 -100.5s-79.834 -32.5 -126.501 -32.5zM625.004 486.998c-38.667 0 -72.333 -13.167 -101 -39.5s-47 -63.5 -55 -111.5h298c-4 50.667 -18.833 88.5 -44.5 113.5s-58.167 37.5 -97.5 37.5zM142.005 134.998
c0 -28.667 9.50098 -53.167 28.501 -73.5s44.5 -30.5 76.5 -30.5c34.667 0 66.5 10.833 95.5 32.5s44.833 53.5 47.5 95.5c-8.66699 30.667 -13 61 -13 91v23c-36 -4.66699 -67 -10.167 -93 -16.5s-50.333 -14.833 -73 -25.5s-39.834 -24 -51.501 -40
s-17.5 -34.667 -17.5 -56z" />
    <glyph glyph-name="ccedilla" unicode="&#xe7;" horiz-adv-x="579" 
d="M307 -12c-76.667 0 -138.501 24.666 -185.501 73.999s-70.5 112 -70.5 188c0 81.333 25.333 146 76 194s112.667 72 186 72c58.667 0 106.334 -11.833 143.001 -35.5s55 -49.834 55 -78.501c0 -14 -3.83301 -25.333 -11.5 -34s-17.5 -13 -29.5 -13
c-27.333 0 -46.333 16.667 -57 50c-6.66699 25.333 -18 45.333 -34 60s-41.667 22 -77 22c-46 0 -84.167 -17.333 -114.5 -52s-45.5 -83 -45.5 -145c0 -74 18.167 -133 54.5 -177s84.166 -66 143.499 -66c94 0 154 48 180 144h27c-23.333 -111.333 -83 -177 -179 -197
l-74 -76c32.667 -16.667 56.167 -31.667 70.5 -45s21.5 -29.666 21.5 -48.999c0 -22 -9.66699 -41 -29 -57s-44.666 -24 -75.999 -24c-24 0 -45 5.33301 -63 16s-27 24 -27 40c0 8 3.5 14.5 10.5 19.5s15.833 6.5 26.5 4.5c0.666992 -18 7.5 -32.167 20.5 -42.5
s28.167 -15.5 45.5 -15.5c16 0 29.333 3.83301 40 11.5s16 17.5 16 29.5c0 13.333 -9.83301 26.333 -29.5 39s-48.5 27.334 -86.5 44.001l97 100c-5.33301 -0.666992 -13.333 -1 -24 -1z" />
    <glyph glyph-name="egrave" unicode="&#xe8;" horiz-adv-x="594" 
d="M338 605h-26l-184 163v7h102zM307 -12c-76.667 0 -138.5 24.666 -185.5 73.999s-70.5 112 -70.5 188c0 80 25.167 144.333 75.5 193s108.5 73 174.5 73c64 0 118 -18.5 162 -55.5s71 -89.833 81 -158.5h-402v-12c0 -74 18.333 -133 55 -177s84.667 -66 144 -66
c96 0 157.333 46.333 184 139h27c-14 -65.333 -41.833 -114.666 -83.5 -147.999s-95.5 -50 -161.5 -50zM299 486.999c-38.667 0 -72.168 -13.167 -100.501 -39.5s-46.166 -63.5 -53.499 -111.5h296c-4 50.667 -18.833 88.5 -44.5 113.5s-58.167 37.5 -97.5 37.5z" />
    <glyph glyph-name="eacute" unicode="&#xe9;" horiz-adv-x="594" 
d="M269 605l109 170h101v-7l-184 -163h-26zM307 -12c-76.667 0 -138.5 24.666 -185.5 73.999s-70.5 112 -70.5 188c0 80 25.167 144.333 75.5 193s108.5 73 174.5 73c64 0 118 -18.5 162 -55.5s71 -89.833 81 -158.5h-402v-12c0 -74 18.333 -133 55 -177s84.667 -66 144 -66
c96 0 157.333 46.333 184 139h27c-14 -65.333 -41.833 -114.666 -83.5 -147.999s-95.5 -50 -161.5 -50zM299 486.999c-38.667 0 -72.168 -13.167 -100.501 -39.5s-46.166 -63.5 -53.499 -111.5h296c-4 50.667 -18.833 88.5 -44.5 113.5s-58.167 37.5 -97.5 37.5z" />
    <glyph glyph-name="ecircumflex" unicode="&#xea;" horiz-adv-x="594" 
d="M137 605l161 187h8l161 -187h-26l-139 106l-139 -106h-26zM307 -12c-76.667 0 -138.5 24.666 -185.5 73.999s-70.5 112 -70.5 188c0 80 25.167 144.333 75.5 193s108.5 73 174.5 73c64 0 118 -18.5 162 -55.5s71 -89.833 81 -158.5h-402v-12c0 -74 18.333 -133 55 -177
s84.667 -66 144 -66c96 0 157.333 46.333 184 139h27c-14 -65.333 -41.833 -114.666 -83.5 -147.999s-95.5 -50 -161.5 -50zM299 486.999c-38.667 0 -72.168 -13.167 -100.501 -39.5s-46.166 -63.5 -53.499 -111.5h296c-4 50.667 -18.833 88.5 -44.5 113.5
s-58.167 37.5 -97.5 37.5z" />
    <glyph glyph-name="edieresis" unicode="&#xeb;" horiz-adv-x="594" 
d="M186 645c-16 0 -30.167 6.16699 -42.5 18.5s-18.5 26.833 -18.5 43.5c0 16 6.16699 30.167 18.5 42.5s26.5 18.5 42.5 18.5c16.667 0 31.167 -6.16699 43.5 -18.5s18.5 -26.5 18.5 -42.5c0 -16.667 -6.16699 -31.167 -18.5 -43.5s-26.833 -18.5 -43.5 -18.5zM417 645
c-16 0 -30.167 6.16699 -42.5 18.5s-18.5 26.833 -18.5 43.5c0 16 6.16699 30.167 18.5 42.5s26.5 18.5 42.5 18.5c16.667 0 31.167 -6.16699 43.5 -18.5s18.5 -26.5 18.5 -42.5c0 -16.667 -6.16699 -31.167 -18.5 -43.5s-26.833 -18.5 -43.5 -18.5zM307 -12
c-76.667 0 -138.5 24.666 -185.5 73.999s-70.5 112 -70.5 188c0 80 25.167 144.333 75.5 193s108.5 73 174.5 73c64 0 118 -18.5 162 -55.5s71 -89.833 81 -158.5h-402v-12c0 -74 18.333 -133 55 -177s84.667 -66 144 -66c96 0 157.333 46.333 184 139h27
c-14 -65.333 -41.833 -114.666 -83.5 -147.999s-95.5 -50 -161.5 -50zM299 486.999c-38.667 0 -72.168 -13.167 -100.501 -39.5s-46.166 -63.5 -53.499 -111.5h296c-4 50.667 -18.833 88.5 -44.5 113.5s-58.167 37.5 -97.5 37.5z" />
    <glyph glyph-name="igrave" unicode="&#xec;" horiz-adv-x="268" 
d="M170 605h-26l-184 163v7h102zM89 0v502h90v-502h-90z" />
    <glyph glyph-name="iacute" unicode="&#xed;" horiz-adv-x="268" 
d="M101 605l109 170h101v-7l-184 -163h-26zM89 0v502h90v-502h-90z" />
    <glyph glyph-name="icircumflex" unicode="&#xee;" horiz-adv-x="268" 
d="M-31 605l161 187h8l161 -187h-26l-139 106l-139 -106h-26zM89 0v502h90v-502h-90z" />
    <glyph glyph-name="idieresis" unicode="&#xef;" horiz-adv-x="268" 
d="M34 645c-16 0 -30.167 6.16699 -42.5 18.5s-18.5 26.833 -18.5 43.5c0 16 6.16699 30.167 18.5 42.5s26.5 18.5 42.5 18.5c16.667 0 31.167 -6.16699 43.5 -18.5s18.5 -26.5 18.5 -42.5c0 -16.667 -6.16699 -31.167 -18.5 -43.5s-26.833 -18.5 -43.5 -18.5zM233 645
c-16 0 -30.167 6.16699 -42.5 18.5s-18.5 26.833 -18.5 43.5c0 16 6.16699 30.167 18.5 42.5s26.5 18.5 42.5 18.5c16.667 0 31.167 -6.16699 43.5 -18.5s18.5 -26.5 18.5 -42.5c0 -16.667 -6.16699 -31.167 -18.5 -43.5s-26.833 -18.5 -43.5 -18.5zM89 0v502h90v-502h-90z
" />
    <glyph glyph-name="eth" unicode="&#xf0;" horiz-adv-x="638" 
d="M304 -12c-72 0 -132.169 23.8311 -180.502 71.498s-72.5 112.167 -72.5 193.5c0 79.333 24.333 143.333 73 192s108 73 178 73c60.667 0 113.334 -21 158.001 -63c-28 88.667 -78.667 161.334 -152 218.001l-130 -70l-15 30l115 62
c-49.333 32.667 -105 57.334 -167 74.001l8 26c78 -14.667 148 -39 210 -73l136 73l15 -29l-118 -64c70.667 -46 124.334 -103.333 161.001 -172s55 -143 55 -223c0 -101.333 -27.167 -179.833 -81.5 -235.5s-118.5 -83.5 -192.5 -83.5zM145.998 247.998
c0 -69.333 16.168 -124.334 48.501 -165.001s71.166 -61 116.499 -61c50 0 91.333 24 124 72s49 114.667 49 200c0 44.667 -5.33301 89.334 -16 134.001c-38.667 34.667 -85.667 52 -141 52c-49.333 0 -91.833 -19.667 -127.5 -59s-53.5 -97 -53.5 -173z" />
    <glyph glyph-name="ntilde" unicode="&#xf1;" horiz-adv-x="604" 
d="M383 629c-24.667 0 -53.501 11.499 -86.501 34.499s-58.167 34.5 -75.5 34.5c-35.333 0 -54 -20.667 -56 -62h-22c0 34.667 8.16699 64.834 24.5 90.501s37.833 38.5 64.5 38.5c20.667 0 47.834 -11.333 81.501 -34s59.5 -34 77.5 -34c34 0 52 19.667 54 59h22
c0 -40 -8.5 -71.167 -25.5 -93.5s-36.5 -33.5 -58.5 -33.5zM176.999 -0.000976562l-90 -0.000976562v502h90v-142c8.66699 52.667 29 91.834 61 117.501s70.667 38.5 116 38.5c112.667 0 169 -66.667 169 -200v-316h-90v299c0 108 -41 162 -123 162
c-38 0 -69.667 -13.333 -95 -40s-38 -67.667 -38 -123v-298z" />
    <glyph glyph-name="ograve" unicode="&#xf2;" horiz-adv-x="634" 
d="M351 605h-26l-184 163v7h102zM317 -12c-75.333 0 -138.666 24.667 -189.999 74s-77 112.666 -77 189.999c0 78 25.667 141.5 77 190.5s114.666 73.5 189.999 73.5s138.666 -24.5 189.999 -73.5s77 -112.5 77 -190.5c0 -77.333 -25.667 -140.666 -77 -189.999
s-114.666 -74 -189.999 -74zM323 22c44.667 0 82.834 17 114.501 51s47.5 84 47.5 150c0 68.667 -16.333 129.167 -49 181.5s-74.334 78.5 -125.001 78.5c-44.667 0 -82.834 -17.167 -114.501 -51.5s-47.5 -84.5 -47.5 -150.5c0 -68.667 16.333 -129 49 -181
s74.334 -78 125.001 -78z" />
    <glyph glyph-name="oacute" unicode="&#xf3;" horiz-adv-x="634" 
d="M282 605l109 170h101v-7l-184 -163h-26zM317 -12c-75.333 0 -138.666 24.667 -189.999 74s-77 112.666 -77 189.999c0 78 25.667 141.5 77 190.5s114.666 73.5 189.999 73.5s138.666 -24.5 189.999 -73.5s77 -112.5 77 -190.5c0 -77.333 -25.667 -140.666 -77 -189.999
s-114.666 -74 -189.999 -74zM323 22c44.667 0 82.834 17 114.501 51s47.5 84 47.5 150c0 68.667 -16.333 129.167 -49 181.5s-74.334 78.5 -125.001 78.5c-44.667 0 -82.834 -17.167 -114.501 -51.5s-47.5 -84.5 -47.5 -150.5c0 -68.667 16.333 -129 49 -181
s74.334 -78 125.001 -78z" />
    <glyph glyph-name="ocircumflex" unicode="&#xf4;" horiz-adv-x="634" 
d="M150 605l161 187h8l161 -187h-26l-139 106l-139 -106h-26zM317 -12c-75.333 0 -138.666 24.667 -189.999 74s-77 112.666 -77 189.999c0 78 25.667 141.5 77 190.5s114.666 73.5 189.999 73.5s138.666 -24.5 189.999 -73.5s77 -112.5 77 -190.5
c0 -77.333 -25.667 -140.666 -77 -189.999s-114.666 -74 -189.999 -74zM323 22c44.667 0 82.834 17 114.501 51s47.5 84 47.5 150c0 68.667 -16.333 129.167 -49 181.5s-74.334 78.5 -125.001 78.5c-44.667 0 -82.834 -17.167 -114.501 -51.5s-47.5 -84.5 -47.5 -150.5
c0 -68.667 16.333 -129 49 -181s74.334 -78 125.001 -78z" />
    <glyph glyph-name="otilde" unicode="&#xf5;" horiz-adv-x="634" 
d="M393 629c-24.667 0 -53.501 11.499 -86.501 34.499s-58.167 34.5 -75.5 34.5c-35.333 0 -54 -20.667 -56 -62h-22c0 34.667 8.16699 64.834 24.5 90.501s37.833 38.5 64.5 38.5c20.667 0 47.834 -11.333 81.501 -34s59.5 -34 77.5 -34c34 0 52 19.667 54 59h22
c0 -40 -8.5 -71.167 -25.5 -93.5s-36.5 -33.5 -58.5 -33.5zM316.999 -12.001c-75.333 0 -138.666 24.667 -189.999 74s-77 112.666 -77 189.999c0 78 25.667 141.5 77 190.5s114.666 73.5 189.999 73.5s138.666 -24.5 189.999 -73.5s77 -112.5 77 -190.5
c0 -77.333 -25.667 -140.666 -77 -189.999s-114.666 -74 -189.999 -74zM322.999 21.999c44.667 0 82.834 17 114.501 51s47.5 84 47.5 150c0 68.667 -16.333 129.167 -49 181.5s-74.334 78.5 -125.001 78.5c-44.667 0 -82.834 -17.167 -114.501 -51.5
s-47.5 -84.5 -47.5 -150.5c0 -68.667 16.333 -129 49 -181s74.334 -78 125.001 -78z" />
    <glyph glyph-name="odieresis" unicode="&#xf6;" horiz-adv-x="634" 
d="M199 645c-16 0 -30.167 6.16699 -42.5 18.5s-18.5 26.833 -18.5 43.5c0 16 6.16699 30.167 18.5 42.5s26.5 18.5 42.5 18.5c16.667 0 31.167 -6.16699 43.5 -18.5s18.5 -26.5 18.5 -42.5c0 -16.667 -6.16699 -31.167 -18.5 -43.5s-26.833 -18.5 -43.5 -18.5zM430 645
c-16 0 -30.167 6.16699 -42.5 18.5s-18.5 26.833 -18.5 43.5c0 16 6.16699 30.167 18.5 42.5s26.5 18.5 42.5 18.5c16.667 0 31.167 -6.16699 43.5 -18.5s18.5 -26.5 18.5 -42.5c0 -16.667 -6.16699 -31.167 -18.5 -43.5s-26.833 -18.5 -43.5 -18.5zM317 -12
c-75.333 0 -138.666 24.667 -189.999 74s-77 112.666 -77 189.999c0 78 25.667 141.5 77 190.5s114.666 73.5 189.999 73.5s138.666 -24.5 189.999 -73.5s77 -112.5 77 -190.5c0 -77.333 -25.667 -140.666 -77 -189.999s-114.666 -74 -189.999 -74zM323 22
c44.667 0 82.834 17 114.501 51s47.5 84 47.5 150c0 68.667 -16.333 129.167 -49 181.5s-74.334 78.5 -125.001 78.5c-44.667 0 -82.834 -17.167 -114.501 -51.5s-47.5 -84.5 -47.5 -150.5c0 -68.667 16.333 -129 49 -181s74.334 -78 125.001 -78z" />
    <glyph glyph-name="divide" unicode="&#xf7;" horiz-adv-x="657" 
d="M329 390c-16 0 -29.833 5.83301 -41.5 17.5s-17.5 25.834 -17.5 42.501s5.83301 30.834 17.5 42.501s25.5 17.5 41.5 17.5c16.667 0 30.834 -5.83301 42.501 -17.5s17.5 -25.834 17.5 -42.501s-5.83301 -30.834 -17.5 -42.501s-25.834 -17.5 -42.501 -17.5zM68 237v48
h522v-48h-522zM329 13c-16 0 -29.833 5.83301 -41.5 17.5s-17.5 25.834 -17.5 42.501c0 16 5.83301 29.833 17.5 41.5s25.5 17.5 41.5 17.5c16.667 0 30.834 -5.83301 42.501 -17.5s17.5 -25.5 17.5 -41.5c0 -16.667 -5.83301 -30.834 -17.5 -42.501
s-25.834 -17.5 -42.501 -17.5z" />
    <glyph glyph-name="oslash" unicode="&#xf8;" horiz-adv-x="634" 
d="M317 -12c-60 0 -113.333 16.332 -160 48.999l-77 -91l-26 23l76 90c-53.333 50 -80 114.333 -80 193c0 78 25.667 141.5 77 190.5s114.666 73.5 189.999 73.5c59.333 0 112 -15.667 158 -47l77 91l27 -23l-76 -90c54 -50.667 81 -115.667 81 -195
c0 -77.333 -25.667 -140.666 -77 -189.999s-114.666 -74 -189.999 -74zM149 280.999c0 -58 12.001 -110.333 36.001 -157l244 290c-32.667 46 -72 69 -118 69c-44.667 0 -82.834 -17.167 -114.501 -51.5s-47.5 -84.5 -47.5 -150.5zM323.001 21.999
c44.667 0 82.833 17 114.5 51s47.5 84 47.5 150c0 60 -12.333 113 -37 159l-245 -290c33.333 -46.667 73.333 -70 120 -70z" />
    <glyph glyph-name="ugrave" unicode="&#xf9;" horiz-adv-x="598" 
d="M332 605h-26l-184 163v7h102zM421 502h90v-502h-90v145c-8.66699 -53.333 -28.667 -92.833 -60 -118.5s-69.333 -38.5 -114 -38.5c-110.667 0 -166 67 -166 201v313h89v-297c0 -108 40.333 -162 121 -162c36.667 0 67.5 13.5 92.5 40.5s37.5 67.833 37.5 122.5v296z" />
    <glyph glyph-name="uacute" unicode="&#xfa;" horiz-adv-x="598" 
d="M263 605l109 170h101v-7l-184 -163h-26zM421 502h90v-502h-90v145c-8.66699 -53.333 -28.667 -92.833 -60 -118.5s-69.333 -38.5 -114 -38.5c-110.667 0 -166 67 -166 201v313h89v-297c0 -108 40.333 -162 121 -162c36.667 0 67.5 13.5 92.5 40.5s37.5 67.833 37.5 122.5
v296z" />
    <glyph glyph-name="ucircumflex" unicode="&#xfb;" horiz-adv-x="598" 
d="M131 605l161 187h8l161 -187h-26l-139 106l-139 -106h-26zM421 502h90v-502h-90v145c-8.66699 -53.333 -28.667 -92.833 -60 -118.5s-69.333 -38.5 -114 -38.5c-110.667 0 -166 67 -166 201v313h89v-297c0 -108 40.333 -162 121 -162c36.667 0 67.5 13.5 92.5 40.5
s37.5 67.833 37.5 122.5v296z" />
    <glyph glyph-name="udieresis" unicode="&#xfc;" horiz-adv-x="598" 
d="M180 645c-16 0 -30.167 6.16699 -42.5 18.5s-18.5 26.833 -18.5 43.5c0 16 6.16699 30.167 18.5 42.5s26.5 18.5 42.5 18.5c16.667 0 31.167 -6.16699 43.5 -18.5s18.5 -26.5 18.5 -42.5c0 -16.667 -6.16699 -31.167 -18.5 -43.5s-26.833 -18.5 -43.5 -18.5zM411 645
c-16 0 -30.167 6.16699 -42.5 18.5s-18.5 26.833 -18.5 43.5c0 16 6.16699 30.167 18.5 42.5s26.5 18.5 42.5 18.5c16.667 0 31.167 -6.16699 43.5 -18.5s18.5 -26.5 18.5 -42.5c0 -16.667 -6.16699 -31.167 -18.5 -43.5s-26.833 -18.5 -43.5 -18.5zM421 502h90v-502h-90
v145c-8.66699 -53.333 -28.667 -92.833 -60 -118.5s-69.333 -38.5 -114 -38.5c-110.667 0 -166 67 -166 201v313h89v-297c0 -108 40.333 -162 121 -162c36.667 0 67.5 13.5 92.5 40.5s37.5 67.833 37.5 122.5v296z" />
    <glyph glyph-name="yacute" unicode="&#xfd;" horiz-adv-x="559" 
d="M267 605l109 170h101v-7l-184 -163h-26zM123 -248l128 256l-236 494h99l187 -393l196 393h51l-375 -750h-50z" />
    <glyph glyph-name="thorn" unicode="&#xfe;" horiz-adv-x="631" 
d="M342 -12c-37.333 0 -70.167 8.16895 -98.5 24.502s-50.5 38.5 -66.5 66.5v-327h-90v1028h90v-355c34.667 60.667 89.667 91 165 91c70.667 0 128 -24.833 172 -74.5s66 -112.834 66 -189.501s-22 -139.834 -66 -189.501s-101.333 -74.5 -172 -74.5zM176.999 86.002
c32.667 -36 75 -54 127 -54c53.333 0 96.166 20.833 128.499 62.5s48.5 94.167 48.5 157.5s-16.167 115.833 -48.5 157.5s-75.166 62.5 -128.499 62.5c-52 0 -94.333 -18 -127 -54v-332z" />
    <glyph glyph-name="ydieresis" unicode="&#xff;" horiz-adv-x="559" 
d="M184 645c-16 0 -30.167 6.16699 -42.5 18.5s-18.5 26.833 -18.5 43.5c0 16 6.16699 30.167 18.5 42.5s26.5 18.5 42.5 18.5c16.667 0 31.167 -6.16699 43.5 -18.5s18.5 -26.5 18.5 -42.5c0 -16.667 -6.16699 -31.167 -18.5 -43.5s-26.833 -18.5 -43.5 -18.5zM415 645
c-16 0 -30.167 6.16699 -42.5 18.5s-18.5 26.833 -18.5 43.5c0 16 6.16699 30.167 18.5 42.5s26.5 18.5 42.5 18.5c16.667 0 31.167 -6.16699 43.5 -18.5s18.5 -26.5 18.5 -42.5c0 -16.667 -6.16699 -31.167 -18.5 -43.5s-26.833 -18.5 -43.5 -18.5zM123 -248l128 256
l-236 494h99l187 -393l196 393h51l-375 -750h-50z" />
    <glyph glyph-name="Amacron" unicode="&#x100;" horiz-adv-x="759" 
d="M231 882v43h296v-43h-296zM641 0l-121 285h-329l-120 -285h-56l323 764h82l325 -764h-104zM211 332h289l-145 340z" />
    <glyph glyph-name="amacron" unicode="&#x101;" horiz-adv-x="563" 
d="M116 668v43h296v-43h-296zM204 -12c-46.667 0 -85.334 12.167 -116.001 36.5s-46 56.166 -46 95.499c0 96.667 109.667 155.667 329 177v36c0 53.333 -8.83301 92.5 -26.5 117.5s-45.167 37.5 -82.5 37.5c-42 0 -71.333 -11 -88 -33
c-6 -7.33301 -9.66699 -15.666 -11 -24.999s-1.33301 -20.333 0 -33s2 -19.667 2 -21c0 -13.333 -4 -24 -12 -32s-18.333 -12 -31 -12c-14 0 -25.167 4.33301 -33.5 13s-12.5 20.334 -12.5 35.001c0 36 18.333 67.667 55 95s82.334 41 137.001 41c64 0 112 -14.333 144 -43
s47.667 -77.334 47 -146.001l-1 -230c0 -24 2.83301 -40.833 8.5 -50.5s15.167 -14.5 28.5 -14.5c22 0 40.667 13.333 56 40l16 -9c-21.333 -49.333 -57.333 -74 -108 -74c-26 0 -46.833 8.33301 -62.5 25s-23.5 42 -23.5 76v28c-20 -86.667 -76.333 -130 -169 -130zM246 31
c33.333 0 62.499 12 87.499 36s37.5 61.333 37.5 112v94c-35.333 -4.66699 -65.833 -10.167 -91.5 -16.5s-49.667 -14.833 -72 -25.5s-39.166 -24 -50.499 -40s-17 -34.667 -17 -56c0 -28.667 9.66699 -53.167 29 -73.5s45 -30.5 77 -30.5z" />
    <glyph glyph-name="Abreve" unicode="&#x102;" horiz-adv-x="759" 
d="M379 830c-38.667 0 -73.5 11.833 -104.5 35.5s-49.167 63.5 -54.5 119.5h39c4.66699 -38.667 17.667 -68.334 39 -89.001s48.333 -31 81 -31s59.667 10.333 81 31s34.333 50.334 39 89.001h39c-5.33301 -56 -23.5 -95.833 -54.5 -119.5s-65.833 -35.5 -104.5 -35.5z
M641 0l-121 285h-329l-120 -285h-56l323 764h82l325 -764h-104zM211 332h289l-145 340z" />
    <glyph glyph-name="abreve" unicode="&#x103;" horiz-adv-x="563" 
d="M264 613c-17.333 0 -34 2.33301 -50 7s-32 12.5 -48 23.5s-29.5 27.333 -40.5 49s-17.833 47.167 -20.5 76.5h39c4.66699 -38.667 17.667 -68.334 39 -89.001s48.333 -31 81 -31s59.667 10.333 81 31s34.333 50.334 39 89.001h39
c-2.66699 -29.333 -9.5 -54.833 -20.5 -76.5s-24.5 -38 -40.5 -49s-32 -18.833 -48 -23.5s-32.667 -7 -50 -7zM204 -12c-46.667 0 -85.334 12.167 -116.001 36.5s-46 56.166 -46 95.499c0 96.667 109.667 155.667 329 177v36c0 53.333 -8.83301 92.5 -26.5 117.5
s-45.167 37.5 -82.5 37.5c-42 0 -71.333 -11 -88 -33c-6 -7.33301 -9.66699 -15.666 -11 -24.999s-1.33301 -20.333 0 -33s2 -19.667 2 -21c0 -13.333 -4 -24 -12 -32s-18.333 -12 -31 -12c-14 0 -25.167 4.33301 -33.5 13s-12.5 20.334 -12.5 35.001
c0 36 18.333 67.667 55 95s82.334 41 137.001 41c64 0 112 -14.333 144 -43s47.667 -77.334 47 -146.001l-1 -230c0 -24 2.83301 -40.833 8.5 -50.5s15.167 -14.5 28.5 -14.5c22 0 40.667 13.333 56 40l16 -9c-21.333 -49.333 -57.333 -74 -108 -74
c-26 0 -46.833 8.33301 -62.5 25s-23.5 42 -23.5 76v28c-20 -86.667 -76.333 -130 -169 -130zM246 31c33.333 0 62.499 12 87.499 36s37.5 61.333 37.5 112v94c-35.333 -4.66699 -65.833 -10.167 -91.5 -16.5s-49.667 -14.833 -72 -25.5s-39.166 -24 -50.499 -40
s-17 -34.667 -17 -56c0 -28.667 9.66699 -53.167 29 -73.5s45 -30.5 77 -30.5z" />
    <glyph glyph-name="Aogonek" unicode="&#x104;" horiz-adv-x="759" 
d="M668 -233c-28.667 0 -53.333 7.16602 -74 21.499s-31 33.833 -31 58.5c0 45.333 46.333 96.333 139 153h-61l-121 285h-329l-120 -285h-56l323 764h82l325 -764h-26c-64 -56 -96 -102.333 -96 -139c0 -19.333 7.16699 -34.166 21.5 -44.499s32.5 -15.5 54.5 -15.5
s44.333 5.33301 67 16l2 -21c-32 -19.333 -65.333 -29 -100 -29zM211.001 331.999h289l-145 340z" />
    <glyph glyph-name="aogonek" unicode="&#x105;" horiz-adv-x="563" 
d="M204 -12c-46.667 0 -85.333 12.167 -116 36.5s-46 56.166 -46 95.499c0 96.667 109.667 155.667 329 177v36c0 53.333 -8.83301 92.5 -26.5 117.5s-45.167 37.5 -82.5 37.5c-42 0 -71.333 -11 -88 -33c-6 -7.33301 -9.66699 -15.666 -11 -24.999s-1.33301 -20.333 0 -33
s2 -19.667 2 -21c0 -13.333 -4 -24 -12 -32s-18.333 -12 -31 -12c-14 0 -25.167 4.33301 -33.5 13s-12.5 20.334 -12.5 35.001c0 36 18.333 67.667 55 95s82.334 41 137.001 41c64 0 112 -14.333 144 -43s47.667 -77.334 47 -146.001l-1 -230
c0 -24 2.83301 -40.833 8.5 -50.5s15.167 -14.5 28.5 -14.5c22 0 40.667 13.333 56 40l16 -9c-18.667 -42 -47.667 -66 -87 -72c-54.667 -50.667 -82 -94 -82 -130c0 -19.333 7.16699 -34.5 21.5 -45.5s32.5 -16.5 54.5 -16.5c19.333 0 41.666 5.33301 66.999 16l2 -19
c-32 -19.333 -65.333 -29 -100 -29c-28.667 0 -53.167 7.16699 -73.5 21.5s-30.5 33.833 -30.5 58.5c0 40.667 40.667 88 122 142h-2c-26 0 -46.833 8.33301 -62.5 25s-23.5 42 -23.5 76v28c-20 -86.667 -76.333 -130 -169 -130zM246.001 31c33.333 0 62.499 12 87.499 36
s37.5 61.333 37.5 112v94c-35.333 -4.66699 -65.833 -10.167 -91.5 -16.5s-49.667 -14.833 -72 -25.5s-39.166 -24 -50.499 -40s-17 -34.667 -17 -56c0 -28.667 9.66699 -53.167 29 -73.5s45 -30.5 77 -30.5z" />
    <glyph glyph-name="Cacute" unicode="&#x106;" horiz-adv-x="820" 
d="M451 843l127 129h122v-2l-221 -127h-28zM481 -12c-125.333 0 -227.503 35.501 -306.503 106.501s-118.5 166.5 -118.5 286.5c0 119.333 40 214.666 120 285.999s183.333 107 310 107c104.667 0 187 -17.333 247 -52l19 -196h-30l-54 154c-6 17.333 -27.667 30.333 -65 39
s-77.333 13 -120 13s-82.167 -6 -118.5 -18s-69.666 -30.5 -99.999 -55.5s-54.166 -59.5 -71.499 -103.5s-26 -95.667 -26 -155c0 -112 28.833 -201.667 86.5 -269s136.5 -101 236.5 -101c42.667 0 82.334 4.33301 119.001 13s58 21.667 64 39l54 154h30l-19 -196
c-28 -16 -66.167 -28.667 -114.5 -38s-95.833 -14 -142.5 -14z" />
    <glyph glyph-name="cacute" unicode="&#x107;" horiz-adv-x="579" 
d="M269 605l109 170h101v-7l-184 -163h-26zM307 -12c-76.667 0 -138.5 24.668 -185.5 74.001s-70.5 112 -70.5 188c0 81.333 25.333 146 76 194s112.667 72 186 72c58.667 0 106.334 -11.833 143.001 -35.5s55 -49.834 55 -78.501c0 -14 -3.83301 -25.333 -11.5 -34
s-17.5 -13 -29.5 -13c-27.333 0 -46.333 16.667 -57 50c-6.66699 25.333 -18 45.333 -34 60s-41.667 22 -77 22c-46 0 -84.167 -17.333 -114.5 -52s-45.5 -83 -45.5 -145c0 -74 18.167 -133 54.5 -177s84.166 -66 143.499 -66c94 0 154 48 180 144h27
c-28.667 -135.333 -108.667 -203 -240 -203z" />
    <glyph glyph-name="Ccircumflex" unicode="&#x108;" horiz-adv-x="820" 
d="M317 837l157 146h10l157 -146h-28l-134 74l-134 -74h-28zM481 -12c-125.333 0 -227.503 35.501 -306.503 106.501s-118.5 166.5 -118.5 286.5c0 119.333 40 214.666 120 285.999s183.333 107 310 107c104.667 0 187 -17.333 247 -52l19 -196h-30l-54 154
c-6 17.333 -27.667 30.333 -65 39s-77.333 13 -120 13s-82.167 -6 -118.5 -18s-69.666 -30.5 -99.999 -55.5s-54.166 -59.5 -71.499 -103.5s-26 -95.667 -26 -155c0 -112 28.833 -201.667 86.5 -269s136.5 -101 236.5 -101c42.667 0 82.334 4.33301 119.001 13
s58 21.667 64 39l54 154h30l-19 -196c-28 -16 -66.167 -28.667 -114.5 -38s-95.833 -14 -142.5 -14z" />
    <glyph glyph-name="ccircumflex" unicode="&#x109;" horiz-adv-x="579" 
d="M137 605l161 187h8l161 -187h-26l-139 106l-139 -106h-26zM307 -12c-76.667 0 -138.5 24.668 -185.5 74.001s-70.5 112 -70.5 188c0 81.333 25.333 146 76 194s112.667 72 186 72c58.667 0 106.334 -11.833 143.001 -35.5s55 -49.834 55 -78.501
c0 -14 -3.83301 -25.333 -11.5 -34s-17.5 -13 -29.5 -13c-27.333 0 -46.333 16.667 -57 50c-6.66699 25.333 -18 45.333 -34 60s-41.667 22 -77 22c-46 0 -84.167 -17.333 -114.5 -52s-45.5 -83 -45.5 -145c0 -74 18.167 -133 54.5 -177s84.166 -66 143.499 -66
c94 0 154 48 180 144h27c-28.667 -135.333 -108.667 -203 -240 -203z" />
    <glyph glyph-name="Cdotaccent" unicode="&#x10a;" horiz-adv-x="820" 
d="M479 858c-16 0 -30.167 6.16699 -42.5 18.5s-18.5 26.833 -18.5 43.5c0 16 6.16699 30.167 18.5 42.5s26.5 18.5 42.5 18.5c16.667 0 31.167 -6.16699 43.5 -18.5s18.5 -26.5 18.5 -42.5c0 -16.667 -6.16699 -31.167 -18.5 -43.5s-26.833 -18.5 -43.5 -18.5zM481 -12
c-125.333 0 -227.503 35.501 -306.503 106.501s-118.5 166.5 -118.5 286.5c0 119.333 40 214.666 120 285.999s183.333 107 310 107c104.667 0 187 -17.333 247 -52l19 -196h-30l-54 154c-6 17.333 -27.667 30.333 -65 39s-77.333 13 -120 13s-82.167 -6 -118.5 -18
s-69.666 -30.5 -99.999 -55.5s-54.166 -59.5 -71.499 -103.5s-26 -95.667 -26 -155c0 -112 28.833 -201.667 86.5 -269s136.5 -101 236.5 -101c42.667 0 82.334 4.33301 119.001 13s58 21.667 64 39l54 154h30l-19 -196c-28 -16 -66.167 -28.667 -114.5 -38
s-95.833 -14 -142.5 -14z" />
    <glyph glyph-name="cdotaccent" unicode="&#x10b;" horiz-adv-x="579" 
d="M302 645c-16 0 -30.167 6.16699 -42.5 18.5s-18.5 26.833 -18.5 43.5c0 16 6.16699 30.167 18.5 42.5s26.5 18.5 42.5 18.5c16.667 0 31.167 -6.16699 43.5 -18.5s18.5 -26.5 18.5 -42.5c0 -16.667 -6.16699 -31.167 -18.5 -43.5s-26.833 -18.5 -43.5 -18.5zM307 -12
c-76.667 0 -138.5 24.668 -185.5 74.001s-70.5 112 -70.5 188c0 81.333 25.333 146 76 194s112.667 72 186 72c58.667 0 106.334 -11.833 143.001 -35.5s55 -49.834 55 -78.501c0 -14 -3.83301 -25.333 -11.5 -34s-17.5 -13 -29.5 -13c-27.333 0 -46.333 16.667 -57 50
c-6.66699 25.333 -18 45.333 -34 60s-41.667 22 -77 22c-46 0 -84.167 -17.333 -114.5 -52s-45.5 -83 -45.5 -145c0 -74 18.167 -133 54.5 -177s84.166 -66 143.499 -66c94 0 154 48 180 144h27c-28.667 -135.333 -108.667 -203 -240 -203z" />
    <glyph glyph-name="Ccaron" unicode="&#x10c;" horiz-adv-x="820" 
d="M317 983h28l134 -74l134 74h28l-157 -146h-10zM481 -12c-125.333 0 -227.503 35.501 -306.503 106.501s-118.5 166.5 -118.5 286.5c0 119.333 40 214.666 120 285.999s183.333 107 310 107c104.667 0 187 -17.333 247 -52l19 -196h-30l-54 154
c-6 17.333 -27.667 30.333 -65 39s-77.333 13 -120 13s-82.167 -6 -118.5 -18s-69.666 -30.5 -99.999 -55.5s-54.166 -59.5 -71.499 -103.5s-26 -95.667 -26 -155c0 -112 28.833 -201.667 86.5 -269s136.5 -101 236.5 -101c42.667 0 82.334 4.33301 119.001 13
s58 21.667 64 39l54 154h30l-19 -196c-28 -16 -66.167 -28.667 -114.5 -38s-95.833 -14 -142.5 -14z" />
    <glyph glyph-name="ccaron" unicode="&#x10d;" horiz-adv-x="579" 
d="M137 792h26l139 -107l139 107h26l-161 -187h-8zM307 -12c-76.667 0 -138.5 24.668 -185.5 74.001s-70.5 112 -70.5 188c0 81.333 25.333 146 76 194s112.667 72 186 72c58.667 0 106.334 -11.833 143.001 -35.5s55 -49.834 55 -78.501c0 -14 -3.83301 -25.333 -11.5 -34
s-17.5 -13 -29.5 -13c-27.333 0 -46.333 16.667 -57 50c-6.66699 25.333 -18 45.333 -34 60s-41.667 22 -77 22c-46 0 -84.167 -17.333 -114.5 -52s-45.5 -83 -45.5 -145c0 -74 18.167 -133 54.5 -177s84.166 -66 143.499 -66c94 0 154 48 180 144h27
c-28.667 -135.333 -108.667 -203 -240 -203z" />
    <glyph glyph-name="Dcaron" unicode="&#x10e;" horiz-adv-x="841" 
d="M255 983h28l134 -74l134 74h28l-157 -146h-10zM322 0h-212v758h208c66 0 126.5 -7.33301 181.5 -22s104 -36.667 147 -66s76.667 -68.333 101 -117s36.5 -105 36.5 -169s-12.167 -121 -36.5 -171s-57.833 -90.167 -100.5 -120.5s-91.5 -53.333 -146.5 -69
s-114.5 -23.5 -178.5 -23.5zM207 44l111 -0.000976562c110 0 196.833 26.833 260.5 80.5s95.5 138.834 95.5 255.501s-31.833 201.5 -95.5 254.5s-150.5 79.5 -260.5 79.5h-111v-670z" />
    <glyph glyph-name="dcaron" unicode="&#x10f;" horiz-adv-x="655" 
d="M631 526l-10.999 18.999c60 45.333 90 87.333 90 126c0 34 -20.333 56 -61 66c-0.666992 16.667 3.66602 29.834 12.999 39.501s22 14.5 38 14.5c20 0 36.5 -7.16699 49.5 -21.5s19.5 -32.5 19.5 -54.5c0 -62.667 -46 -125.667 -138 -189zM289.001 -12.001
c-70.667 0 -128 24.8311 -172 74.498s-66 112.834 -66 189.501s22 139.834 66 189.501s101.333 74.5 172 74.5c74 0 129 -29.333 165 -88v352h90v-780h-90v76c-36 -58.667 -91 -88 -165 -88zM150.001 251.997c0 -64 16.333 -116.667 49 -158s75.667 -62 129 -62
c52 0 94 18.667 126 56v328c-32.667 37.333 -74.667 56 -126 56c-53.333 0 -96.333 -20.667 -129 -62s-49 -94 -49 -158z" />
    <glyph glyph-name="Dcroat" unicode="&#x110;" horiz-adv-x="849" 
d="M332 0h-212v372h-100v47h100v339h208c66 0 126.5 -7.33301 181.5 -22s104 -36.667 147 -66s76.667 -68.333 101 -117s36.5 -105 36.5 -169s-12.167 -121 -36.5 -171s-57.833 -90.167 -100.5 -120.5s-91.5 -53.333 -146.5 -69s-114.5 -23.5 -178.5 -23.5zM217 44
l111 -0.000976562c110 0 196.833 26.833 260.5 80.5s95.5 138.834 95.5 255.501s-31.833 201.5 -95.5 254.5s-150.5 79.5 -260.5 79.5h-111v-295h194v-47h-194v-328z" />
    <glyph glyph-name="dcroat" unicode="&#x111;" horiz-adv-x="631" 
d="M289 -12c-70.667 0 -128 24.8311 -172 74.498s-66 112.834 -66 189.501s22 139.834 66 189.501s101.333 74.5 172 74.5c74 0 129 -29.333 165 -88v196h-130v35h130v121h90v-121h90v-35h-90v-624h-90v76c-36 -58.667 -91 -88 -165 -88zM150 251.998
c0 -64 16.333 -116.667 49 -158s75.667 -62 129 -62c52 0 94 18.667 126 56v328c-32.667 37.333 -74.667 56 -126 56c-53.333 0 -96.333 -20.667 -129 -62s-49 -94 -49 -158z" />
    <glyph glyph-name="Emacron" unicode="&#x112;" horiz-adv-x="667" 
d="M232 882v43h296v-43h-296zM110 0v758h500v-47h-403v-292h345v-47h-345v-325h403v-47h-500z" />
    <glyph glyph-name="emacron" unicode="&#x113;" horiz-adv-x="594" 
d="M154 668v43h296v-43h-296zM307 -12c-76.667 0 -138.5 24.666 -185.5 73.999s-70.5 112 -70.5 188c0 80 25.167 144.333 75.5 193s108.5 73 174.5 73c64 0 118 -18.5 162 -55.5s71 -89.833 81 -158.5h-402v-12c0 -74 18.333 -133 55 -177s84.667 -66 144 -66
c96 0 157.333 46.333 184 139h27c-14 -65.333 -41.833 -114.666 -83.5 -147.999s-95.5 -50 -161.5 -50zM299 486.999c-38.667 0 -72.168 -13.167 -100.501 -39.5s-46.166 -63.5 -53.499 -111.5h296c-4 50.667 -18.833 88.5 -44.5 113.5s-58.167 37.5 -97.5 37.5z" />
    <glyph glyph-name="Ebreve" unicode="&#x114;" horiz-adv-x="667" 
d="M380 830c-38.667 0 -73.5 11.833 -104.5 35.5s-49.167 63.5 -54.5 119.5h39c4.66699 -38.667 17.667 -68.334 39 -89.001s48.333 -31 81 -31s59.667 10.333 81 31s34.333 50.334 39 89.001h39c-5.33301 -56 -23.5 -95.833 -54.5 -119.5s-65.833 -35.5 -104.5 -35.5z
M110 0v758h500v-47h-403v-292h345v-47h-345v-325h403v-47h-500z" />
    <glyph glyph-name="ebreve" unicode="&#x115;" horiz-adv-x="594" 
d="M302 613c-17.333 0 -34 2.33301 -50 7s-32 12.5 -48 23.5s-29.5 27.333 -40.5 49s-17.833 47.167 -20.5 76.5h39c4.66699 -38.667 17.667 -68.334 39 -89.001s48.333 -31 81 -31s59.667 10.333 81 31s34.333 50.334 39 89.001h39
c-2.66699 -29.333 -9.5 -54.833 -20.5 -76.5s-24.5 -38 -40.5 -49s-32 -18.833 -48 -23.5s-32.667 -7 -50 -7zM307 -12c-76.667 0 -138.5 24.666 -185.5 73.999s-70.5 112 -70.5 188c0 80 25.167 144.333 75.5 193s108.5 73 174.5 73c64 0 118 -18.5 162 -55.5
s71 -89.833 81 -158.5h-402v-12c0 -74 18.333 -133 55 -177s84.667 -66 144 -66c96 0 157.333 46.333 184 139h27c-14 -65.333 -41.833 -114.666 -83.5 -147.999s-95.5 -50 -161.5 -50zM299 486.999c-38.667 0 -72.168 -13.167 -100.501 -39.5s-46.166 -63.5 -53.499 -111.5
h296c-4 50.667 -18.833 88.5 -44.5 113.5s-58.167 37.5 -97.5 37.5z" />
    <glyph glyph-name="Edotaccent" unicode="&#x116;" horiz-adv-x="667" 
d="M380 858c-16 0 -30.167 6.16699 -42.5 18.5s-18.5 26.833 -18.5 43.5c0 16 6.16699 30.167 18.5 42.5s26.5 18.5 42.5 18.5c16.667 0 31.167 -6.16699 43.5 -18.5s18.5 -26.5 18.5 -42.5c0 -16.667 -6.16699 -31.167 -18.5 -43.5s-26.833 -18.5 -43.5 -18.5zM110 0v758
h500v-47h-403v-292h345v-47h-345v-325h403v-47h-500z" />
    <glyph glyph-name="edotaccent" unicode="&#x117;" horiz-adv-x="594" 
d="M302 645c-16 0 -30.167 6.16699 -42.5 18.5s-18.5 26.833 -18.5 43.5c0 16 6.16699 30.167 18.5 42.5s26.5 18.5 42.5 18.5c16.667 0 31.167 -6.16699 43.5 -18.5s18.5 -26.5 18.5 -42.5c0 -16.667 -6.16699 -31.167 -18.5 -43.5s-26.833 -18.5 -43.5 -18.5zM307 -12
c-76.667 0 -138.5 24.666 -185.5 73.999s-70.5 112 -70.5 188c0 80 25.167 144.333 75.5 193s108.5 73 174.5 73c64 0 118 -18.5 162 -55.5s71 -89.833 81 -158.5h-402v-12c0 -74 18.333 -133 55 -177s84.667 -66 144 -66c96 0 157.333 46.333 184 139h27
c-14 -65.333 -41.833 -114.666 -83.5 -147.999s-95.5 -50 -161.5 -50zM299 486.999c-38.667 0 -72.168 -13.167 -100.501 -39.5s-46.166 -63.5 -53.499 -111.5h296c-4 50.667 -18.833 88.5 -44.5 113.5s-58.167 37.5 -97.5 37.5z" />
    <glyph glyph-name="Eogonek" unicode="&#x118;" horiz-adv-x="667" 
d="M110 0l0.000976562 757.999h500v-47h-403v-292h345v-47h-345v-325h403v-47c-64 -56 -96 -102.333 -96 -139c0 -19.333 7.16699 -34.166 21.5 -44.499s32.5 -15.5 54.5 -15.5s44.333 5.33301 67 16l2 -21c-32 -19.333 -65.333 -29 -100 -29
c-28.667 0 -53.334 7.16699 -74.001 21.5s-31 33.833 -31 58.5c0 45.333 46.333 96.333 139 153h-483z" />
    <glyph glyph-name="eogonek" unicode="&#x119;" horiz-adv-x="594" 
d="M420 -204c-32 -19.333 -65.332 -29.001 -99.999 -29.001c-28.667 0 -53.167 7.16699 -73.5 21.5s-30.5 33.833 -30.5 58.5c0 48 48 96.333 144 145c-14.667 -2.66699 -32.334 -4 -53.001 -4c-76.667 0 -138.5 24.667 -185.5 74s-70.5 112 -70.5 188
c0 80 25.167 144.333 75.5 193s108.5 73 174.5 73c64 0 118 -18.5 162 -55.5s71 -89.833 81 -158.5h-402v-12c0 -74 18.333 -133 55 -177s84.667 -66 144 -66c96 0 157.333 46.333 184 139h27c-10.667 -50.667 -28.667 -89.667 -54 -117s-57.666 -50.666 -96.999 -69.999
c-84 -42 -126 -88 -126 -138c0 -19.333 7.16699 -34.5 21.5 -45.5s32.5 -16.5 54.5 -16.5c19.333 0 41.666 5.33301 66.999 16zM299.001 486.999c-38.667 0 -72.168 -13.167 -100.501 -39.5s-46.166 -63.5 -53.499 -111.5h296c-4 50.667 -18.833 88.5 -44.5 113.5
s-58.167 37.5 -97.5 37.5z" />
    <glyph glyph-name="Ecaron" unicode="&#x11a;" horiz-adv-x="667" 
d="M218 983h28l134 -74l134 74h28l-157 -146h-10zM110 0v758h500v-47h-403v-292h345v-47h-345v-325h403v-47h-500z" />
    <glyph glyph-name="ecaron" unicode="&#x11b;" horiz-adv-x="594" 
d="M137 792h26l139 -107l139 107h26l-161 -187h-8zM307 -12c-76.667 0 -138.5 24.666 -185.5 73.999s-70.5 112 -70.5 188c0 80 25.167 144.333 75.5 193s108.5 73 174.5 73c64 0 118 -18.5 162 -55.5s71 -89.833 81 -158.5h-402v-12c0 -74 18.333 -133 55 -177
s84.667 -66 144 -66c96 0 157.333 46.333 184 139h27c-14 -65.333 -41.833 -114.666 -83.5 -147.999s-95.5 -50 -161.5 -50zM299 486.999c-38.667 0 -72.168 -13.167 -100.501 -39.5s-46.166 -63.5 -53.499 -111.5h296c-4 50.667 -18.833 88.5 -44.5 113.5
s-58.167 37.5 -97.5 37.5z" />
    <glyph glyph-name="Gcircumflex" unicode="&#x11c;" horiz-adv-x="863" 
d="M318 837l157 146h10l157 -146h-28l-134 74l-134 -74h-28zM491 774c44.667 0 89.6699 -4.49805 135.003 -13.498s82.333 -21.833 111 -38.5l18 -186h-30l-53 144c-6.66699 17.333 -28.834 30.333 -66.501 39s-77.834 13 -120.501 13c-32.667 0 -63.667 -3.5 -93 -10.5
s-58 -18.833 -86 -35.5s-52 -37.334 -72 -62.001s-36.167 -56.167 -48.5 -94.5s-18.5 -81.5 -18.5 -129.5c0 -112 29.167 -201.333 87.5 -268s138.5 -100 240.5 -100c74 0 134.333 12.333 181 37v257h-218v47h315v-323c-76.667 -41.333 -172.334 -62 -287.001 -62
c-127.333 0 -230.833 35.5 -310.5 106.5s-119.5 166.5 -119.5 286.5c0 119.333 40.5 214.666 121.5 285.999s185.5 107 313.5 107z" />
    <glyph glyph-name="gcircumflex" unicode="&#x11d;" horiz-adv-x="590" 
d="M131 605l161 187h8l161 -187h-26l-139 106l-139 -106h-26zM281 173c-25.333 0 -48.999 2.99805 -70.999 8.99805c-26.667 -7.33301 -50.334 -17.666 -71.001 -30.999s-31 -27.333 -31 -42c0 -32 36 -48 108 -48h114c76 0 133.833 -9.5 173.5 -28.5
s59.5 -53.833 59.5 -104.5c0 -40.667 -15.5 -75.334 -46.5 -104.001s-68 -48.834 -111 -60.501s-88.833 -17.5 -137.5 -17.5c-70.667 0 -127.334 11.667 -170.001 35s-64 53.333 -64 90c0 26.667 12.167 49.5 36.5 68.5s57.5 33.167 99.5 42.5c-39.333 2 -70.333 11 -93 27
s-34 38 -34 66c0 24.667 14.167 47.334 42.5 68.001s64.166 35.667 107.499 45c-36.667 12.667 -65.667 32.834 -87 60.501s-32 59.5 -32 95.5c0 50 19.333 91.167 58 123.5s88.334 48.5 149.001 48.5c50.667 0 94.334 -12 131.001 -36l30 59h167l-31 -63h-160
c46.667 -32.667 70 -76.667 70 -132c0 -49.333 -19.5 -90.166 -58.5 -122.499s-88.5 -48.5 -148.5 -48.5zM281.001 196.998c36.667 0 65 13.333 85 40s30 62.334 30 107.001c0 45.333 -10 81.333 -30 108s-48.333 40 -85 40s-65.167 -13.333 -85.5 -40
s-30.5 -62.667 -30.5 -108c0 -44.667 10.167 -80.334 30.5 -107.001s48.833 -40 85.5 -40zM115.001 -116.002c0 -34.667 13.832 -61.666 41.499 -80.999s66.834 -29 117.501 -29c58 0 106 9.66699 144 29s57 48.666 57 87.999c0 32 -12.667 55 -38 69s-64 21 -116 21h-131
h-4c-47.333 -18 -71 -50.333 -71 -97z" />
    <glyph glyph-name="Gbreve" unicode="&#x11e;" horiz-adv-x="863" 
d="M480 830c-38.667 0 -73.5 11.833 -104.5 35.5s-49.167 63.5 -54.5 119.5h39c4.66699 -38.667 17.667 -68.334 39 -89.001s48.333 -31 81 -31s59.667 10.333 81 31s34.333 50.334 39 89.001h39c-5.33301 -56 -23.5 -95.833 -54.5 -119.5s-65.833 -35.5 -104.5 -35.5z
M491 774c44.667 0 89.6699 -4.49805 135.003 -13.498s82.333 -21.833 111 -38.5l18 -186h-30l-53 144c-6.66699 17.333 -28.834 30.333 -66.501 39s-77.834 13 -120.501 13c-32.667 0 -63.667 -3.5 -93 -10.5s-58 -18.833 -86 -35.5s-52 -37.334 -72 -62.001
s-36.167 -56.167 -48.5 -94.5s-18.5 -81.5 -18.5 -129.5c0 -112 29.167 -201.333 87.5 -268s138.5 -100 240.5 -100c74 0 134.333 12.333 181 37v257h-218v47h315v-323c-76.667 -41.333 -172.334 -62 -287.001 -62c-127.333 0 -230.833 35.5 -310.5 106.5
s-119.5 166.5 -119.5 286.5c0 119.333 40.5 214.666 121.5 285.999s185.5 107 313.5 107z" />
    <glyph glyph-name="gbreve" unicode="&#x11f;" horiz-adv-x="590" 
d="M296 613c-17.333 0 -34 2.33301 -50 7s-32 12.5 -48 23.5s-29.5 27.333 -40.5 49s-17.833 47.167 -20.5 76.5h39c4.66699 -38.667 17.667 -68.334 39 -89.001s48.333 -31 81 -31s59.667 10.333 81 31s34.333 50.334 39 89.001h39
c-2.66699 -29.333 -9.5 -54.833 -20.5 -76.5s-24.5 -38 -40.5 -49s-32 -18.833 -48 -23.5s-32.667 -7 -50 -7zM281 173c-25.333 0 -48.999 2.99805 -70.999 8.99805c-26.667 -7.33301 -50.334 -17.666 -71.001 -30.999s-31 -27.333 -31 -42c0 -32 36 -48 108 -48h114
c76 0 133.833 -9.5 173.5 -28.5s59.5 -53.833 59.5 -104.5c0 -40.667 -15.5 -75.334 -46.5 -104.001s-68 -48.834 -111 -60.501s-88.833 -17.5 -137.5 -17.5c-70.667 0 -127.334 11.667 -170.001 35s-64 53.333 -64 90c0 26.667 12.167 49.5 36.5 68.5
s57.5 33.167 99.5 42.5c-39.333 2 -70.333 11 -93 27s-34 38 -34 66c0 24.667 14.167 47.334 42.5 68.001s64.166 35.667 107.499 45c-36.667 12.667 -65.667 32.834 -87 60.501s-32 59.5 -32 95.5c0 50 19.333 91.167 58 123.5s88.334 48.5 149.001 48.5
c50.667 0 94.334 -12 131.001 -36l30 59h167l-31 -63h-160c46.667 -32.667 70 -76.667 70 -132c0 -49.333 -19.5 -90.166 -58.5 -122.499s-88.5 -48.5 -148.5 -48.5zM281.001 196.998c36.667 0 65 13.333 85 40s30 62.334 30 107.001c0 45.333 -10 81.333 -30 108
s-48.333 40 -85 40s-65.167 -13.333 -85.5 -40s-30.5 -62.667 -30.5 -108c0 -44.667 10.167 -80.334 30.5 -107.001s48.833 -40 85.5 -40zM115.001 -116.002c0 -34.667 13.832 -61.666 41.499 -80.999s66.834 -29 117.501 -29c58 0 106 9.66699 144 29s57 48.666 57 87.999
c0 32 -12.667 55 -38 69s-64 21 -116 21h-131h-4c-47.333 -18 -71 -50.333 -71 -97z" />
    <glyph glyph-name="Gdotaccent" unicode="&#x120;" horiz-adv-x="863" 
d="M480 858c-16 0 -30.167 6.16699 -42.5 18.5s-18.5 26.833 -18.5 43.5c0 16 6.16699 30.167 18.5 42.5s26.5 18.5 42.5 18.5c16.667 0 31.167 -6.16699 43.5 -18.5s18.5 -26.5 18.5 -42.5c0 -16.667 -6.16699 -31.167 -18.5 -43.5s-26.833 -18.5 -43.5 -18.5zM491 774
c44.667 0 89.6699 -4.49805 135.003 -13.498s82.333 -21.833 111 -38.5l18 -186h-30l-53 144c-6.66699 17.333 -28.834 30.333 -66.501 39s-77.834 13 -120.501 13c-32.667 0 -63.667 -3.5 -93 -10.5s-58 -18.833 -86 -35.5s-52 -37.334 -72 -62.001
s-36.167 -56.167 -48.5 -94.5s-18.5 -81.5 -18.5 -129.5c0 -112 29.167 -201.333 87.5 -268s138.5 -100 240.5 -100c74 0 134.333 12.333 181 37v257h-218v47h315v-323c-76.667 -41.333 -172.334 -62 -287.001 -62c-127.333 0 -230.833 35.5 -310.5 106.5
s-119.5 166.5 -119.5 286.5c0 119.333 40.5 214.666 121.5 285.999s185.5 107 313.5 107z" />
    <glyph glyph-name="gdotaccent" unicode="&#x121;" horiz-adv-x="590" 
d="M296 645c-16 0 -30.167 6.16699 -42.5 18.5s-18.5 26.833 -18.5 43.5c0 16 6.16699 30.167 18.5 42.5s26.5 18.5 42.5 18.5c16.667 0 31.167 -6.16699 43.5 -18.5s18.5 -26.5 18.5 -42.5c0 -16.667 -6.16699 -31.167 -18.5 -43.5s-26.833 -18.5 -43.5 -18.5zM281 173
c-25.333 0 -48.999 2.99805 -70.999 8.99805c-26.667 -7.33301 -50.334 -17.666 -71.001 -30.999s-31 -27.333 -31 -42c0 -32 36 -48 108 -48h114c76 0 133.833 -9.5 173.5 -28.5s59.5 -53.833 59.5 -104.5c0 -40.667 -15.5 -75.334 -46.5 -104.001
s-68 -48.834 -111 -60.501s-88.833 -17.5 -137.5 -17.5c-70.667 0 -127.334 11.667 -170.001 35s-64 53.333 -64 90c0 26.667 12.167 49.5 36.5 68.5s57.5 33.167 99.5 42.5c-39.333 2 -70.333 11 -93 27s-34 38 -34 66c0 24.667 14.167 47.334 42.5 68.001
s64.166 35.667 107.499 45c-36.667 12.667 -65.667 32.834 -87 60.501s-32 59.5 -32 95.5c0 50 19.333 91.167 58 123.5s88.334 48.5 149.001 48.5c50.667 0 94.334 -12 131.001 -36l30 59h167l-31 -63h-160c46.667 -32.667 70 -76.667 70 -132
c0 -49.333 -19.5 -90.166 -58.5 -122.499s-88.5 -48.5 -148.5 -48.5zM281.001 196.998c36.667 0 65 13.333 85 40s30 62.334 30 107.001c0 45.333 -10 81.333 -30 108s-48.333 40 -85 40s-65.167 -13.333 -85.5 -40s-30.5 -62.667 -30.5 -108
c0 -44.667 10.167 -80.334 30.5 -107.001s48.833 -40 85.5 -40zM115.001 -116.002c0 -34.667 13.832 -61.666 41.499 -80.999s66.834 -29 117.501 -29c58 0 106 9.66699 144 29s57 48.666 57 87.999c0 32 -12.667 55 -38 69s-64 21 -116 21h-131h-4
c-47.333 -18 -71 -50.333 -71 -97z" />
    <glyph glyph-name="Gcommaaccent" unicode="&#x122;" horiz-adv-x="863" 
d="M491 774c44.667 0 89.6699 -4.49805 135.003 -13.498s82.333 -21.833 111 -38.5l18 -186h-30l-53 144c-6.66699 17.333 -28.834 30.333 -66.501 39s-77.834 13 -120.501 13c-32.667 0 -63.667 -3.5 -93 -10.5s-58 -18.833 -86 -35.5s-52 -37.334 -72 -62.001
s-36.167 -56.167 -48.5 -94.5s-18.5 -81.5 -18.5 -129.5c0 -112 29.167 -201.333 87.5 -268s138.5 -100 240.5 -100c74 0 134.333 12.333 181 37v257h-218v47h315v-323c-76.667 -41.333 -172.334 -62 -287.001 -62c-127.333 0 -230.833 35.5 -310.5 106.5
s-119.5 166.5 -119.5 286.5c0 119.333 40.5 214.666 121.5 285.999s185.5 107 313.5 107zM426.003 -339.998l-10.999 19c60 44.667 90 86.334 90 125.001c0 34 -20.333 56 -61 66c-0.666992 16.667 3.66602 30 12.999 40s22 15 38 15c20 0 36.5 -7.33301 49.5 -22
s19.5 -33 19.5 -55c0 -62.667 -46 -125.334 -138 -188.001z" />
    <glyph glyph-name="gcommaaccent" unicode="&#x123;" horiz-adv-x="590" 
d="M360 847l10.999 -19.001c-60 -44 -90 -85.667 -90 -125c0 -34 20.333 -56 61 -66c0.666992 -16.667 -3.66602 -30 -12.999 -40s-22 -15 -38 -15c-20 0 -36.667 7.33301 -50 22s-20 33 -20 55c0 62.667 46.333 125.334 139 188.001zM280.999 172.999
c-25.333 0 -48.999 2.99805 -70.999 8.99805c-26.667 -7.33301 -50.334 -17.666 -71.001 -30.999s-31 -27.333 -31 -42c0 -32 36 -48 108 -48h114c76 0 133.833 -9.5 173.5 -28.5s59.5 -53.833 59.5 -104.5c0 -40.667 -15.5 -75.334 -46.5 -104.001
s-68 -48.834 -111 -60.501s-88.833 -17.5 -137.5 -17.5c-70.667 0 -127.334 11.667 -170.001 35s-64 53.333 -64 90c0 26.667 12.167 49.5 36.5 68.5s57.5 33.167 99.5 42.5c-39.333 2 -70.333 11 -93 27s-34 38 -34 66c0 24.667 14.167 47.334 42.5 68.001
s64.166 35.667 107.499 45c-36.667 12.667 -65.667 32.834 -87 60.501s-32 59.5 -32 95.5c0 50 19.333 91.167 58 123.5s88.334 48.5 149.001 48.5c50.667 0 94.334 -12 131.001 -36l30 59h167l-31 -63h-160c46.667 -32.667 70 -76.667 70 -132
c0 -49.333 -19.5 -90.166 -58.5 -122.499s-88.5 -48.5 -148.5 -48.5zM281 196.997c36.667 0 65 13.333 85 40s30 62.334 30 107.001c0 45.333 -10 81.333 -30 108s-48.333 40 -85 40s-65.167 -13.333 -85.5 -40s-30.5 -62.667 -30.5 -108
c0 -44.667 10.167 -80.334 30.5 -107.001s48.833 -40 85.5 -40zM115 -116.003c0 -34.667 13.832 -61.666 41.499 -80.999s66.834 -29 117.501 -29c58 0 106 9.66699 144 29s57 48.666 57 87.999c0 32 -12.667 55 -38 69s-64 21 -116 21h-131h-4
c-47.333 -18 -71 -50.333 -71 -97z" />
    <glyph glyph-name="Hcircumflex" unicode="&#x124;" horiz-adv-x="858" 
d="M267 837l157 146h10l157 -146h-28l-134 74l-134 -74h-28zM110 0v758h97v-339h444v339h97v-758h-97v372h-444v-372h-97z" />
    <glyph glyph-name="hcircumflex" unicode="&#x125;" horiz-adv-x="604" 
d="M-30 859l157 146h10l157 -146h-28l-134 74l-134 -74h-28zM177 0l-90 -0.000976562v780h90v-420c8.66699 52.667 29 91.834 61 117.501s70.667 38.5 116 38.5c112.667 0 169 -66.667 169 -200v-316h-90v299c0 108 -41 162 -123 162c-38 0 -69.667 -13.333 -95 -40
s-38 -67.667 -38 -123v-298z" />
    <glyph glyph-name="Hbar" unicode="&#x126;" horiz-adv-x="858" 
d="M110 0v555h-85v47h85v156h97v-156h444v156h97v-156h86v-47h-86v-555h-97v372h-444v-372h-97zM207 419h444v136h-444v-136z" />
    <glyph glyph-name="hbar" unicode="&#x127;" horiz-adv-x="604" 
d="M177 0l-90 -0.000976562v624h-90v35h90v121h90v-121h130v-35h-130v-264c8.66699 52.667 29 91.834 61 117.501s70.667 38.5 116 38.5c112.667 0 169 -66.667 169 -200v-316h-90v299c0 108 -41 162 -123 162c-38 0 -69.667 -13.333 -95 -40s-38 -67.667 -38 -123v-298z
" />
    <glyph glyph-name="Itilde" unicode="&#x128;" horiz-adv-x="317" 
d="M236 833c-24.667 0 -53.501 11.333 -86.501 34s-58.167 34 -75.5 34c-35.333 0 -54 -20.333 -56 -61h-22c0 34 8.16699 64 24.5 90s37.833 39 64.5 39c20.667 0 47.834 -11.5 81.501 -34.5s59.5 -34.5 77.5 -34.5c34 0 52 20 54 60h22c0 -40.667 -8.5 -72 -25.5 -94
s-36.5 -33 -58.5 -33zM109.999 0v758h97v-758h-97z" />
    <glyph glyph-name="itilde" unicode="&#x129;" horiz-adv-x="268" 
d="M212 629c-24.667 0 -53.501 11.499 -86.501 34.499s-58.167 34.5 -75.5 34.5c-35.333 0 -54 -20.667 -56 -62h-22c0 34.667 8.16699 64.834 24.5 90.501s37.833 38.5 64.5 38.5c20.667 0 47.834 -11.333 81.501 -34s59.5 -34 77.5 -34c34 0 52 19.667 54 59h22
c0 -40 -8.5 -71.167 -25.5 -93.5s-36.5 -33.5 -58.5 -33.5zM88.999 -0.000976562v502h90v-502h-90z" />
    <glyph glyph-name="Imacron" unicode="&#x12a;" horiz-adv-x="317" 
d="M10 882v43h296v-43h-296zM110 0v758h97v-758h-97z" />
    <glyph glyph-name="imacron" unicode="&#x12b;" horiz-adv-x="268" 
d="M-14 668v43h296v-43h-296zM89 0v502h90v-502h-90z" />
    <glyph glyph-name="Ibreve" unicode="&#x12c;" horiz-adv-x="317" 
d="M158 830c-38.667 0 -73.5 11.833 -104.5 35.5s-49.167 63.5 -54.5 119.5h39c4.66699 -38.667 17.667 -68.334 39 -89.001s48.333 -31 81 -31s59.667 10.333 81 31s34.333 50.334 39 89.001h39c-5.33301 -56 -23.5 -95.833 -54.5 -119.5s-65.833 -35.5 -104.5 -35.5z
M110 0v758h97v-758h-97z" />
    <glyph glyph-name="ibreve" unicode="&#x12d;" horiz-adv-x="268" 
d="M134 613c-17.333 0 -34 2.33301 -50 7s-32 12.5 -48 23.5s-29.5 27.333 -40.5 49s-17.833 47.167 -20.5 76.5h39c4.66699 -38.667 17.667 -68.334 39 -89.001s48.333 -31 81 -31s59.667 10.333 81 31s34.333 50.334 39 89.001h39
c-2.66699 -29.333 -9.5 -54.833 -20.5 -76.5s-24.5 -38 -40.5 -49s-32 -18.833 -48 -23.5s-32.667 -7 -50 -7zM89 0v502h90v-502h-90z" />
    <glyph glyph-name="Iogonek" unicode="&#x12e;" horiz-adv-x="317" 
d="M110 0l0.000976562 757.999h97v-758h-15c-64 -56 -96 -102.333 -96 -139c0 -19.333 7.16699 -34.166 21.5 -44.499s32.5 -15.5 54.5 -15.5s44.333 5.33301 67 16l2 -21c-32 -19.333 -65.333 -29 -100 -29c-28.667 0 -53.334 7.16699 -74.001 21.5s-31 33.833 -31 58.5
c0 45.333 46.333 96.333 139 153h-65z" />
    <glyph glyph-name="iogonek" unicode="&#x12f;" horiz-adv-x="268" 
d="M73 717c0 16 6.16699 30.167 18.5 42.5s26.5 18.5 42.5 18.5c16.667 0 31.167 -6.16699 43.5 -18.5s18.5 -26.5 18.5 -42.5c0 -16.667 -6.16699 -31.167 -18.5 -43.5s-26.833 -18.5 -43.5 -18.5c-16 0 -30.167 6.16699 -42.5 18.5s-18.5 26.833 -18.5 43.5zM89 0
l0.000976562 502.001h90v-502h-14c-64 -56 -96 -102.333 -96 -139c0 -19.333 7.16699 -34.5 21.5 -45.5s32.5 -16.5 54.5 -16.5c19.333 0 41.666 5.33301 66.999 16l2 -19c-32 -19.333 -65.333 -29 -100 -29c-28.667 0 -53.167 7.16699 -73.5 21.5s-30.5 33.833 -30.5 58.5
c0 26 14.667 52.667 44 80s61 51.666 95 72.999h-60z" />
    <glyph glyph-name="Idotaccent" unicode="&#x130;" horiz-adv-x="317" 
d="M158 858c-16 0 -30.167 6.16699 -42.5 18.5s-18.5 26.833 -18.5 43.5c0 16 6.16699 30.167 18.5 42.5s26.5 18.5 42.5 18.5c16.667 0 31.167 -6.16699 43.5 -18.5s18.5 -26.5 18.5 -42.5c0 -16.667 -6.16699 -31.167 -18.5 -43.5s-26.833 -18.5 -43.5 -18.5zM110 0v758
h97v-758h-97z" />
    <glyph glyph-name="dotlessi" unicode="&#x131;" horiz-adv-x="268" 
d="M89 0v502h90v-502h-90z" />
    <glyph glyph-name="Jcircumflex" unicode="&#x134;" horiz-adv-x="324" 
d="M7 837l157 146h10l157 -146h-28l-134 74l-134 -74h-28zM-10 -143l-18.001 26.998l19 16c28.667 24 48.834 41.667 60.501 53s24 26.333 37 45s21.5 38.334 25.5 59.001s6 46.334 6 77.001v624h97v-615c0 -51.333 -8.16699 -90.833 -24.5 -118.5
s-46.833 -58.5 -91.5 -92.5c-18.667 -14.667 -55.667 -39.667 -111 -75z" />
    <glyph glyph-name="jcircumflex" unicode="&#x135;" horiz-adv-x="274" 
d="M-25 605l161 187h8l161 -187h-26l-139 106l-139 -106h-26zM-22 -261l-15.999 22.001l44 37.5c8 7 18.833 17.667 32.5 32s22.667 26.333 27 36s9.5 23 15.5 40s9.83301 35.167 11.5 54.5s2.5 42.333 2.5 69v472h90v-468c0 -58.667 -6.83301 -102.834 -20.5 -132.501
s-38.167 -58.5 -73.5 -86.5c-22.667 -16.667 -60.334 -42 -113.001 -76z" />
    <glyph glyph-name="Kcommaaccent" unicode="&#x136;" horiz-adv-x="775" 
d="M110 0v758h97v-371l2 2l450 369h72l-419 -344l477 -414h-138l-444 381v-381h-97zM351 -340l-10.999 19c60 44.667 90 86.334 90 125.001c0 34 -20.333 56 -61 66c-0.666992 16.667 3.66602 30 12.999 40s22 15 38 15c20 0 36.5 -7.33301 49.5 -22s19.5 -33 19.5 -55
c0 -62.667 -46 -125.334 -138 -188.001z" />
    <glyph glyph-name="kcommaaccent" unicode="&#x137;" horiz-adv-x="572" 
d="M87 0v780h90v-508l290 230h65l-259 -206l309 -296h-120l-285 267v-267h-90zM244 -340l-10.999 19c60 44.667 90 86.334 90 125.001c0 34 -20.333 56 -61 66c-0.666992 16.667 3.66602 30 12.999 40s22 15 38 15c20 0 36.5 -7.33301 49.5 -22s19.5 -33 19.5 -55
c0 -62.667 -46 -125.334 -138 -188.001z" />
    <glyph glyph-name="Lacute" unicode="&#x139;" horiz-adv-x="621" 
d="M130 843l127 129h122v-2l-221 -127h-28zM110 0v758h97v-711h397v-47h-494z" />
    <glyph glyph-name="lacute" unicode="&#x13a;" horiz-adv-x="268" 
d="M101 883l109 170h101v-7l-184 -163h-26zM89 0v780h90v-780h-90z" />
    <glyph glyph-name="Lcommaaccent" unicode="&#x13b;" horiz-adv-x="621" 
d="M110 0v758h97v-711h397v-47h-494zM294 -340l-10.999 19c60 44.667 90 86.334 90 125.001c0 34 -20.333 56 -61 66c-0.666992 16.667 3.66602 30 12.999 40s22 15 38 15c20 0 36.5 -7.33301 49.5 -22s19.5 -33 19.5 -55c0 -62.667 -46 -125.334 -138 -188.001z" />
    <glyph glyph-name="lcommaaccent" unicode="&#x13c;" horiz-adv-x="268" 
d="M89 0v780h90v-780h-90zM58 -340l-10.999 19c60 44.667 90 86.334 90 125.001c0 34 -20.333 56 -61 66c-0.666992 16.667 3.66602 30 12.999 40s22 15 38 15c20 0 36.5 -7.33301 49.5 -22s19.5 -33 19.5 -55c0 -62.667 -46 -125.334 -138 -188.001z" />
    <glyph glyph-name="Lcaron" unicode="&#x13d;" horiz-adv-x="621" 
d="M304 504l-10.999 18.999c60 45.333 90 87.333 90 126c0 34 -20.333 56 -61 66c-0.666992 16.667 3.66602 29.834 12.999 39.501s22 14.5 38 14.5c20 0 36.5 -7.16699 49.5 -21.5s19.5 -32.5 19.5 -54.5c0 -62.667 -46 -125.667 -138 -189zM110.001 -0.000976562v758h97
v-711h397v-47h-494z" />
    <glyph glyph-name="lcaron" unicode="&#x13e;" horiz-adv-x="292" 
d="M265 526l-10.999 18.999c60 45.333 90 87.333 90 126c0 34 -20.333 56 -61 66c-0.666992 16.667 3.66602 29.834 12.999 39.501s22 14.5 38 14.5c20 0 36.5 -7.16699 49.5 -21.5s19.5 -32.5 19.5 -54.5c0 -62.667 -46 -125.667 -138 -189zM89.001 -0.000976562v780h90
v-780h-90z" />
    <glyph glyph-name="Ldot" unicode="&#x13f;" horiz-adv-x="621" 
d="M110 0v758h97v-711h397v-47h-494zM476 355c-16 0 -30.167 6.16699 -42.5 18.5s-18.5 26.833 -18.5 43.5c0 16 6.16699 30.167 18.5 42.5s26.5 18.5 42.5 18.5c16.667 0 31.167 -6.16699 43.5 -18.5s18.5 -26.5 18.5 -42.5c0 -16.667 -6.16699 -31.167 -18.5 -43.5
s-26.833 -18.5 -43.5 -18.5z" />
    <glyph glyph-name="ldot" unicode="&#x140;" horiz-adv-x="366" 
d="M89 0v780h90v-780h-90zM313 353c-16 0 -30.167 6.16699 -42.5 18.5s-18.5 26.833 -18.5 43.5c0 16 6.16699 30.167 18.5 42.5s26.5 18.5 42.5 18.5c16.667 0 31.167 -6.16699 43.5 -18.5s18.5 -26.5 18.5 -42.5c0 -16.667 -6.16699 -31.167 -18.5 -43.5
s-26.833 -18.5 -43.5 -18.5z" />
    <glyph glyph-name="Lslash" unicode="&#x141;" horiz-adv-x="621" 
d="M110 0v341l-137 -83v52l137 83v365h97v-306l139 84v-51l-139 -85v-353h397v-47h-494z" />
    <glyph glyph-name="lslash" unicode="&#x142;" horiz-adv-x="308" 
d="M109 0v360l-109 -64v42l109 64v378h90v-325l109 64v-41l-109 -64v-414h-90z" />
    <glyph glyph-name="Nacute" unicode="&#x143;" horiz-adv-x="850" 
d="M405 843l127 129h122v-2l-221 -127h-28zM162 758l526 -607v607h52v-758h-52l-526 613v-613h-52v758h52z" />
    <glyph glyph-name="nacute" unicode="&#x144;" horiz-adv-x="604" 
d="M272 605l109 170h101v-7l-184 -163h-26zM177 0l-90 -0.000976562v502h90v-142c8.66699 52.667 29 91.834 61 117.501s70.667 38.5 116 38.5c112.667 0 169 -66.667 169 -200v-316h-90v299c0 108 -41 162 -123 162c-38 0 -69.667 -13.333 -95 -40s-38 -67.667 -38 -123
v-298z" />
    <glyph glyph-name="Ncommaaccent" unicode="&#x145;" horiz-adv-x="850" 
d="M162 758l526 -607v607h52v-758h-52l-526 613v-613h-52v758h52zM362 -340l-10.999 19c60 44.667 90 86.334 90 125.001c0 34 -20.333 56 -61 66c-0.666992 16.667 3.66602 30 12.999 40s22 15 38 15c20 0 36.5 -7.33301 49.5 -22s19.5 -33 19.5 -55
c0 -62.667 -46 -125.334 -138 -188.001z" />
    <glyph glyph-name="ncommaaccent" unicode="&#x146;" horiz-adv-x="604" 
d="M177 0l-90 -0.000976562v502h90v-142c8.66699 52.667 29 91.834 61 117.501s70.667 38.5 116 38.5c112.667 0 169 -66.667 169 -200v-316h-90v299c0 108 -41 162 -123 162c-38 0 -69.667 -13.333 -95 -40s-38 -67.667 -38 -123v-298zM230 -340.001l-10.999 19
c60 44.667 90 86.334 90 125.001c0 34 -20.333 56 -61 66c-0.666992 16.667 3.66602 30 12.999 40s22 15 38 15c20 0 36.5 -7.33301 49.5 -22s19.5 -33 19.5 -55c0 -62.667 -46 -125.334 -138 -188.001z" />
    <glyph glyph-name="Ncaron" unicode="&#x147;" horiz-adv-x="850" 
d="M271 983h28l134 -74l134 74h28l-157 -146h-10zM162 758l526 -607v607h52v-758h-52l-526 613v-613h-52v758h52z" />
    <glyph glyph-name="ncaron" unicode="&#x148;" horiz-adv-x="604" 
d="M140 792h26l139 -107l139 107h26l-161 -187h-8zM177 0l-90 -0.000976562v502h90v-142c8.66699 52.667 29 91.834 61 117.501s70.667 38.5 116 38.5c112.667 0 169 -66.667 169 -200v-316h-90v299c0 108 -41 162 -123 162c-38 0 -69.667 -13.333 -95 -40
s-38 -67.667 -38 -123v-298z" />
    <glyph glyph-name="Eng" unicode="&#x14a;" horiz-adv-x="850" 
d="M532 -261l-15 21.9971c26 22 43.167 36.833 51.5 44.5s19.833 20 34.5 37s24.167 32.333 28.5 46s8.5 31.834 12.5 54.501s6 49.334 6 80.001v18l-488 573v-614h-52v758h52l526 -608v608h52v-729c0 -56.667 -7 -99.667 -21 -129s-38.667 -57.666 -74 -84.999
c-24 -18 -61.667 -43.333 -113 -76z" />
    <glyph glyph-name="eng" unicode="&#x14b;" horiz-adv-x="604" 
d="M354 516c112.667 0 169.001 -66.667 169.001 -200v-288c0 -56.667 -6.83301 -99.5 -20.5 -128.5s-38.5 -57.167 -74.5 -84.5c-24 -18 -61.667 -43.333 -113 -76l-15 22l51.5 45c9 8 20.667 20.5 35 37.5s23.666 32.667 27.999 47s8.5 33.166 12.5 56.499s6 51 6 83v269
c0 108 -41 162 -123 162c-38 0 -69.667 -13.333 -95 -40s-38 -67.667 -38 -123v-298h-90v502h90v-142c8.66699 52.667 29 91.834 61 117.501s70.667 38.5 116 38.5z" />
    <glyph glyph-name="Omacron" unicode="&#x14c;" horiz-adv-x="918" 
d="M306 882v43h296v-43h-296zM459 -12c-112.667 0 -208 36.667 -286 110s-117 167.666 -117 282.999s38.833 209.666 116.5 282.999s173.167 110 286.5 110c112.667 0 208 -36.667 286 -110s117 -167.666 117 -282.999s-39 -209.666 -117 -282.999s-173.333 -110 -286 -110z
M463 30c79.333 0 146.834 28.499 202.501 85.499s83.5 138.5 83.5 244.5c0 114.667 -27.833 205.334 -83.5 272.001s-125.834 100 -210.501 100c-80 0 -147.833 -28.333 -203.5 -85s-83.5 -138 -83.5 -244c0 -115.333 28 -206.333 84 -273s126.333 -100 211 -100z" />
    <glyph glyph-name="omacron" unicode="&#x14d;" horiz-adv-x="634" 
d="M167 668v43h296v-43h-296zM317 -12c-75.333 0 -138.666 24.667 -189.999 74s-77 112.666 -77 189.999c0 78 25.667 141.5 77 190.5s114.666 73.5 189.999 73.5s138.666 -24.5 189.999 -73.5s77 -112.5 77 -190.5c0 -77.333 -25.667 -140.666 -77 -189.999
s-114.666 -74 -189.999 -74zM323 22c44.667 0 82.834 17 114.501 51s47.5 84 47.5 150c0 68.667 -16.333 129.167 -49 181.5s-74.334 78.5 -125.001 78.5c-44.667 0 -82.834 -17.167 -114.501 -51.5s-47.5 -84.5 -47.5 -150.5c0 -68.667 16.333 -129 49 -181
s74.334 -78 125.001 -78z" />
    <glyph glyph-name="Obreve" unicode="&#x14e;" horiz-adv-x="918" 
d="M454 830c-38.667 0 -73.5 11.833 -104.5 35.5s-49.167 63.5 -54.5 119.5h39c4.66699 -38.667 17.667 -68.334 39 -89.001s48.333 -31 81 -31s59.667 10.333 81 31s34.333 50.334 39 89.001h39c-5.33301 -56 -23.5 -95.833 -54.5 -119.5s-65.833 -35.5 -104.5 -35.5z
M459 -12c-112.667 0 -208 36.667 -286 110s-117 167.666 -117 282.999s38.833 209.666 116.5 282.999s173.167 110 286.5 110c112.667 0 208 -36.667 286 -110s117 -167.666 117 -282.999s-39 -209.666 -117 -282.999s-173.333 -110 -286 -110zM463 30
c79.333 0 146.834 28.499 202.501 85.499s83.5 138.5 83.5 244.5c0 114.667 -27.833 205.334 -83.5 272.001s-125.834 100 -210.501 100c-80 0 -147.833 -28.333 -203.5 -85s-83.5 -138 -83.5 -244c0 -115.333 28 -206.333 84 -273s126.333 -100 211 -100z" />
    <glyph glyph-name="obreve" unicode="&#x14f;" horiz-adv-x="634" 
d="M315 613c-17.333 0 -34 2.33301 -50 7s-32 12.5 -48 23.5s-29.5 27.333 -40.5 49s-17.833 47.167 -20.5 76.5h39c4.66699 -38.667 17.667 -68.334 39 -89.001s48.333 -31 81 -31s59.667 10.333 81 31s34.333 50.334 39 89.001h39
c-2.66699 -29.333 -9.5 -54.833 -20.5 -76.5s-24.5 -38 -40.5 -49s-32 -18.833 -48 -23.5s-32.667 -7 -50 -7zM317 -12c-75.333 0 -138.666 24.667 -189.999 74s-77 112.666 -77 189.999c0 78 25.667 141.5 77 190.5s114.666 73.5 189.999 73.5s138.666 -24.5 189.999 -73.5
s77 -112.5 77 -190.5c0 -77.333 -25.667 -140.666 -77 -189.999s-114.666 -74 -189.999 -74zM323 22c44.667 0 82.834 17 114.501 51s47.5 84 47.5 150c0 68.667 -16.333 129.167 -49 181.5s-74.334 78.5 -125.001 78.5c-44.667 0 -82.834 -17.167 -114.501 -51.5
s-47.5 -84.5 -47.5 -150.5c0 -68.667 16.333 -129 49 -181s74.334 -78 125.001 -78z" />
    <glyph glyph-name="Ohungarumlaut" unicode="&#x150;" horiz-adv-x="918" 
d="M345 843l127 129h122v-2l-221 -127h-28zM550 843l128 129h122v-2l-221 -127h-29zM459 -12c-112.667 0 -208 36.667 -286 110s-117 167.666 -117 282.999s38.833 209.666 116.5 282.999s173.167 110 286.5 110c112.667 0 208 -36.667 286 -110s117 -167.666 117 -282.999
s-39 -209.666 -117 -282.999s-173.333 -110 -286 -110zM463 30c79.333 0 146.834 28.499 202.501 85.499s83.5 138.5 83.5 244.5c0 114.667 -27.833 205.334 -83.5 272.001s-125.834 100 -210.501 100c-80 0 -147.833 -28.333 -203.5 -85s-83.5 -138 -83.5 -244
c0 -115.333 28 -206.333 84 -273s126.333 -100 211 -100z" />
    <glyph glyph-name="ohungarumlaut" unicode="&#x151;" horiz-adv-x="634" 
d="M219 605l108 170h101v-7l-184 -163h-25zM398 605l109 170h101v-7l-184 -163h-26zM317 -12c-75.333 0 -138.666 24.667 -189.999 74s-77 112.666 -77 189.999c0 78 25.667 141.5 77 190.5s114.666 73.5 189.999 73.5s138.666 -24.5 189.999 -73.5s77 -112.5 77 -190.5
c0 -77.333 -25.667 -140.666 -77 -189.999s-114.666 -74 -189.999 -74zM323 22c44.667 0 82.834 17 114.501 51s47.5 84 47.5 150c0 68.667 -16.333 129.167 -49 181.5s-74.334 78.5 -125.001 78.5c-44.667 0 -82.834 -17.167 -114.501 -51.5s-47.5 -84.5 -47.5 -150.5
c0 -68.667 16.333 -129 49 -181s74.334 -78 125.001 -78z" />
    <glyph glyph-name="OE" unicode="&#x152;" horiz-adv-x="1307" 
d="M459 -12c-112.667 0 -208 36.6689 -286 110.002s-117 167.666 -117 282.999s38.833 209.666 116.5 282.999s173.167 110 286.5 110c66.667 0 126.834 -14 180.501 -42s96.834 -67.333 129.501 -118v144h481v-48h-403v-292h345v-47h-345v-324h403v-47h-481v149
c-32.667 -51.333 -75.834 -91 -129.501 -119s-113.834 -42 -180.501 -42zM463 30.002c80 0 148.501 28.667 205.501 86s85.5 138.666 85.5 243.999c0 114.667 -28.667 205.334 -86 272.001s-128.333 100 -213 100c-80.667 0 -149.5 -28.5 -206.5 -85.5
s-85.5 -138.167 -85.5 -243.5c0 -114.667 28.667 -205.5 86 -272.5s128.666 -100.5 213.999 -100.5z" />
    <glyph glyph-name="oe" unicode="&#x153;" horiz-adv-x="1017" 
d="M975 184c-28 -130.667 -108.665 -196 -241.998 -196c-48 0 -90.667 10.333 -128 31s-67 49 -89 85c-46.667 -77.333 -114.334 -116 -203.001 -116c-75.333 0 -138 24.5 -188 73.5s-75 112.5 -75 190.5s25 141.5 75 190.5s112.667 73.5 188 73.5
c44.667 0 84.5 -10.5 119.5 -31.5s63.167 -49.833 84.5 -86.5c23.333 37.333 53.833 66.333 91.5 87s77.167 31 118.5 31c64 0 118 -18.5 162 -55.5s71 -89.833 81 -158.5h-404c-2.66699 -70.667 13.5 -130.167 48.5 -178.5s85.833 -72.5 152.5 -72.5
c95.333 0 155.666 44.333 180.999 133h27zM867.002 336c-4 50.667 -18.832 88.5 -44.499 113.5s-58.167 37.5 -97.5 37.5c-38.667 0 -72.334 -13.167 -101.001 -39.5s-47 -63.5 -55 -111.5h298zM307.003 483c-44 0 -81.333 -17.167 -112 -51.5s-46 -84.5 -46 -150.5
c0 -68.667 15.667 -129 47 -181s72.333 -78 123 -78c44 0 81.333 17 112 51s46 84 46 150c0 69.333 -15.667 130 -47 182s-72.333 78 -123 78z" />
    <glyph glyph-name="Racute" unicode="&#x154;" horiz-adv-x="739" 
d="M348 843l127 129h122v-2l-221 -127h-28zM207 0h-97v758h208c47.333 0 89 -3 125 -9s68.5 -16 97.5 -30s51 -33.5 66 -58.5s22.5 -55.5 22.5 -91.5c0 -56.667 -19.5 -100.667 -58.5 -132s-94.167 -51 -165.5 -59l347 -378h-125l-332 364h-88v-364zM207 408l99 0.00195312
c69.333 0 122.5 11.667 159.5 35s55.5 62.666 55.5 117.999s-18.5 94.666 -55.5 117.999s-90.5 35 -160.5 35h-98v-306z" />
    <glyph glyph-name="racute" unicode="&#x155;" horiz-adv-x="392" 
d="M211 605l109 170h101v-7l-184 -163h-26zM87 0l-0.000976562 502h90v-152c22.667 107.333 84.334 161 185.001 161h8v-85h-33c-106.667 0 -160 -40.667 -160 -122v-304h-90z" />
    <glyph glyph-name="Rcommaaccent" unicode="&#x156;" horiz-adv-x="739" 
d="M207 0h-97v758h208c47.333 0 89 -3 125 -9s68.5 -16 97.5 -30s51 -33.5 66 -58.5s22.5 -55.5 22.5 -91.5c0 -56.667 -19.5 -100.667 -58.5 -132s-94.167 -51 -165.5 -59l347 -378h-125l-332 364h-88v-364zM207 408l99 0.00195312c69.333 0 122.5 11.667 159.5 35
s55.5 62.666 55.5 117.999s-18.5 94.666 -55.5 117.999s-90.5 35 -160.5 35h-98v-306zM364 -339.998l-10.999 19c60 44.667 90 86.334 90 125.001c0 34 -20.333 56 -61 66c-0.666992 16.667 3.66602 30 12.999 40s22 15 38 15c20 0 36.5 -7.33301 49.5 -22
s19.5 -33 19.5 -55c0 -62.667 -46 -125.334 -138 -188.001z" />
    <glyph glyph-name="rcommaaccent" unicode="&#x157;" horiz-adv-x="392" 
d="M87 0l-0.000976562 502h90v-152c22.667 107.333 84.334 161 185.001 161h8v-85h-33c-106.667 0 -160 -40.667 -160 -122v-304h-90zM55.999 -340l-10.999 19c60 44.667 90 86.334 90 125.001c0 34 -20.333 56 -61 66c-0.666992 16.667 3.66602 30 12.999 40s22 15 38 15
c20 0 36.5 -7.33301 49.5 -22s19.5 -33 19.5 -55c0 -62.667 -46 -125.334 -138 -188.001z" />
    <glyph glyph-name="Rcaron" unicode="&#x158;" horiz-adv-x="739" 
d="M214 983h28l134 -74l134 74h28l-157 -146h-10zM207 0h-97v758h208c47.333 0 89 -3 125 -9s68.5 -16 97.5 -30s51 -33.5 66 -58.5s22.5 -55.5 22.5 -91.5c0 -56.667 -19.5 -100.667 -58.5 -132s-94.167 -51 -165.5 -59l347 -378h-125l-332 364h-88v-364zM207 408
l99 0.00195312c69.333 0 122.5 11.667 159.5 35s55.5 62.666 55.5 117.999s-18.5 94.666 -55.5 117.999s-90.5 35 -160.5 35h-98v-306z" />
    <glyph glyph-name="rcaron" unicode="&#x159;" horiz-adv-x="392" 
d="M79 792h26l139 -107l139 107h26l-161 -187h-8zM87 0l-0.000976562 502h90v-152c22.667 107.333 84.334 161 185.001 161h8v-85h-33c-106.667 0 -160 -40.667 -160 -122v-304h-90z" />
    <glyph glyph-name="Sacute" unicode="&#x15a;" horiz-adv-x="644" 
d="M297 843l127 129h122v-2l-221 -127h-28zM316 -12c-88.667 0 -161.999 13.668 -219.999 41.001l-20 209h30l55 -162c10.667 -30.667 62 -46 154 -46c54 0 97.333 12.5 130 37.5s49 59.5 49 103.5s-14 78.167 -42 102.5s-72.667 46.5 -134 66.5l-54 18
c-126.667 42.667 -190 115.667 -190 219c0 60 26.167 107.833 78.5 143.5s115.166 53.5 188.499 53.5c76 0 135.667 -11 179 -33l27 -195h-30l-57 143c-11.333 28.667 -53 43 -125 43c-48 0 -88.167 -10.833 -120.5 -32.5s-48.5 -51.834 -48.5 -90.501c0 -36 10 -66 30 -90
s52 -43.333 96 -58l54 -18c79.333 -26 139.5 -56.667 180.5 -92s61.5 -84 61.5 -146c0 -63.333 -26.333 -115.333 -79 -156s-117 -61 -193 -61z" />
    <glyph glyph-name="sacute" unicode="&#x15b;" horiz-adv-x="489" 
d="M208 605l109 170h101v-7l-184 -163h-26zM228 -12c-56.667 0 -107.334 10.667 -152.001 32l-18 167h30l42 -124c5.33301 -16 17.333 -26.667 36 -32s43.667 -8 75 -8c30.667 0 57.5 8.16699 80.5 24.5s34.5 38.833 34.5 67.5c0 26.667 -8.83301 47 -26.5 61
s-43.5 24.667 -77.5 32l-48 11c-42.667 10 -76 27.833 -100 53.5s-36 58.167 -36 97.5c0 44 18.333 79.333 55 106s82.334 40 137.001 40c50.667 0 94.334 -11 131.001 -33l25 -148h-30l-46 104c-12.667 28.667 -44.334 43 -95.001 43c-29.333 0 -54 -7.66699 -74 -23
s-30 -35 -30 -59c0 -47.333 30.667 -78 92 -92l48 -11c103.333 -23.333 155 -74 155 -152c0 -47.333 -19.667 -85.333 -59 -114s-89 -43 -149 -43z" />
    <glyph glyph-name="Scircumflex" unicode="&#x15c;" horiz-adv-x="644" 
d="M163 837l157 146h10l157 -146h-28l-134 74l-134 -74h-28zM316 -12c-88.667 0 -161.999 13.668 -219.999 41.001l-20 209h30l55 -162c10.667 -30.667 62 -46 154 -46c54 0 97.333 12.5 130 37.5s49 59.5 49 103.5s-14 78.167 -42 102.5s-72.667 46.5 -134 66.5l-54 18
c-126.667 42.667 -190 115.667 -190 219c0 60 26.167 107.833 78.5 143.5s115.166 53.5 188.499 53.5c76 0 135.667 -11 179 -33l27 -195h-30l-57 143c-11.333 28.667 -53 43 -125 43c-48 0 -88.167 -10.833 -120.5 -32.5s-48.5 -51.834 -48.5 -90.501c0 -36 10 -66 30 -90
s52 -43.333 96 -58l54 -18c79.333 -26 139.5 -56.667 180.5 -92s61.5 -84 61.5 -146c0 -63.333 -26.333 -115.333 -79 -156s-117 -61 -193 -61z" />
    <glyph glyph-name="scircumflex" unicode="&#x15d;" horiz-adv-x="489" 
d="M76 605l161 187h8l161 -187h-26l-139 106l-139 -106h-26zM228 -12c-56.667 0 -107.334 10.667 -152.001 32l-18 167h30l42 -124c5.33301 -16 17.333 -26.667 36 -32s43.667 -8 75 -8c30.667 0 57.5 8.16699 80.5 24.5s34.5 38.833 34.5 67.5
c0 26.667 -8.83301 47 -26.5 61s-43.5 24.667 -77.5 32l-48 11c-42.667 10 -76 27.833 -100 53.5s-36 58.167 -36 97.5c0 44 18.333 79.333 55 106s82.334 40 137.001 40c50.667 0 94.334 -11 131.001 -33l25 -148h-30l-46 104c-12.667 28.667 -44.334 43 -95.001 43
c-29.333 0 -54 -7.66699 -74 -23s-30 -35 -30 -59c0 -47.333 30.667 -78 92 -92l48 -11c103.333 -23.333 155 -74 155 -152c0 -47.333 -19.667 -85.333 -59 -114s-89 -43 -149 -43z" />
    <glyph glyph-name="Scedilla" unicode="&#x15e;" horiz-adv-x="644" 
d="M316 -12c-88.667 0 -162 13.667 -220 41l-20 209h30l55 -162c10.667 -30.667 62 -46 154 -46c54 0 97.333 12.5 130 37.5s49 59.5 49 103.5s-14 78.167 -42 102.5s-72.667 46.5 -134 66.5l-54 18c-126.667 42.667 -190 115.667 -190 219c0 60 26.167 107.833 78.5 143.5
s115.166 53.5 188.499 53.5c76 0 135.667 -11 179 -33l27 -195h-30l-57 143c-11.333 28.667 -53 43 -125 43c-48 0 -88.167 -10.833 -120.5 -32.5s-48.5 -51.834 -48.5 -90.501c0 -36 10 -66 30 -90s52 -43.333 96 -58l54 -18c79.333 -26 139.5 -56.667 180.5 -92
s61.5 -84 61.5 -146c0 -56 -20.833 -103.333 -62.5 -142s-94.167 -62.334 -157.5 -71.001l-75 -77c32.667 -16 56.167 -30.667 70.5 -44s21.5 -30 21.5 -50c0 -22 -9.66699 -41 -29 -57s-44.666 -24 -75.999 -24c-24 0 -45 5.33301 -63 16s-27 24.334 -27 41.001
c0 8 3.5 14.333 10.5 19s15.833 6 26.5 4c0.666992 -18 7.5 -32.167 20.5 -42.5s28.167 -15.5 45.5 -15.5c16 0 29.333 3.83301 40 11.5s16 17.5 16 29.5c0 13.333 -9.66699 26.333 -29 39s-48 27.334 -86 44.001l99 102h-17z" />
    <glyph glyph-name="scedilla" unicode="&#x15f;" horiz-adv-x="489" 
d="M228 -12c-56.667 0 -107.334 10.665 -152.001 31.998l-18 167h30l42 -124c5.33301 -16 17.333 -26.667 36 -32s43.667 -8 75 -8c30.667 0 57.5 8.16699 80.5 24.5s34.5 38.833 34.5 67.5c0 26.667 -8.83301 47 -26.5 61s-43.5 24.667 -77.5 32l-48 11
c-42.667 10 -76 27.833 -100 53.5s-36 58.167 -36 97.5c0 44 18.333 79.333 55 106s82.334 40 137.001 40c50.667 0 94.334 -11 131.001 -33l25 -148h-30l-46 104c-12.667 28.667 -44.334 43 -95.001 43c-29.333 0 -54 -7.66699 -74 -23s-30 -35 -30 -59
c0 -47.333 30.667 -78 92 -92l48 -11c103.333 -23.333 155 -74 155 -152c0 -39.333 -14 -72.5 -42 -99.5s-64.667 -44.5 -110 -52.5l-73 -75c32.667 -16.667 56.167 -31.667 70.5 -45s21.5 -29.666 21.5 -48.999c0 -22 -9.66699 -41 -29 -57s-44.666 -24 -75.999 -24
c-24 0 -45 5.33301 -63 16s-27 24 -27 40c0 8 3.5 14.5 10.5 19.5s15.833 6.5 26.5 4.5c0.666992 -18 7.5 -32.167 20.5 -42.5s28.167 -15.5 45.5 -15.5c16 0 29.333 3.83301 40 11.5s16 17.5 16 29.5c0 13.333 -9.83301 26.333 -29.5 39s-48.5 27.334 -86.5 44.001l97 100
c-4.66699 -0.666992 -11.334 -1 -20.001 -1z" />
    <glyph glyph-name="Scaron" unicode="&#x160;" horiz-adv-x="644" 
d="M163 983h28l134 -74l134 74h28l-157 -146h-10zM316 -12c-88.667 0 -161.999 13.668 -219.999 41.001l-20 209h30l55 -162c10.667 -30.667 62 -46 154 -46c54 0 97.333 12.5 130 37.5s49 59.5 49 103.5s-14 78.167 -42 102.5s-72.667 46.5 -134 66.5l-54 18
c-126.667 42.667 -190 115.667 -190 219c0 60 26.167 107.833 78.5 143.5s115.166 53.5 188.499 53.5c76 0 135.667 -11 179 -33l27 -195h-30l-57 143c-11.333 28.667 -53 43 -125 43c-48 0 -88.167 -10.833 -120.5 -32.5s-48.5 -51.834 -48.5 -90.501c0 -36 10 -66 30 -90
s52 -43.333 96 -58l54 -18c79.333 -26 139.5 -56.667 180.5 -92s61.5 -84 61.5 -146c0 -63.333 -26.333 -115.333 -79 -156s-117 -61 -193 -61z" />
    <glyph glyph-name="scaron" unicode="&#x161;" horiz-adv-x="489" 
d="M76 792h26l139 -107l139 107h26l-161 -187h-8zM228 -12c-56.667 0 -107.334 10.667 -152.001 32l-18 167h30l42 -124c5.33301 -16 17.333 -26.667 36 -32s43.667 -8 75 -8c30.667 0 57.5 8.16699 80.5 24.5s34.5 38.833 34.5 67.5c0 26.667 -8.83301 47 -26.5 61
s-43.5 24.667 -77.5 32l-48 11c-42.667 10 -76 27.833 -100 53.5s-36 58.167 -36 97.5c0 44 18.333 79.333 55 106s82.334 40 137.001 40c50.667 0 94.334 -11 131.001 -33l25 -148h-30l-46 104c-12.667 28.667 -44.334 43 -95.001 43c-29.333 0 -54 -7.66699 -74 -23
s-30 -35 -30 -59c0 -47.333 30.667 -78 92 -92l48 -11c103.333 -23.333 155 -74 155 -152c0 -47.333 -19.667 -85.333 -59 -114s-89 -43 -149 -43z" />
    <glyph glyph-name="uni0162" unicode="&#x162;" horiz-adv-x="698" 
d="M300 0v711h-289v47h676v-47h-289v-711h-98zM272 -340l-10.999 19c60 44.667 90 86.334 90 125.001c0 34 -20.333 56 -61 66c-0.666992 16.667 3.66602 30 12.999 40s22 15 38 15c20 0 36.5 -7.33301 49.5 -22s19.5 -33 19.5 -55c0 -62.667 -46 -125.334 -138 -188.001z
" />
    <glyph glyph-name="uni0163" unicode="&#x163;" horiz-adv-x="412" 
d="M242 -12c-40 0 -69.333 8.66797 -88 26.001s-28 48.666 -28 93.999v345h-111v49h111v116l90 41v-157h188v-49h-188v-346c0 -30 7 -50.333 21 -61s36 -16 66 -16c34 0 63 3 87 9v-32c-50.667 -12.667 -100 -19 -148 -19zM140 -339.999l-10.999 19
c60 44.667 90 86.334 90 125.001c0 34 -20.333 56 -61 66c-0.666992 16.667 3.66602 30 12.999 40s22 15 38 15c20 0 36.5 -7.33301 49.5 -22s19.5 -33 19.5 -55c0 -62.667 -46 -125.334 -138 -188.001z" />
    <glyph glyph-name="Tcaron" unicode="&#x164;" horiz-adv-x="698" 
d="M187 983h28l134 -74l134 74h28l-157 -146h-10zM300 0v711h-289v47h676v-47h-289v-711h-98z" />
    <glyph glyph-name="tcaron" unicode="&#x165;" horiz-adv-x="412" 
d="M305 552l-10.999 18.999c60 45.333 90 87.333 90 126c0 34 -20.333 56 -61 66c-0.666992 16.667 3.66602 29.834 12.999 39.501s22 14.5 38 14.5c20 0 36.5 -7.16699 49.5 -21.5s19.5 -32.5 19.5 -54.5c0 -62.667 -46 -125.667 -138 -189zM242.001 -12.001
c-40 0 -69.333 8.66797 -88 26.001s-28 48.666 -28 93.999v345h-111v49h111v116l90 41v-157h188v-49h-188v-346c0 -30 7 -50.333 21 -61s36 -16 66 -16c34 0 63 3 87 9v-32c-50.667 -12.667 -100 -19 -148 -19z" />
    <glyph glyph-name="Tbar" unicode="&#x166;" horiz-adv-x="698" 
d="M300 0v372h-192v47h192v292h-289v47h676v-47h-289v-292h192v-47h-192v-372h-98z" />
    <glyph glyph-name="tbar" unicode="&#x167;" horiz-adv-x="452" 
d="M262 -12c-40 0 -69.333 8.66797 -88 26.001s-28 48.666 -28 93.999v223h-111v35h111v87h-111v49h111v116l90 41v-157h188v-49h-188v-87h188v-35h-188v-224c0 -30 7 -50.333 21 -61s36 -16 66 -16c34 0 63 3 87 9v-32c-50.667 -12.667 -100 -19 -148 -19z" />
    <glyph glyph-name="Utilde" unicode="&#x168;" horiz-adv-x="830" 
d="M506 833c-24.667 0 -53.501 11.333 -86.501 34s-58.167 34 -75.5 34c-35.333 0 -54 -20.333 -56 -61h-22c0 34 8.16699 64 24.5 90s37.833 39 64.5 39c20.667 0 47.834 -11.5 81.501 -34.5s59.5 -34.5 77.5 -34.5c34 0 52 20 54 60h22c0 -40.667 -8.5 -72 -25.5 -94
s-36.5 -33 -58.5 -33zM410.999 -12c-206.667 0 -309.999 99.666 -309.999 298.999v471h97v-465c0 -88 19.167 -152.667 57.5 -194s98.166 -62 179.499 -62c85.333 0 147 22.833 185 68.5s57 111.834 57 198.501v454h52v-463c0 -204.667 -106 -307 -318 -307z" />
    <glyph glyph-name="utilde" unicode="&#x169;" horiz-adv-x="598" 
d="M374 629c-24.667 0 -53.501 11.499 -86.501 34.499s-58.167 34.5 -75.5 34.5c-35.333 0 -54 -20.667 -56 -62h-22c0 34.667 8.16699 64.834 24.5 90.501s37.833 38.5 64.5 38.5c20.667 0 47.834 -11.333 81.501 -34s59.5 -34 77.5 -34c34 0 52 19.667 54 59h22
c0 -40 -8.5 -71.167 -25.5 -93.5s-36.5 -33.5 -58.5 -33.5zM420.999 501.999h90v-502h-90v145c-8.66699 -53.333 -28.667 -92.833 -60 -118.5s-69.333 -38.5 -114 -38.5c-110.667 0 -166 67 -166 201v313h89v-297c0 -108 40.333 -162 121 -162c36.667 0 67.5 13.5 92.5 40.5
s37.5 67.833 37.5 122.5v296z" />
    <glyph glyph-name="Umacron" unicode="&#x16a;" horiz-adv-x="830" 
d="M280 882v43h296v-43h-296zM411 -12c-206.667 0 -309.999 99.666 -309.999 298.999v471h97v-465c0 -88 19.167 -152.667 57.5 -194s98.166 -62 179.499 -62c85.333 0 147 22.833 185 68.5s57 111.834 57 198.501v454h52v-463c0 -204.667 -106 -307 -318 -307z" />
    <glyph glyph-name="umacron" unicode="&#x16b;" horiz-adv-x="598" 
d="M148 668v43h296v-43h-296zM421 502h90v-502h-90v145c-8.66699 -53.333 -28.667 -92.833 -60 -118.5s-69.333 -38.5 -114 -38.5c-110.667 0 -166 67 -166 201v313h89v-297c0 -108 40.333 -162 121 -162c36.667 0 67.5 13.5 92.5 40.5s37.5 67.833 37.5 122.5v296z" />
    <glyph glyph-name="Ubreve" unicode="&#x16c;" horiz-adv-x="830" 
d="M428 830c-38.667 0 -73.5 11.833 -104.5 35.5s-49.167 63.5 -54.5 119.5h39c4.66699 -38.667 17.667 -68.334 39 -89.001s48.333 -31 81 -31s59.667 10.333 81 31s34.333 50.334 39 89.001h39c-5.33301 -56 -23.5 -95.833 -54.5 -119.5s-65.833 -35.5 -104.5 -35.5z
M411 -12c-206.667 0 -309.999 99.666 -309.999 298.999v471h97v-465c0 -88 19.167 -152.667 57.5 -194s98.166 -62 179.499 -62c85.333 0 147 22.833 185 68.5s57 111.834 57 198.501v454h52v-463c0 -204.667 -106 -307 -318 -307z" />
    <glyph glyph-name="ubreve" unicode="&#x16d;" horiz-adv-x="598" 
d="M296 613c-17.333 0 -34 2.33301 -50 7s-32 12.5 -48 23.5s-29.5 27.333 -40.5 49s-17.833 47.167 -20.5 76.5h39c4.66699 -38.667 17.667 -68.334 39 -89.001s48.333 -31 81 -31s59.667 10.333 81 31s34.333 50.334 39 89.001h39
c-2.66699 -29.333 -9.5 -54.833 -20.5 -76.5s-24.5 -38 -40.5 -49s-32 -18.833 -48 -23.5s-32.667 -7 -50 -7zM421 502h90v-502h-90v145c-8.66699 -53.333 -28.667 -92.833 -60 -118.5s-69.333 -38.5 -114 -38.5c-110.667 0 -166 67 -166 201v313h89v-297
c0 -108 40.333 -162 121 -162c36.667 0 67.5 13.5 92.5 40.5s37.5 67.833 37.5 122.5v296z" />
    <glyph glyph-name="Uring" unicode="&#x16e;" horiz-adv-x="830" 
d="M428 835c-31.333 0 -58.333 10.8291 -81 32.4961s-34 47.834 -34 78.501s11.333 56.834 34 78.501s49.667 32.5 81 32.5c32.667 0 60.167 -10.667 82.5 -32s33.5 -47.666 33.5 -78.999s-11.167 -57.666 -33.5 -78.999s-49.833 -32 -82.5 -32zM428 869.996
c22.667 0 41 7 55 21s21 32.333 21 55c0 22 -7 40 -21 54s-32.333 21 -55 21c-22 0 -40.167 -7 -54.5 -21s-21.5 -32 -21.5 -54c0 -22.667 7.16699 -41 21.5 -55s32.5 -21 54.5 -21zM411 -12.0039c-206.667 0 -309.999 99.666 -309.999 298.999v471h97v-465
c0 -88 19.167 -152.667 57.5 -194s98.166 -62 179.499 -62c85.333 0 147 22.833 185 68.5s57 111.834 57 198.501v454h52v-463c0 -204.667 -106 -307 -318 -307z" />
    <glyph glyph-name="uring" unicode="&#x16f;" horiz-adv-x="598" 
d="M296 585c-32 0 -59.167 10.667 -81.5 32s-33.5 47.666 -33.5 78.999c0 30.667 11.333 56.834 34 78.501s49.667 32.5 81 32.5c32.667 0 60.167 -10.833 82.5 -32.5s33.5 -47.834 33.5 -78.501c0 -31.333 -11.167 -57.666 -33.5 -78.999s-49.833 -32 -82.5 -32zM296 620
c22.667 0 41 7 55 21s21 32.333 21 55c0 22 -7 40 -21 54s-32.333 21 -55 21c-22 0 -40.167 -7 -54.5 -21s-21.5 -32 -21.5 -54c0 -22.667 7.16699 -41 21.5 -55s32.5 -21 54.5 -21zM421 502h90v-502h-90v145c-8.66699 -53.333 -28.667 -92.833 -60 -118.5
s-69.333 -38.5 -114 -38.5c-110.667 0 -166 67 -166 201v313h89v-297c0 -108 40.333 -162 121 -162c36.667 0 67.5 13.5 92.5 40.5s37.5 67.833 37.5 122.5v296z" />
    <glyph glyph-name="Uhungarumlaut" unicode="&#x170;" horiz-adv-x="830" 
d="M319 843l127 129h122v-2l-221 -127h-28zM524 843l128 129h122v-2l-221 -127h-29zM411 -12c-206.667 0 -309.999 99.666 -309.999 298.999v471h97v-465c0 -88 19.167 -152.667 57.5 -194s98.166 -62 179.499 -62c85.333 0 147 22.833 185 68.5s57 111.834 57 198.501v454
h52v-463c0 -204.667 -106 -307 -318 -307z" />
    <glyph glyph-name="uhungarumlaut" unicode="&#x171;" horiz-adv-x="598" 
d="M200 605l108 170h101v-7l-184 -163h-25zM379 605l109 170h101v-7l-184 -163h-26zM421 502h90v-502h-90v145c-8.66699 -53.333 -28.667 -92.833 -60 -118.5s-69.333 -38.5 -114 -38.5c-110.667 0 -166 67 -166 201v313h89v-297c0 -108 40.333 -162 121 -162
c36.667 0 67.5 13.5 92.5 40.5s37.5 67.833 37.5 122.5v296z" />
    <glyph glyph-name="Uogonek" unicode="&#x172;" horiz-adv-x="830" 
d="M411 -12c-206.667 0 -309.998 99.6641 -309.998 298.997v471h97v-465c0 -88 19.167 -152.667 57.5 -194s98.166 -62 179.499 -62c85.333 0 147 22.833 185 68.5s57 111.834 57 198.501v454h52v-463c0 -184.667 -86 -286 -258 -304
c-54.667 -49.333 -82 -92.666 -82 -129.999c0 -19.333 7.16699 -34.166 21.5 -44.499s32.5 -15.5 54.5 -15.5s44.333 5.33301 67 16l2 -21c-32 -19.333 -65.333 -29 -100 -29c-28.667 0 -53.334 7.16699 -74.001 21.5s-31 33.833 -31 58.5c0 24 12.5 48.667 37.5 74
s53.167 48 84.5 68c-8.66699 -0.666992 -22 -1 -40 -1z" />
    <glyph glyph-name="uogonek" unicode="&#x173;" horiz-adv-x="598" 
d="M442 -233c-28.667 0 -53.166 7.16797 -73.499 21.501s-30.5 33.833 -30.5 58.5c0 26 14.667 52.667 44 80s61 51.666 95 72.999h-56v145c-8.66699 -53.333 -28.667 -92.833 -60 -118.5s-69.333 -38.5 -114 -38.5c-110.667 0 -166 67 -166 201v313h89v-297
c0 -108 40.333 -162 121 -162c36.667 0 67.5 13.5 92.5 40.5s37.5 67.833 37.5 122.5v296h90v-502h-18c-64 -56 -96 -102.333 -96 -139c0 -19.333 7.16699 -34.5 21.5 -45.5s32.5 -16.5 54.5 -16.5c19.333 0 41.666 5.33301 66.999 16l2 -19
c-32 -19.333 -65.333 -29 -100 -29z" />
    <glyph glyph-name="Wcircumflex" unicode="&#x174;" horiz-adv-x="1105" 
d="M411 837l157 146h10l157 -146h-28l-134 74l-134 -74h-28zM273 -6l-251 764h102l203 -629l219 629h52l223 -624l205 624h57l-251 -764h-60l-222 614l-217 -614h-60z" />
    <glyph glyph-name="wcircumflex" unicode="&#x175;" horiz-adv-x="868" 
d="M292 605l161 187h8l161 -187h-26l-139 106l-139 -106h-26zM115 502l156 -390l168 390h37l171 -385l155 385h49l-205 -506h-39l-175 387l-169 -387h-41l-205 506h98z" />
    <glyph glyph-name="Ycircumflex" unicode="&#x176;" horiz-adv-x="769" 
d="M233 837l157 146h10l157 -146h-28l-134 74l-134 -74h-28zM433 342v-342h-97v342l-316 416h114l275 -363l277 363h63z" />
    <glyph glyph-name="ycircumflex" unicode="&#x177;" horiz-adv-x="559" 
d="M135 605l161 187h8l161 -187h-26l-139 106l-139 -106h-26zM123 -248l128 256l-236 494h99l187 -393l196 393h51l-375 -750h-50z" />
    <glyph glyph-name="Ydieresis" unicode="&#x178;" horiz-adv-x="769" 
d="M279 858c-16 0 -30.167 6.16699 -42.5 18.5s-18.5 26.833 -18.5 43.5c0 16 6.16699 30.167 18.5 42.5s26.5 18.5 42.5 18.5c16.667 0 31.167 -6.16699 43.5 -18.5s18.5 -26.5 18.5 -42.5c0 -16.667 -6.16699 -31.167 -18.5 -43.5s-26.833 -18.5 -43.5 -18.5zM510 858
c-16 0 -30.167 6.16699 -42.5 18.5s-18.5 26.833 -18.5 43.5c0 16 6.16699 30.167 18.5 42.5s26.5 18.5 42.5 18.5c16.667 0 31.167 -6.16699 43.5 -18.5s18.5 -26.5 18.5 -42.5c0 -16.667 -6.16699 -31.167 -18.5 -43.5s-26.833 -18.5 -43.5 -18.5zM433 342v-342h-97v342
l-316 416h114l275 -363l277 363h63z" />
    <glyph glyph-name="Zacute" unicode="&#x179;" horiz-adv-x="678" 
d="M320 843l127 129h122v-2l-221 -127h-28zM18 0v44l509 667h-454v47h564v-45l-508 -666h510v-47h-621z" />
    <glyph glyph-name="zacute" unicode="&#x17a;" horiz-adv-x="517" 
d="M242 605l109 170h101v-7l-184 -163h-26zM31 0v35l329 418h-303v49h417v-35l-329 -418h328v-49h-442z" />
    <glyph glyph-name="Zdotaccent" unicode="&#x17b;" horiz-adv-x="678" 
d="M348 858c-16 0 -30.167 6.16699 -42.5 18.5s-18.5 26.833 -18.5 43.5c0 16 6.16699 30.167 18.5 42.5s26.5 18.5 42.5 18.5c16.667 0 31.167 -6.16699 43.5 -18.5s18.5 -26.5 18.5 -42.5c0 -16.667 -6.16699 -31.167 -18.5 -43.5s-26.833 -18.5 -43.5 -18.5zM18 0v44
l509 667h-454v47h564v-45l-508 -666h510v-47h-621z" />
    <glyph glyph-name="zdotaccent" unicode="&#x17c;" horiz-adv-x="517" 
d="M275 645c-16 0 -30.167 6.16699 -42.5 18.5s-18.5 26.833 -18.5 43.5c0 16 6.16699 30.167 18.5 42.5s26.5 18.5 42.5 18.5c16.667 0 31.167 -6.16699 43.5 -18.5s18.5 -26.5 18.5 -42.5c0 -16.667 -6.16699 -31.167 -18.5 -43.5s-26.833 -18.5 -43.5 -18.5zM31 0v35
l329 418h-303v49h417v-35l-329 -418h328v-49h-442z" />
    <glyph glyph-name="Zcaron" unicode="&#x17d;" horiz-adv-x="678" 
d="M186 983h28l134 -74l134 74h28l-157 -146h-10zM18 0v44l509 667h-454v47h564v-45l-508 -666h510v-47h-621z" />
    <glyph glyph-name="zcaron" unicode="&#x17e;" horiz-adv-x="517" 
d="M110 792h26l139 -107l139 107h26l-161 -187h-8zM31 0v35l329 418h-303v49h417v-35l-329 -418h328v-49h-442z" />
    <glyph glyph-name="uni018F" unicode="&#x18f;" horiz-adv-x="858" 
d="M422 -11c-94 0 -175.501 27.001 -244.501 81.001s-110.167 127 -123.5 219h643c2 16 3 31.667 3 47c0 107.333 -29.833 196 -89.5 266s-135.834 105 -228.501 105c-78.667 0 -144 -21.167 -196 -63.5s-83.667 -104.833 -95 -187.5h-41
c8.66699 98 46.834 175.667 114.501 233s152.5 86 254.5 86c111.333 0 202.5 -35.5 273.5 -106.5s106.833 -166.5 107.5 -286.5c0.666992 -116.667 -34.666 -211.334 -105.999 -284.001s-162 -109 -272 -109zM421.999 31.001c66.667 0 124.333 19.167 173 57.5
s80 89.833 94 154.5h-524c14 -65.333 44.833 -117 92.5 -155s102.5 -57 164.5 -57z" />
    <glyph glyph-name="Scommaaccent" unicode="&#x218;" horiz-adv-x="644" 
d="M316 -12c-88.667 0 -161.999 13.668 -219.999 41.001l-20 209h30l55 -162c10.667 -30.667 62 -46 154 -46c54 0 97.333 12.5 130 37.5s49 59.5 49 103.5s-14 78.167 -42 102.5s-72.667 46.5 -134 66.5l-54 18c-126.667 42.667 -190 115.667 -190 219
c0 60 26.167 107.833 78.5 143.5s115.166 53.5 188.499 53.5c76 0 135.667 -11 179 -33l27 -195h-30l-57 143c-11.333 28.667 -53 43 -125 43c-48 0 -88.167 -10.833 -120.5 -32.5s-48.5 -51.834 -48.5 -90.501c0 -36 10 -66 30 -90s52 -43.333 96 -58l54 -18
c79.333 -26 139.5 -56.667 180.5 -92s61.5 -84 61.5 -146c0 -63.333 -26.333 -115.333 -79 -156s-117 -61 -193 -61zM270.001 -339.999l-10.999 19c60 44.667 90 86.334 90 125.001c0 34 -20.333 56 -61 66c-0.666992 16.667 3.66602 30 12.999 40s22 15 38 15
c20 0 36.5 -7.33301 49.5 -22s19.5 -33 19.5 -55c0 -62.667 -46 -125.334 -138 -188.001z" />
    <glyph glyph-name="scommaaccent" unicode="&#x219;" horiz-adv-x="489" 
d="M228 -12c-56.667 0 -107.334 10.667 -152.001 32l-18 167h30l42 -124c5.33301 -16 17.333 -26.667 36 -32s43.667 -8 75 -8c30.667 0 57.5 8.16699 80.5 24.5s34.5 38.833 34.5 67.5c0 26.667 -8.83301 47 -26.5 61s-43.5 24.667 -77.5 32l-48 11
c-42.667 10 -76 27.833 -100 53.5s-36 58.167 -36 97.5c0 44 18.333 79.333 55 106s82.334 40 137.001 40c50.667 0 94.334 -11 131.001 -33l25 -148h-30l-46 104c-12.667 28.667 -44.334 43 -95.001 43c-29.333 0 -54 -7.66699 -74 -23s-30 -35 -30 -59
c0 -47.333 30.667 -78 92 -92l48 -11c103.333 -23.333 155 -74 155 -152c0 -47.333 -19.667 -85.333 -59 -114s-89 -43 -149 -43zM183 -340l-10.999 19c60 44.667 90 86.334 90 125.001c0 34 -20.333 56 -61 66c-0.666992 16.667 3.66602 30 12.999 40s22 15 38 15
c20 0 36.5 -7.33301 49.5 -22s19.5 -33 19.5 -55c0 -62.667 -46 -125.334 -138 -188.001z" />
    <glyph glyph-name="Tcommaaccent" unicode="&#x21a;" horiz-adv-x="698" 
d="M300 0v711h-289v47h676v-47h-289v-711h-98zM272 -340l-10.999 19c60 44.667 90 86.334 90 125.001c0 34 -20.333 56 -61 66c-0.666992 16.667 3.66602 30 12.999 40s22 15 38 15c20 0 36.5 -7.33301 49.5 -22s19.5 -33 19.5 -55c0 -62.667 -46 -125.334 -138 -188.001z
" />
    <glyph glyph-name="tcommaaccent" unicode="&#x21b;" horiz-adv-x="412" 
d="M242 -12c-40 0 -69.333 8.66797 -88 26.001s-28 48.666 -28 93.999v345h-111v49h111v116l90 41v-157h188v-49h-188v-346c0 -30 7 -50.333 21 -61s36 -16 66 -16c34 0 63 3 87 9v-32c-50.667 -12.667 -100 -19 -148 -19zM140 -339.999l-10.999 19
c60 44.667 90 86.334 90 125.001c0 34 -20.333 56 -61 66c-0.666992 16.667 3.66602 30 12.999 40s22 15 38 15c20 0 36.5 -7.33301 49.5 -22s19.5 -33 19.5 -55c0 -62.667 -46 -125.334 -138 -188.001z" />
    <glyph glyph-name="uni0232" unicode="&#x232;" horiz-adv-x="769" 
d="M247 882v43h296v-43h-296zM433 342v-342h-97v342l-316 416h114l275 -363l277 363h63z" />
    <glyph glyph-name="uni0233" unicode="&#x233;" horiz-adv-x="559" 
d="M152 668v43h296v-43h-296zM123 -248l128 256l-236 494h99l187 -393l196 393h51l-375 -750h-50z" />
    <glyph glyph-name="dotlessj" unicode="&#x237;" horiz-adv-x="274" 
d="M-22 -261l-15.999 22.001l44 37.5c8 7 18.833 17.667 32.5 32s22.667 26.333 27 36s9.5 23 15.5 40s9.83301 35.167 11.5 54.5s2.5 42.333 2.5 69v472h90v-468c0 -58.667 -6.83301 -102.834 -20.5 -132.501s-38.167 -58.5 -73.5 -86.5
c-22.667 -16.667 -60.334 -42 -113.001 -76z" />
    <glyph glyph-name="uni0259" unicode="&#x259;" horiz-adv-x="595" 
d="M284 517c76.667 0 138.5 -24.666 185.5 -73.999s70.5 -112 70.5 -188c0 -80 -25.167 -144.333 -75.5 -193s-108.5 -73 -174.5 -73c-64 0 -118 18.5 -162 55.5s-71 89.833 -81 158.5h402v12c0 74 -18.333 133 -55 177s-84.667 66 -144 66
c-96 0 -157.333 -46.333 -184 -139h-27c14 65.333 41.833 114.666 83.5 147.999s95.5 50 161.5 50zM292 18.001c38.667 0 72.168 13.167 100.501 39.5s46.166 63.5 53.499 111.5h-296c4 -50.667 18.833 -88.5 44.5 -113.5s58.167 -37.5 97.5 -37.5z" />
    <glyph glyph-name="uni02BB" unicode="&#x2bb;" horiz-adv-x="269" 
d="M203 784l15 -25.001c-62.667 -48 -94 -95 -94 -141c0 -34 22 -57 66 -69c0.666992 -19.333 -5.66602 -35 -18.999 -47s-29 -18 -47 -18c-21.333 0 -39 8 -53 24s-21 37.333 -21 64c0 32.667 12.667 67.834 38 105.501s63.666 73.167 114.999 106.5z" />
    <glyph glyph-name="uni02BC" unicode="&#x2bc;" horiz-adv-x="265" 
d="M72 484l-15 25.001c62.667 48 94 95 94 141c0 34 -22 57 -66 69c-0.666992 19.333 5.66602 35 18.999 47s29 18 47 18c21.333 0 39 -8 53 -24s21 -37.333 21 -64c0 -32.667 -12.667 -67.834 -38 -105.501s-63.666 -73.167 -114.999 -106.5z" />
    <glyph glyph-name="circumflex" unicode="&#x2c6;" 
d="M-165 605l161 187h8l161 -187h-26l-139 106l-139 -106h-26z" />
    <glyph glyph-name="caron" unicode="&#x2c7;" 
d="M-165 792h26l139 -107l139 107h26l-161 -187h-8z" />
    <glyph glyph-name="breve" unicode="&#x2d8;" 
d="M0 613c-17.333 0 -34 2.33301 -50 7s-32 12.5 -48 23.5s-29.5 27.333 -40.5 49s-17.833 47.167 -20.5 76.5h39c4.66699 -38.667 17.667 -68.334 39 -89.001s48.333 -31 81 -31s59.667 10.333 81 31s34.333 50.334 39 89.001h39
c-2.66699 -29.333 -9.5 -54.833 -20.5 -76.5s-24.5 -38 -40.5 -49s-32 -18.833 -48 -23.5s-32.667 -7 -50 -7z" />
    <glyph glyph-name="dotaccent" unicode="&#x2d9;" 
d="M0 645c-16 0 -30.167 6.16699 -42.5 18.5s-18.5 26.833 -18.5 43.5c0 16 6.16699 30.167 18.5 42.5s26.5 18.5 42.5 18.5c16.667 0 31.167 -6.16699 43.5 -18.5s18.5 -26.5 18.5 -42.5c0 -16.667 -6.16699 -31.167 -18.5 -43.5s-26.833 -18.5 -43.5 -18.5z" />
    <glyph glyph-name="ring" unicode="&#x2da;" 
d="M0 585c-32 0 -59.167 10.667 -81.5 32s-33.5 47.666 -33.5 78.999c0 30.667 11.333 56.834 34 78.501s49.667 32.5 81 32.5c32.667 0 60.167 -10.833 82.5 -32.5s33.5 -47.834 33.5 -78.501c0 -31.333 -11.167 -57.666 -33.5 -78.999s-49.833 -32 -82.5 -32zM0 620
c22.667 0 41 7 55 21s21 32.333 21 55c0 22 -7 40 -21 54s-32.333 21 -55 21c-22 0 -40.167 -7 -54.5 -21s-21.5 -32 -21.5 -54c0 -22.667 7.16699 -41 21.5 -55s32.5 -21 54.5 -21z" />
    <glyph glyph-name="ogonek" unicode="&#x2db;" 
d="M-2 -233c-28.667 0 -53.166 7.16797 -73.499 21.501s-30.5 33.833 -30.5 58.5c0 26 14.667 52.667 44 80s61 51.666 95 72.999h16c-64 -56 -96 -102.333 -96 -139c0 -19.333 7.16699 -34.5 21.5 -45.5s32.5 -16.5 54.5 -16.5c19.333 0 41.666 5.33301 66.999 16l2 -19
c-32 -19.333 -65.333 -29 -100 -29z" />
    <glyph glyph-name="tilde" unicode="&#x2dc;" 
d="M78 629c-24.667 0 -53.501 11.499 -86.501 34.499s-58.167 34.5 -75.5 34.5c-35.333 0 -54 -20.667 -56 -62h-22c0 34.667 8.16699 64.834 24.5 90.501s37.833 38.5 64.5 38.5c20.667 0 47.834 -11.333 81.501 -34s59.5 -34 77.5 -34c34 0 52 19.667 54 59h22
c0 -40 -8.5 -71.167 -25.5 -93.5s-36.5 -33.5 -58.5 -33.5z" />
    <glyph glyph-name="hungarumlaut" unicode="&#x2dd;" 
d="M-198 605l108 170h101v-7l-184 -163h-25zM-19 605l109 170h101v-7l-184 -163h-26z" />
    <glyph glyph-name="uni0401" unicode="&#x401;" horiz-adv-x="663" 
d="M264 858c-16 0 -30.167 6.16699 -42.5 18.5s-18.5 26.833 -18.5 43.5c0 16 6.16699 30.167 18.5 42.5s26.5 18.5 42.5 18.5c16.667 0 31.167 -6.16699 43.5 -18.5s18.5 -26.5 18.5 -42.5c0 -16.667 -6.16699 -31.167 -18.5 -43.5s-26.833 -18.5 -43.5 -18.5zM495 858
c-16 0 -30.167 6.16699 -42.5 18.5s-18.5 26.833 -18.5 43.5c0 16 6.16699 30.167 18.5 42.5s26.5 18.5 42.5 18.5c16.667 0 31.167 -6.16699 43.5 -18.5s18.5 -26.5 18.5 -42.5c0 -16.667 -6.16699 -31.167 -18.5 -43.5s-26.833 -18.5 -43.5 -18.5zM110 0v758h500v-47h-403
v-292h345v-47h-345v-325h403v-47h-500z" />
    <glyph glyph-name="uni0402" unicode="&#x402;" horiz-adv-x="856" 
d="M361 0h-97.001v711h-254v47h645v-47h-294v-303c58.667 37.333 127.667 56 207 56c77.333 0 134.333 -17.667 171 -53s55.667 -89 57 -161v-107c0 -51.333 -8.16699 -90.833 -24.5 -118.5s-46.833 -58.5 -91.5 -92.5c-18.667 -14.667 -55.667 -39.667 -111 -75l-18 27
c54 46 87.667 76.667 101 92c28.667 34.667 44.334 80.334 47.001 137.001v22v112c0 62 -14.5 106 -43.5 132s-72.167 39 -129.5 39c-32 0 -63.5 -5.33301 -94.5 -16s-54.5 -23.334 -70.5 -38.001v-364z" />
    <glyph glyph-name="uni0403" unicode="&#x403;" horiz-adv-x="605" 
d="M332 843l127 129h122v-2l-221 -127h-28zM205 711v-711h-97v758h467v-47h-370z" />
    <glyph glyph-name="uni0404" unicode="&#x404;" horiz-adv-x="820" 
d="M481 -12c-125.333 0 -227.5 35.501 -306.5 106.501s-118.5 166.5 -118.5 286.5c0 119.333 40 214.666 120 285.999s183.333 107 310 107c104.667 0 187 -17.333 247 -52l19 -196h-30l-54 154c-6 17.333 -27.667 30.333 -65 39s-77.333 13 -120 13
c-88.667 0 -162.5 -25.167 -221.5 -75.5s-90.5 -129.5 -94.5 -237.5h362v-47h-361c4.66699 -104 35.667 -187 93 -249s133.666 -93 228.999 -93c42.667 0 82.334 4.33301 119.001 13s58 21.667 64 39l54 154h30l-19 -196c-28 -16 -66.167 -28.667 -114.5 -38
s-95.833 -14 -142.5 -14z" />
    <glyph glyph-name="uni0405" unicode="&#x405;" horiz-adv-x="623" 
d="M297 -12c-88.667 0 -161.999 13.668 -219.999 41.001l-20 209h30l55 -162c10.667 -30.667 62 -46 154 -46c54 0 97.333 12.5 130 37.5s49 59.5 49 103.5s-14 78.167 -42 102.5s-72.667 46.5 -134 66.5l-54 18c-126.667 42.667 -190 115.667 -190 219
c0 60 26.167 107.833 78.5 143.5s115.166 53.5 188.499 53.5c76 0 135.667 -11 179 -33l27 -195h-30l-57 143c-11.333 28.667 -53 43 -125 43c-48 0 -88.167 -10.833 -120.5 -32.5s-48.5 -51.834 -48.5 -90.501c0 -36 10 -66 30 -90s52 -43.333 96 -58l54 -18
c79.333 -26 139.5 -56.667 180.5 -92s61.5 -84 61.5 -146c0 -63.333 -26.333 -115.333 -79 -156s-117 -61 -193 -61z" />
    <glyph glyph-name="uni0406" unicode="&#x406;" horiz-adv-x="313" 
d="M108 0v758h97v-758h-97z" />
    <glyph glyph-name="uni0407" unicode="&#x407;" horiz-adv-x="313" 
d="M42 858c-16 0 -30.167 6.16699 -42.5 18.5s-18.5 26.833 -18.5 43.5c0 16 6.16699 30.167 18.5 42.5s26.5 18.5 42.5 18.5c16.667 0 31.167 -6.16699 43.5 -18.5s18.5 -26.5 18.5 -42.5c0 -16.667 -6.16699 -31.167 -18.5 -43.5s-26.833 -18.5 -43.5 -18.5zM273 858
c-16 0 -30.167 6.16699 -42.5 18.5s-18.5 26.833 -18.5 43.5c0 16 6.16699 30.167 18.5 42.5s26.5 18.5 42.5 18.5c16.667 0 31.167 -6.16699 43.5 -18.5s18.5 -26.5 18.5 -42.5c0 -16.667 -6.16699 -31.167 -18.5 -43.5s-26.833 -18.5 -43.5 -18.5zM110 0v758h97v-758h-97z
" />
    <glyph glyph-name="uni0408" unicode="&#x408;" horiz-adv-x="320" 
d="M-12 -143l-18.001 26.998l19 16c28.667 24 48.834 41.667 60.501 53s24 26.333 37 45s21.5 38.334 25.5 59.001s6 46.334 6 77.001v624h97v-615c0 -51.333 -8.16699 -90.833 -24.5 -118.5s-46.833 -58.5 -91.5 -92.5c-18.667 -14.667 -55.667 -39.667 -111 -75z" />
    <glyph glyph-name="uni0409" unicode="&#x409;" horiz-adv-x="1125" 
d="M159 37c-22 -32.667 -49 -48.999 -81 -48.999c-36 0 -54 13.333 -54 40c0 23.333 16.333 42.666 49 57.999c52 25.333 84.667 80 98 164s20 245.333 20 484v24h423v-321h144c111.333 0 195.333 -17.333 252 -52s85 -84.667 85 -150
c0 -77.333 -28.333 -135.833 -85 -175.5s-140.667 -59.5 -252 -59.5h-241v711h-275c-0.666992 -208.667 -6.5 -360.667 -17.5 -456s-32.833 -168 -65.5 -218zM614 47.001l108 -0.000976562c94 0 161.667 14.333 203 43s62 72.334 62 131.001c0 112.667 -88.667 169 -266 169
h-107v-343z" />
    <glyph glyph-name="uni040A" unicode="&#x40a;" horiz-adv-x="1192" 
d="M205 0h-97v758h97v-329h384v329h97v-329h139c224.667 0 337 -65.667 337 -197c0 -154.667 -112.333 -232 -337 -232h-236v382h-384v-382zM686 47l103 -0.000976562c94 0 161.667 13.833 203 41.5s62 70.834 62 129.501c0 109.333 -88.667 164 -266 164h-102v-335z" />
    <glyph glyph-name="uni040B" unicode="&#x40b;" horiz-adv-x="856" 
d="M361 0l-97 0.000976562v711h-254v47h645v-47h-294v-303c58.667 37.333 127.667 56 207 56c152 0 228 -71.333 228 -214v-250h-97v247c0 62 -14.5 106 -43.5 132s-72.167 39 -129.5 39c-32 0 -63.5 -5.33301 -94.5 -16s-54.5 -23.334 -70.5 -38.001v-364z" />
    <glyph glyph-name="uni040C" unicode="&#x40c;" horiz-adv-x="771" 
d="M387 843l127 129h122v-2l-221 -127h-28zM108 0v758h97v-371l2 2l450 369h72l-419 -344l477 -414h-138l-444 381v-381h-97z" />
    <glyph glyph-name="uni040E" unicode="&#x40e;" horiz-adv-x="696" 
d="M391 836c-62.667 0 -108.832 14 -138.499 42s-44.5 65.333 -44.5 112h76c0 -40 9.33301 -71.667 28 -95s45 -35 79 -35c67.333 0 101 43.333 101 130h76c0 -49.333 -15.333 -87.333 -46 -114s-74.334 -40 -131.001 -40zM373.002 132
c-29.333 -54.667 -54 -92.3359 -74 -113.003s-42 -31 -66 -31c-14.667 0 -26.5 3.83301 -35.5 11.5s-13.5 17.5 -13.5 29.5s3.16699 21.833 9.5 29.5s18.5 16.167 36.5 25.5l17 8.5c10 5 16 8.16699 18 9.5s7 4.33301 15 9s13.667 8.83398 17 12.501
s8.33301 8.83398 15 15.501s12.5 13.834 17.5 21.501l16.5 26.5l-335 571h106l279 -478l255 478h57z" />
    <glyph glyph-name="uni040F" unicode="&#x40f;" horiz-adv-x="830" 
d="M364 -12c-2.66699 8 -8 12 -16 12h-240v758h97v-711h420v711h97v-758h-234c-8 0 -13.333 -4 -16 -12l-40 -144h-28z" />
    <glyph glyph-name="uni0410" unicode="&#x410;" horiz-adv-x="755" 
d="M639 0l-121 285h-329l-120 -285h-56l323 764h82l325 -764h-104zM209 332h289l-145 340z" />
    <glyph glyph-name="uni0411" unicode="&#x411;" horiz-adv-x="713" 
d="M617 711l-412 -0.000976562v-284h155c114 0 195.5 -17.5 244.5 -52.5s73.5 -84.833 73.5 -149.5c0 -67.333 -25 -121.666 -75 -162.999s-131 -62 -243 -62h-252v758h509v-47zM205 42.999h149c143.333 0 215 60.667 215 182c0 24 -2.83301 44.667 -8.5 62
s-16 33.833 -31 49.5s-37.333 27.5 -67 35.5s-66.167 12 -109.5 12h-148v-341z" />
    <glyph glyph-name="uni0412" unicode="&#x412;" horiz-adv-x="734" 
d="M369 0l-261 0.000976562v758h235c92 0 163.333 -13.167 214 -39.5s76 -70.5 76 -132.5c0 -50 -18.833 -90.833 -56.5 -122.5s-88.834 -51.167 -153.501 -58.5v-1c80 -1.33301 143.5 -17.333 190.5 -48s70.5 -76.334 70.5 -137.001c0 -68 -26.667 -121.5 -80 -160.5
s-131.666 -58.5 -234.999 -58.5zM205 421.001h145c54 0 97.5 13 130.5 39s49.5 62.667 49.5 110c0 96 -67 144 -201 144h-124v-293zM205 44.001h134c158 0 237 57.333 237 172c0 109.333 -74.667 164 -224 164h-147v-336z" />
    <glyph glyph-name="uni0413" unicode="&#x413;" horiz-adv-x="605" 
d="M205 711v-711h-97v758h467v-47h-370z" />
    <glyph glyph-name="uni0414" unicode="&#x414;" horiz-adv-x="796" 
d="M118 -12l-70.001 -154h-28l8 213h69c32.667 72.667 56.167 161 70.5 265s21.5 244.667 21.5 422v24h470v-711h94l8 -213h-28l-72 154c-4 8 -9.33301 12 -16 12h-511c-7.33301 0 -12.666 -4 -15.999 -12zM561.999 47v663.999h-321
c-0.666992 -321.333 -29.667 -542.666 -87 -663.999h408z" />
    <glyph glyph-name="uni0415" unicode="&#x415;" horiz-adv-x="663" 
d="M108 0v758h500v-47h-403v-292h345v-47h-345v-325h403v-47h-500z" />
    <glyph glyph-name="uni0416" unicode="&#x416;" horiz-adv-x="1129" 
d="M122 0h-138l427 413l-374 345h77l401 -370l1 -1v371h97v-371l1 1l401 370h72l-371 -343l429 -415h-138l-394 380v-380h-97v380z" />
    <glyph glyph-name="uni0417" unicode="&#x417;" horiz-adv-x="709" 
d="M316 30c76 0 133.335 16.1699 172.002 48.5029s58 78.166 58 137.499c0 109.333 -73 164 -219 164h-112v41h110c54 0 97.5 13 130.5 39s49.5 62.667 49.5 110c0 52 -16.5 92 -49.5 120s-78.833 42 -137.5 42c-22.667 0 -43.334 -2.33301 -62.001 -7
c-25.333 -7.33301 -45 -22.333 -59 -45l-97 -154h-28l46 198c58 33.333 128.667 50 212 50c88.667 0 157.167 -15.5 205.5 -46.5s72.5 -78.167 72.5 -141.5c0 -50 -18.833 -90.833 -56.5 -122.5s-88.834 -51.167 -153.501 -58.5v-1c78.667 -1.33301 141 -17.333 187 -48
s69 -76.334 69 -137.001c0 -68.667 -28.167 -124.334 -84.5 -167.001s-137.833 -64 -244.5 -64c-96 0 -172.333 16.667 -229 50l-46 198h28l86 -137c18 -29.333 44 -49 78 -59c23.333 -6.66699 48 -10 74 -10z" />
    <glyph glyph-name="uni0418" unicode="&#x418;" horiz-adv-x="864" 
d="M205 0h-97v758h97v-672l454 672h97v-758h-97v672z" />
    <glyph glyph-name="uni0419" unicode="&#x419;" horiz-adv-x="864" 
d="M440 836c-62.667 0 -108.832 14 -138.499 42s-44.5 65.333 -44.5 112h76c0 -40 9.33301 -71.667 28 -95s45 -35 79 -35c67.333 0 101 43.333 101 130h76c0 -49.333 -15.333 -87.333 -46 -114s-74.334 -40 -131.001 -40zM205.002 0h-97v758h97v-672l454 672h97v-758h-97
v672z" />
    <glyph glyph-name="uni041A" unicode="&#x41a;" horiz-adv-x="771" 
d="M108 0v758h97v-371l2 2l450 369h72l-419 -344l477 -414h-138l-444 381v-381h-97z" />
    <glyph glyph-name="uni041B" unicode="&#x41b;" horiz-adv-x="757" 
d="M159 37c-22.667 -32.667 -50.334 -48.998 -83.001 -48.998c-15.333 0 -27.666 3.5 -36.999 10.5s-14 16.833 -14 29.5c0 23.333 16 42.666 48 57.999c52.667 25.333 85.5 79.666 98.5 162.999s19.5 245 19.5 485v24h458v-758h-97v711h-310
c-0.666992 -208.667 -6.5 -360.667 -17.5 -456s-32.833 -168 -65.5 -218z" />
    <glyph glyph-name="uni041C" unicode="&#x41c;" horiz-adv-x="1000" 
d="M160 646v-646h-52v758h100l299 -489l296 489h89v-758h-97v646l-297 -485h-40z" />
    <glyph glyph-name="uni041D" unicode="&#x41d;" horiz-adv-x="854" 
d="M108 0v758h97v-339h444v339h97v-758h-97v372h-444v-372h-97z" />
    <glyph glyph-name="uni041E" unicode="&#x41e;" horiz-adv-x="918" 
d="M459 -12c-112.667 0 -208 36.667 -286 110s-117 167.666 -117 282.999s38.833 209.666 116.5 282.999s173.167 110 286.5 110c112.667 0 208 -36.667 286 -110s117 -167.666 117 -282.999s-39 -209.666 -117 -282.999s-173.333 -110 -286 -110zM463 30
c79.333 0 146.834 28.499 202.501 85.499s83.5 138.5 83.5 244.5c0 114.667 -27.833 205.334 -83.5 272.001s-125.834 100 -210.501 100c-80 0 -147.833 -28.333 -203.5 -85s-83.5 -138 -83.5 -244c0 -115.333 28 -206.333 84 -273s126.333 -100 211 -100z" />
    <glyph glyph-name="uni041F" unicode="&#x41f;" horiz-adv-x="830" 
d="M108 758h614v-758h-97v711h-420v-711h-97v758z" />
    <glyph glyph-name="uni0420" unicode="&#x420;" horiz-adv-x="712" 
d="M205 0h-97.002v758h256c46.667 0 87.834 -3 123.501 -9s68.834 -16.167 99.501 -30.5s54.167 -35.333 70.5 -63s24.5 -61.167 24.5 -100.5c0 -140 -106 -210 -318 -210h-159v-345zM204.998 714v-324h151c70 0 123.833 12 161.5 36s56.5 65.667 56.5 125
s-19 101.333 -57 126s-91.667 37 -161 37h-151z" />
    <glyph glyph-name="uni0421" unicode="&#x421;" horiz-adv-x="820" 
d="M481 -12c-125.333 0 -227.503 35.501 -306.503 106.501s-118.5 166.5 -118.5 286.5c0 119.333 40 214.666 120 285.999s183.333 107 310 107c104.667 0 187 -17.333 247 -52l19 -196h-30l-54 154c-6 17.333 -27.667 30.333 -65 39s-77.333 13 -120 13
s-82.167 -6 -118.5 -18s-69.666 -30.5 -99.999 -55.5s-54.166 -59.5 -71.499 -103.5s-26 -95.667 -26 -155c0 -112 28.833 -201.667 86.5 -269s136.5 -101 236.5 -101c42.667 0 82.334 4.33301 119.001 13s58 21.667 64 39l54 154h30l-19 -196
c-28 -16 -66.167 -28.667 -114.5 -38s-95.833 -14 -142.5 -14z" />
    <glyph glyph-name="uni0422" unicode="&#x422;" horiz-adv-x="694" 
d="M298 0v711h-289v47h676v-47h-289v-711h-98z" />
    <glyph glyph-name="uni0423" unicode="&#x423;" horiz-adv-x="696" 
d="M373 132c-29.333 -54.667 -54 -92.3359 -74 -113.003s-42 -31 -66 -31c-14.667 0 -26.5 3.83301 -35.5 11.5s-13.5 17.5 -13.5 29.5s3.16699 21.833 9.5 29.5s18.5 16.167 36.5 25.5l17 8.5c10 5 16 8.16699 18 9.5s7 4.33301 15 9s13.667 8.83398 17 12.501
s8.33301 8.83398 15 15.501s12.5 13.834 17.5 21.501l16.5 26.5l-335 571h106l279 -478l255 478h57z" />
    <glyph glyph-name="uni0424" unicode="&#x424;" horiz-adv-x="971" 
d="M432 -20v98c-120.667 6.66699 -214.5 35.667 -281.5 87s-100.5 119 -100.5 203c0 95.333 33.333 170.5 100 225.5s160.667 86.167 282 93.5v93h107v-93c120.667 -6.66699 214.5 -35.5 281.5 -86.5s100.5 -118.5 100.5 -202.5c0 -95.333 -33.333 -170.5 -100 -225.5
s-160.667 -86.167 -282 -93.5v-99h-107zM158 396c0 -86.667 22.833 -151.667 68.5 -195s114.167 -68.666 205.5 -75.999v517c-87.333 -4.66699 -154.833 -25.834 -202.5 -63.501s-71.5 -98.5 -71.5 -182.5zM813 370c0 86.667 -22.833 151.668 -68.5 195.001
s-114.167 68.666 -205.5 75.999v-517c86.667 4.66699 154 26 202 64s72 98.667 72 182z" />
    <glyph glyph-name="uni0425" unicode="&#x425;" horiz-adv-x="737" 
d="M-5 0l327 386l-287 372h119l231 -298l252 298h64l-286 -337l326 -421h-120l-268 347l-295 -347h-63z" />
    <glyph glyph-name="uni0426" unicode="&#x426;" horiz-adv-x="859" 
d="M708 0h-600v758h97v-711h420v711h97v-711h94l8 -213h-28l-72 154c-4 8 -9.33301 12 -16 12z" />
    <glyph glyph-name="uni0427" unicode="&#x427;" horiz-adv-x="768" 
d="M60 565l0.00195312 193h97v-193c0 -40.667 5.66699 -73.834 17 -99.501s28.5 -44.5 51.5 -56.5s46.167 -19.833 69.5 -23.5s52.666 -5.5 87.999 -5.5c32 0 63 1.33301 93 4s52 5.33398 66 8.00098l21 3v363h97v-758h-97v353c-66.667 -11.333 -130.334 -17 -191.001 -17
c-38 0 -71.833 1.83301 -101.5 5.5s-58.167 10.5 -85.5 20.5s-49.833 23.5 -67.5 40.5s-31.667 39.167 -42 66.5s-15.5 59.333 -15.5 96z" />
    <glyph glyph-name="uni0428" unicode="&#x428;" horiz-adv-x="1083" 
d="M975 0h-867v758h97v-711h288v711h97v-711h288v711h97v-758z" />
    <glyph glyph-name="uni0429" unicode="&#x429;" horiz-adv-x="1112" 
d="M961 0h-853v758h97v-711h288v711h97v-711h288v711h97v-711h94l8 -213h-28l-72 154c-4 8 -9.33301 12 -16 12z" />
    <glyph glyph-name="uni042A" unicode="&#x42a;" horiz-adv-x="798" 
d="M292 437h139c111.333 0 195.333 -17.333 252 -52s85 -84.667 85 -150c0 -77.333 -28.333 -135.833 -85 -175.5s-140.667 -59.5 -252 -59.5h-236v711h-185v47h282v-321zM292 47l103 -0.000976562c94 0 161.667 14.333 203 43s62 72.334 62 131.001
c0 112.667 -88.667 169 -266 169h-102v-343z" />
    <glyph glyph-name="uni042B" unicode="&#x42b;" horiz-adv-x="990" 
d="M205 437h139c111.333 0 195.333 -17.333 252 -52s85 -84.667 85 -150c0 -77.333 -28.333 -135.833 -85 -175.5s-140.667 -59.5 -252 -59.5h-236v758h97v-321zM785 0v758h97v-758h-97zM205 47l103 -0.000976562c94 0 161.667 14.333 203 43s62 72.334 62 131.001
c0 112.667 -88.667 169 -266 169h-102v-343z" />
    <glyph glyph-name="uni042C" unicode="&#x42c;" horiz-adv-x="711" 
d="M205 437h139c111.333 0 195.333 -17.333 252 -52s85 -84.667 85 -150c0 -77.333 -28.333 -135.833 -85 -175.5s-140.667 -59.5 -252 -59.5h-236v758h97v-321zM205 47l103 -0.000976562c94 0 161.667 14.333 203 43s62 72.334 62 131.001c0 112.667 -88.667 169 -266 169
h-102v-343z" />
    <glyph glyph-name="uni042D" unicode="&#x42d;" horiz-adv-x="795" 
d="M338 -12c-104.667 0 -185.999 16.666 -243.999 49.999l-46 198h28l86 -137c18 -29.333 44 -48.333 78 -57c33.333 -8 66.333 -12 99 -12c80 0 149 28.667 207 86s87 138.666 87 243.999v12h-407v47h404c-10 97.333 -42 173.833 -96 229.5s-119.333 83.5 -196 83.5
c-35.333 0 -65 -3 -89 -9c-30.667 -8 -55.334 -27.333 -74.001 -58l-87 -139h-28l46 198c58.667 33.333 136 50 232 50c112.667 0 208 -36.667 286 -110s117 -167.666 117 -282.999s-39 -209.666 -117 -282.999s-173.333 -110 -286 -110z" />
    <glyph glyph-name="uni042E" unicode="&#x42e;" horiz-adv-x="1164" 
d="M108 0v757.997h97v-339h111c8.66699 106 50 191.667 124 257s163 98 267 98c110 0 203 -36.667 279 -110s114 -167.666 114 -282.999s-38 -209.666 -114 -282.999s-169 -110 -279 -110c-108.667 0 -200.667 35.833 -276 107.5s-114.333 163.834 -117 276.501h-109v-372
h-97zM711 29.9971c77.333 0 143.5 28.667 198.5 86s82.5 138.666 82.5 243.999c0 114.667 -27.667 205.334 -83 272.001s-124 100 -206 100c-78 0 -144.5 -28.5 -199.5 -85.5s-82.5 -138.167 -82.5 -243.5c0 -114.667 27.667 -205.5 83 -272.5s124.333 -100.5 207 -100.5z
" />
    <glyph glyph-name="uni042F" unicode="&#x42f;" horiz-adv-x="735" 
d="M144 0h-119l305 358c-70 8.66699 -124.5 30.167 -163.5 64.5s-58.5 79.833 -58.5 136.5c0 132.667 103.667 199 311 199h208v-758h-97v344h-93zM530 388v326h-98c-144 0 -216 -54.333 -216 -163s71.667 -163 215 -163h99z" />
    <glyph glyph-name="uni0430" unicode="&#x430;" horiz-adv-x="559" 
d="M202 -12c-46.667 0 -85.334 12.167 -116.001 36.5s-46 56.166 -46 95.499c0 96.667 109.667 155.667 329 177v36c0 53.333 -8.83301 92.5 -26.5 117.5s-45.167 37.5 -82.5 37.5c-42 0 -71.333 -11 -88 -33c-6 -7.33301 -9.66699 -15.666 -11 -24.999
s-1.33301 -20.333 0 -33s2 -19.667 2 -21c0 -13.333 -4 -24 -12 -32s-18.333 -12 -31 -12c-14 0 -25.167 4.33301 -33.5 13s-12.5 20.334 -12.5 35.001c0 36 18.333 67.667 55 95s82.334 41 137.001 41c64 0 112 -14.333 144 -43s47.667 -77.334 47 -146.001l-1 -230
c0 -24 2.83301 -40.833 8.5 -50.5s15.167 -14.5 28.5 -14.5c22 0 40.667 13.333 56 40l16 -9c-21.333 -49.333 -57.333 -74 -108 -74c-26 0 -46.833 8.33301 -62.5 25s-23.5 42 -23.5 76v28c-20 -86.667 -76.333 -130 -169 -130zM244 31c33.333 0 62.499 12 87.499 36
s37.5 61.333 37.5 112v94c-35.333 -4.66699 -65.833 -10.167 -91.5 -16.5s-49.667 -14.833 -72 -25.5s-39.166 -24 -50.499 -40s-17 -34.667 -17 -56c0 -28.667 9.66699 -53.167 29 -73.5s45 -30.5 77 -30.5z" />
    <glyph glyph-name="uni0431" unicode="&#x431;" horiz-adv-x="630" 
d="M582 246c0 -76 -24.832 -137.997 -74.499 -185.997s-113.834 -72 -192.501 -72c-34 0 -66 5.33301 -96 16s-58.333 27.167 -85 49.5s-47.667 53.833 -63 94.5s-23 88.334 -23 143.001c0 135.333 30 240.166 90 314.499s146 119.5 258 135.5c56 8 91.167 14.667 105.5 20
s21.5 15.666 21.5 30.999h18c0 -44.667 -9 -76.834 -27 -96.501s-54 -32.5 -108 -38.5c-112.667 -12.667 -176 -21.334 -190 -26.001c-11.333 -3.33301 -22.333 -9 -33 -17c-24 -18 -36 -69 -36 -153v-41c18.667 26.667 44.5 47.667 77.5 63s67.167 23 102.5 23
c76 0 137.5 -24.167 184.5 -72.5s70.5 -110.833 70.5 -187.5zM321.001 22.0029c56 0 97.002 18.8311 123.002 56.498s39 83.5 39 137.5c0 78.667 -14.333 138.834 -43 180.501s-76 62.5 -142 62.5c-28.667 0 -56.834 -4.66699 -84.501 -14s-49.834 -21.666 -66.501 -36.999
v-105c0 -90 16.5 -159.333 49.5 -208s74.5 -73 124.5 -73z" />
    <glyph glyph-name="uni0432" unicode="&#x432;" horiz-adv-x="557" 
d="M264 0l-179 0.000976562v502h188c134.667 0 202 -37.333 202 -112c0 -30 -12 -56.333 -36 -79s-58.667 -37.334 -104 -44.001v-1c56 -2.66699 99.5 -15 130.5 -37s46.5 -49.667 46.5 -83c0 -45.333 -20.5 -81 -61.5 -107s-103.167 -39 -186.5 -39zM269 469.001h-94v-194
h93c72.667 0 109 31.333 109 94c0 66.667 -36 100 -108 100zM175 245.001v-211.999h94c96.667 0 145 35.667 145 107c0 33.333 -13 59.166 -39 77.499s-61.667 27.5 -107 27.5h-93z" />
    <glyph glyph-name="uni0433" unicode="&#x433;" horiz-adv-x="437" 
d="M427 465h-252v-465h-90v502h342v-37z" />
    <glyph glyph-name="uni0434" unicode="&#x434;" horiz-adv-x="589" 
d="M89 -13l-62 -124h-22l8 174h64c42.667 96 64 243 64 441v24h325v-465h80l8 -174h-22l-62 124c-4 8.66699 -11 13 -21 13h-339c-9.33301 0 -16.333 -4.33301 -21 -13zM376 37v428h-188c-1.33301 -76.667 -7.5 -156 -18.5 -238s-25.833 -145.333 -44.5 -190h251z" />
    <glyph glyph-name="uni0435" unicode="&#x435;" horiz-adv-x="590" 
d="M305 -12c-76.667 0 -138.5 24.666 -185.5 73.999s-70.5 112 -70.5 188c0 80 25.167 144.333 75.5 193s108.5 73 174.5 73c64 0 118 -18.5 162 -55.5s71 -89.833 81 -158.5h-402v-12c0 -74 18.333 -133 55 -177s84.667 -66 144 -66c96 0 157.333 46.333 184 139h27
c-14 -65.333 -41.833 -114.666 -83.5 -147.999s-95.5 -50 -161.5 -50zM297 486.999c-38.667 0 -72.168 -13.167 -100.501 -39.5s-46.166 -63.5 -53.499 -111.5h296c-4 50.667 -18.833 88.5 -44.5 113.5s-58.167 37.5 -97.5 37.5z" />
    <glyph glyph-name="uni0436" unicode="&#x436;" horiz-adv-x="839" 
d="M111 0h-123l293 284l-254 218h69l280 -240v240h90v-240l280 240h65l-254 -217l294 -285h-120l-265 257v-257h-90v257z" />
    <glyph glyph-name="uni0437" unicode="&#x437;" horiz-adv-x="547" 
d="M270 -12c-63.333 0 -114.835 11.667 -154.502 35s-59.5 49.666 -59.5 78.999c0 15.333 3.83301 27 11.5 35s17.5 12 29.5 12c27.333 0 46.333 -16.667 57 -50c4.66699 -16.667 9.83398 -30 15.501 -40s17 -19.5 34 -28.5s39.167 -13.5 66.5 -13.5
c42 0 73.833 10.333 95.5 31s32.5 49.334 32.5 86.001c0 72 -46.667 108 -140 108h-73v36h73c72.667 0 109 32 109 96c0 73.333 -35 110 -105 110c-24 0 -40.667 -2 -50 -6c-12 -5.33301 -24 -17.666 -36 -36.999l-67 -106h-22l25 148c36.667 22 90.334 33 161.001 33
c56 0 102 -10.333 138 -31s54 -50.667 54 -90c0 -31.333 -12 -58.833 -36 -82.5s-58.667 -38.834 -104 -45.501v-1c54 -2.66699 96 -15.5 126 -38.5s45 -52.167 45 -87.5c0 -46.667 -18.667 -83.667 -56 -111s-94 -41 -170 -41z" />
    <glyph glyph-name="uni0438" unicode="&#x438;" horiz-adv-x="606" 
d="M85 0v502h90v-423l256 423h90v-502h-90v423l-256 -423h-90z" />
    <glyph glyph-name="uni0439" unicode="&#x439;" horiz-adv-x="606" 
d="M301 634c-62.667 0 -108.832 14 -138.499 42s-44.5 65.333 -44.5 112h76c0 -40 9.33301 -71.667 28 -95s45 -35 79 -35c67.333 0 101 43.333 101 130h76c0 -49.333 -15.333 -87.333 -46 -114s-74.334 -40 -131.001 -40zM85.002 0v502h90v-423l256 423h90v-502h-90v423
l-256 -423h-90z" />
    <glyph glyph-name="uni043A" unicode="&#x43a;" horiz-adv-x="572" 
d="M460 0l-285 257v-257h-90v502h90v-240l300 240h65l-272 -217l316 -285h-124z" />
    <glyph glyph-name="uni043B" unicode="&#x43b;" horiz-adv-x="553" 
d="M468 0l-89.999 0.000976562v465h-191c0 -219.333 -14 -358 -42 -416c-20.667 -40.667 -48.334 -61 -83.001 -61c-14.667 0 -26.167 3.5 -34.5 10.5s-12.5 16.833 -12.5 29.5c0 9.33301 2.5 17.666 7.5 24.999s10.333 13 16 17s14.5 9 26.5 15
c22 11.333 37.667 24.333 47 39s16.833 47 22.5 97s8.5 126.667 8.5 230v51h325v-502z" />
    <glyph glyph-name="uni043C" unicode="&#x43c;" horiz-adv-x="677" 
d="M129 0h-44v502h82l179 -287l166 287h80v-502h-90v398l-164 -281h-32l-177 282v-399z" />
    <glyph glyph-name="uni043D" unicode="&#x43d;" horiz-adv-x="596" 
d="M85 0v502h90v-223h246v223h90v-502h-90v242h-246v-242h-90z" />
    <glyph glyph-name="uni043E" unicode="&#x43e;" horiz-adv-x="630" 
d="M315 -12c-75.333 0 -138.666 24.667 -189.999 74s-77 112.666 -77 189.999c0 78 25.667 141.5 77 190.5s114.666 73.5 189.999 73.5s138.666 -24.5 189.999 -73.5s77 -112.5 77 -190.5c0 -77.333 -25.667 -140.666 -77 -189.999s-114.666 -74 -189.999 -74zM321 22
c44.667 0 82.834 17 114.501 51s47.5 84 47.5 150c0 68.667 -16.333 129.167 -49 181.5s-74.334 78.5 -125.001 78.5c-44.667 0 -82.834 -17.167 -114.501 -51.5s-47.5 -84.5 -47.5 -150.5c0 -68.667 16.333 -129 49 -181s74.334 -78 125.001 -78z" />
    <glyph glyph-name="uni043F" unicode="&#x43f;" horiz-adv-x="586" 
d="M411 465h-236v-465h-90v502h416v-502h-90v465z" />
    <glyph glyph-name="uni0440" unicode="&#x440;" horiz-adv-x="627" 
d="M85 -248v750.002h90v-74c36 58.667 91 88 165 88c70.667 0 128 -24.833 172 -74.5s66 -112.834 66 -189.501s-22 -139.834 -66 -189.501s-101.333 -74.5 -172 -74.5c-74 0 -129 29.333 -165 88v-324h-90zM301 472.002c-52 0 -94 -18.667 -126 -56v-328
c32.667 -37.333 74.667 -56 126 -56c53.333 0 96.333 20.667 129 62s49 94 49 158s-16.333 116.667 -49 158s-75.667 62 -129 62z" />
    <glyph glyph-name="uni0441" unicode="&#x441;" horiz-adv-x="574" 
d="M304 -12c-76.667 0 -138.5 24.668 -185.5 74.001s-70.5 112 -70.5 188c0 81.333 25.333 146 76 194s112.667 72 186 72c58.667 0 106.334 -11.833 143.001 -35.5s55 -49.834 55 -78.501c0 -14 -3.83301 -25.333 -11.5 -34s-17.5 -13 -29.5 -13
c-27.333 0 -46.333 16.667 -57 50c-6.66699 25.333 -18 45.333 -34 60s-41.667 22 -77 22c-46 0 -84.167 -17.333 -114.5 -52s-45.5 -83 -45.5 -145c0 -74 18.167 -133 54.5 -177s84.166 -66 143.499 -66c94 0 154 48 180 144h27c-28.667 -135.333 -108.667 -203 -240 -203z
" />
    <glyph glyph-name="uni0442" unicode="&#x442;" horiz-adv-x="480" 
d="M195 465h-185v37h460v-37h-185v-465h-90v465z" />
    <glyph glyph-name="uni0443" unicode="&#x443;" horiz-adv-x="555" 
d="M121 -248l128 256l-236 494h99l187 -393l196 393h51l-375 -750h-50z" />
    <glyph glyph-name="uni0444" unicode="&#x444;" horiz-adv-x="768" 
d="M429 -248h-90v236c-82.667 1.33301 -151.834 25.5 -207.501 72.5s-83.5 107.5 -83.5 181.5c0 80 27.833 145.333 83.5 196s124.834 76.667 207.501 78v264h90v-264c82.667 -1.33301 151.834 -25.5 207.501 -72.5s83.5 -107.5 83.5 -181.5
c0 -79.333 -27.833 -144.5 -83.5 -195.5s-124.834 -77.167 -207.501 -78.5v-236zM339 483c-52.667 0 -97.833 -18.001 -135.5 -54.001s-56.5 -88.667 -56.5 -158c0 -63.333 18 -119.666 54 -168.999s82 -76 138 -80v461zM621.001 232.999
c0 63.333 -18.001 119.833 -54.001 169.5s-82 76.5 -138 80.5v-461c52.667 0 97.834 17.833 135.501 53.5s56.5 88.167 56.5 157.5z" />
    <glyph glyph-name="uni0445" unicode="&#x445;" horiz-adv-x="551" 
d="M71 0h-58l220 245l-204 257h109l153 -193l174 193h58l-205 -227l218 -275h-109l-167 210z" />
    <glyph glyph-name="uni0446" unicode="&#x446;" horiz-adv-x="624" 
d="M484 0h-399v502h90v-465h236v465h90v-465h80l8 -174h-22l-62 124c-4.66699 8.66699 -11.667 13 -21 13z" />
    <glyph glyph-name="uni0447" unicode="&#x447;" horiz-adv-x="548" 
d="M373 0l0.000976562 214.001c-42.667 -10.667 -84.667 -16 -126 -16c-32 0 -58.833 2 -80.5 6s-42.834 11.667 -63.501 23s-36 29.166 -46 53.499s-15 55.5 -15 93.5v128h90v-128c0 -54.667 10.333 -91.167 31 -109.5s54 -27.5 100 -27.5c35.333 0 72 3.33301 110 10v255
h90v-502h-90z" />
    <glyph glyph-name="uni0448" unicode="&#x448;" horiz-adv-x="844" 
d="M175 37h202v465h90v-465h202v465h90v-502h-674v502h90v-465z" />
    <glyph glyph-name="uni0449" unicode="&#x449;" horiz-adv-x="882" 
d="M742 0h-657v502h90v-465h202v465h90v-465h202v465h90v-465h80l8 -174h-22l-62 124c-4.66699 8.66699 -11.667 13 -21 13z" />
    <glyph glyph-name="uni044A" unicode="&#x44a;" horiz-adv-x="572" 
d="M135 465l-125 0.000976562v37h215v-200h67c166.667 0 250 -45.667 250 -137c0 -48.667 -19.833 -88.334 -59.5 -119.001s-102.167 -46 -187.5 -46h-160v465zM225 265.001v-228h70c44 0 79.667 9.33301 107 28s41 48 41 88c0 38 -13.667 66.167 -41 84.5
s-63 27.5 -107 27.5h-70z" />
    <glyph glyph-name="uni044B" unicode="&#x44b;" horiz-adv-x="736" 
d="M561 0v502h90v-502h-90zM85 502l90 0.000976562v-200h67c166.667 0 250 -45.667 250 -137c0 -48.667 -19.833 -88.334 -59.5 -119.001s-102.167 -46 -187.5 -46h-160v502zM175 265.001v-228h70c44 0 79.667 9.33301 107 28s41 48 41 88c0 38 -13.667 66.167 -41 84.5
s-63 27.5 -107 27.5h-70z" />
    <glyph glyph-name="uni044C" unicode="&#x44c;" horiz-adv-x="522" 
d="M85 502l90 0.000976562v-200h67c166.667 0 250 -45.667 250 -137c0 -48.667 -19.833 -88.334 -59.5 -119.001s-102.167 -46 -187.5 -46h-160v502zM175 265.001v-228h70c44 0 79.667 9.33301 107 28s41 48 41 88c0 38 -13.667 66.167 -41 84.5s-63 27.5 -107 27.5h-70z
" />
    <glyph glyph-name="uni044D" unicode="&#x44d;" horiz-adv-x="583" 
d="M205 242v37.001h227c-8 61.333 -27.833 110.833 -59.5 148.5s-69.834 56.5 -114.501 56.5c-24 0 -41.667 -2.33301 -53 -7c-13.333 -6 -25.666 -18 -36.999 -36l-67 -106h-22l25 148c36.667 22 91.334 33 164.001 33c82 0 147 -25.333 195 -76s72 -113.334 72 -188.001
c0 -80 -25 -144 -75 -192s-113.667 -72 -191 -72c-64.667 0 -116.334 11.5 -155.001 34.5s-58 49.5 -58 79.5c0 15.333 3.83301 27 11.5 35s17.5 12 29.5 12c27.333 0 46.333 -16.667 57 -50c4.66699 -17.333 9.66699 -30.833 15 -40.5s16.333 -19 33 -28s39 -13.5 67 -13.5
c54.667 0 96.167 19.333 124.5 58s42.5 88 42.5 148v19h-231z" />
    <glyph glyph-name="uni044E" unicode="&#x44e;" horiz-adv-x="810" 
d="M85 0v501.998h90v-223h74c6 70.667 33.167 127.834 81.5 171.501s106.5 65.5 174.5 65.5c72.667 0 133.667 -24.5 183 -73.5s74 -112.5 74 -190.5c0 -77.333 -24.667 -140.666 -74 -189.999s-110.333 -74 -183 -74c-70.667 0 -130.5 23.5 -179.5 70.5
s-74.833 108.167 -77.5 183.5h-73v-242h-90zM511 21.998c42 0 77.833 17 107.5 51s44.5 84 44.5 150c0 68.667 -15.333 129.167 -46 181.5s-70 78.5 -118 78.5c-42 0 -77.833 -17.167 -107.5 -51.5s-44.5 -84.5 -44.5 -150.5c0 -68.667 15.333 -129 46 -181s70 -78 118 -78z
" />
    <glyph glyph-name="uni044F" unicode="&#x44f;" horiz-adv-x="558" 
d="M15 0l199 222c-42 5.33301 -77.5 19.333 -106.5 42s-43.5 53 -43.5 91c0 98 83 147 249 147h160v-502h-90v216h-69l-193 -216h-106zM327 468c-56.667 0 -98.334 -10.334 -125.001 -31.001s-40 -48 -40 -82c0 -31.333 13.333 -56.666 40 -75.999s68.334 -29 125.001 -29
h56v218h-56z" />
    <glyph glyph-name="uni0451" unicode="&#x451;" horiz-adv-x="590" 
d="M186 645c-16 0 -30.167 6.16699 -42.5 18.5s-18.5 26.833 -18.5 43.5c0 16 6.16699 30.167 18.5 42.5s26.5 18.5 42.5 18.5c16.667 0 31.167 -6.16699 43.5 -18.5s18.5 -26.5 18.5 -42.5c0 -16.667 -6.16699 -31.167 -18.5 -43.5s-26.833 -18.5 -43.5 -18.5zM417 645
c-16 0 -30.167 6.16699 -42.5 18.5s-18.5 26.833 -18.5 43.5c0 16 6.16699 30.167 18.5 42.5s26.5 18.5 42.5 18.5c16.667 0 31.167 -6.16699 43.5 -18.5s18.5 -26.5 18.5 -42.5c0 -16.667 -6.16699 -31.167 -18.5 -43.5s-26.833 -18.5 -43.5 -18.5zM307 -12
c-76.667 0 -138.5 24.666 -185.5 73.999s-70.5 112 -70.5 188c0 80 25.167 144.333 75.5 193s108.5 73 174.5 73c64 0 118 -18.5 162 -55.5s71 -89.833 81 -158.5h-402v-12c0 -74 18.333 -133 55 -177s84.667 -66 144 -66c96 0 157.333 46.333 184 139h27
c-14 -65.333 -41.833 -114.666 -83.5 -147.999s-95.5 -50 -161.5 -50zM299 486.999c-38.667 0 -72.168 -13.167 -100.501 -39.5s-46.166 -63.5 -53.499 -111.5h296c-4 50.667 -18.833 88.5 -44.5 113.5s-58.167 37.5 -97.5 37.5z" />
    <glyph glyph-name="uni0452" unicode="&#x452;" horiz-adv-x="600" 
d="M431 30l0.000976562 269c0 108 -41 162 -123 162c-38 0 -69.667 -13.333 -95 -40s-38 -67.667 -38 -123v-298h-90v624h-90v35h90v121h90v-121h130v-35h-130v-264c8.66699 52.667 29 91.834 61 117.501s70.667 38.5 116 38.5c112 0 168.333 -66.667 169 -200v-282
c0 -58.667 -6.83301 -102.834 -20.5 -132.501s-38.167 -58.5 -73.5 -86.5c-22.667 -16.667 -60.334 -42 -113.001 -76l-16 22l44 37.5c8 7 18.833 17.667 32.5 32s22.667 26.333 27 36s9.5 23 15.5 40s9.83301 35.167 11.5 54.5s2.5 42.333 2.5 69z" />
    <glyph glyph-name="uni0453" unicode="&#x453;" horiz-adv-x="437" 
d="M233 605l109 170h101v-7l-184 -163h-26zM427 465h-252v-465h-90v502h342v-37z" />
    <glyph glyph-name="uni0454" unicode="&#x454;" horiz-adv-x="574" 
d="M304 -12c-76.667 0 -138.5 24.668 -185.5 74.001s-70.5 112 -70.5 188c0 81.333 25.333 146 76 194s112.667 72 186 72c58.667 0 106.334 -11.833 143.001 -35.5s55 -49.834 55 -78.501c0 -14 -3.83301 -25.333 -11.5 -34s-17.5 -13 -29.5 -13
c-27.333 0 -46.333 16.667 -57 50c-6.66699 25.333 -18 45.333 -34 60s-41.667 22 -77 22c-46 0 -84.167 -17.333 -114.5 -52s-45.5 -83 -45.5 -145v-7h198v-35h-196c6.66699 -62 27.667 -111 63 -147s79.666 -54 132.999 -54c94 0 154 48 180 144h27
c-28.667 -135.333 -108.667 -203 -240 -203z" />
    <glyph glyph-name="uni0455" unicode="&#x455;" horiz-adv-x="486" 
d="M226 -12c-56.667 0 -107.334 10.667 -152.001 32l-18 167h30l42 -124c5.33301 -16 17.333 -26.667 36 -32s43.667 -8 75 -8c30.667 0 57.5 8.16699 80.5 24.5s34.5 38.833 34.5 67.5c0 26.667 -8.83301 47 -26.5 61s-43.5 24.667 -77.5 32l-48 11
c-42.667 10 -76 27.833 -100 53.5s-36 58.167 -36 97.5c0 44 18.333 79.333 55 106s82.334 40 137.001 40c50.667 0 94.334 -11 131.001 -33l25 -148h-30l-46 104c-12.667 28.667 -44.334 43 -95.001 43c-29.333 0 -54 -7.66699 -74 -23s-30 -35 -30 -59
c0 -47.333 30.667 -78 92 -92l48 -11c103.333 -23.333 155 -74 155 -152c0 -47.333 -19.667 -85.333 -59 -114s-89 -43 -149 -43z" />
    <glyph glyph-name="uni0456" unicode="&#x456;" horiz-adv-x="264" 
d="M71 717c0 16 6.16699 30.167 18.5 42.5s26.5 18.5 42.5 18.5c16.667 0 31.167 -6.16699 43.5 -18.5s18.5 -26.5 18.5 -42.5c0 -16.667 -6.16699 -31.167 -18.5 -43.5s-26.833 -18.5 -43.5 -18.5c-16 0 -30.167 6.16699 -42.5 18.5s-18.5 26.833 -18.5 43.5zM87 0v502h90
v-502h-90z" />
    <glyph glyph-name="uni0457" unicode="&#x457;" horiz-adv-x="264" 
d="M56 655c-16 0 -30.167 6.16699 -42.5 18.5s-18.5 26.833 -18.5 43.5c0 16 6.16699 30.167 18.5 42.5s26.5 18.5 42.5 18.5c16.667 0 31.167 -6.16699 43.5 -18.5s18.5 -26.5 18.5 -42.5c0 -16.667 -6.16699 -31.167 -18.5 -43.5s-26.833 -18.5 -43.5 -18.5zM206 655
c-16 0 -30.167 6.16699 -42.5 18.5s-18.5 26.833 -18.5 43.5c0 16 6.16699 30.167 18.5 42.5s26.5 18.5 42.5 18.5c16.667 0 31.167 -6.16699 43.5 -18.5s18.5 -26.5 18.5 -42.5c0 -16.667 -6.16699 -31.167 -18.5 -43.5s-26.833 -18.5 -43.5 -18.5zM89 0v502h90v-502h-90z
" />
    <glyph glyph-name="uni0458" unicode="&#x458;" horiz-adv-x="270" 
d="M77 717c0 16 6.16699 30.167 18.5 42.5s26.5 18.5 42.5 18.5c16.667 0 31.167 -6.16699 43.5 -18.5s18.5 -26.5 18.5 -42.5c0 -16.667 -6.16699 -31.167 -18.5 -43.5s-26.833 -18.5 -43.5 -18.5c-16 0 -30.167 6.16699 -42.5 18.5s-18.5 26.833 -18.5 43.5zM-24 -261
l-15.999 22.001l44 37.5c8 7 18.833 17.667 32.5 32s22.667 26.333 27 36s9.5 23 15.5 40s9.83301 35.167 11.5 54.5s2.5 42.333 2.5 69v472h90v-468c0 -58.667 -6.83301 -102.834 -20.5 -132.501s-38.167 -58.5 -73.5 -86.5c-22.667 -16.667 -60.334 -42 -113.001 -76z" />
    <glyph glyph-name="uni0459" unicode="&#x459;" horiz-adv-x="783" 
d="M143 451l0.000976562 51.002h293v-200h67c166.667 0 250 -45.667 250 -137c0 -48.667 -19.833 -88.334 -59.5 -119.001s-102.167 -46 -187.5 -46h-160v465h-159c0 -219.333 -14 -358 -42 -416c-20.667 -40.667 -48.334 -61 -83.001 -61c-14.667 0 -26.167 3.5 -34.5 10.5
s-12.5 16.833 -12.5 29.5c0 9.33301 2.5 17.666 7.5 24.999s10.333 13 16 17s14.5 9 26.5 15c22 11.333 37.667 24.333 47 39s16.833 47 22.5 97s8.5 126.667 8.5 230zM436.001 265.002v-228h70c44 0 79.667 9.33301 107 28s41 48 41 88c0 38 -13.667 66.167 -41 84.5
s-63 27.5 -107 27.5h-70z" />
    <glyph glyph-name="uni045A" unicode="&#x45a;" horiz-adv-x="823" 
d="M85 0v502h90v-208h211v208h90v-208h67c166.667 0 250 -46.333 250 -139c0 -48 -19.667 -85.833 -59 -113.5s-102 -41.5 -188 -41.5h-160v257h-211v-257h-90zM476 257v-220.001h70c98.667 0 148 35.333 148 106c0 38.667 -13.667 67.334 -41 86.001s-63 28 -107 28h-70z
" />
    <glyph glyph-name="uni045B" unicode="&#x45b;" horiz-adv-x="600" 
d="M177 0l-90 -0.000976562v624h-90v35h90v121h90v-121h130v-35h-130v-264c8.66699 52.667 29 91.834 61 117.501s70.667 38.5 116 38.5c112.667 0 169 -66.667 169 -200v-316h-90v299c0 108 -41 162 -123 162c-38 0 -69.667 -13.333 -95 -40s-38 -67.667 -38 -123v-298z
" />
    <glyph glyph-name="uni045C" unicode="&#x45c;" horiz-adv-x="568" 
d="M280 605l109 170h101v-7l-184 -163h-26zM460 0l-285 257v-257h-90v502h90v-240l300 240h65l-272 -217l316 -285h-124z" />
    <glyph glyph-name="uni045E" unicode="&#x45e;" horiz-adv-x="555" 
d="M298 634c-62.667 0 -108.832 14 -138.499 42s-44.5 65.333 -44.5 112h76c0 -40 9.33301 -71.667 28 -95s45 -35 79 -35c67.333 0 101 43.333 101 130h76c0 -49.333 -15.333 -87.333 -46 -114s-74.334 -40 -131.001 -40zM121.002 -248l128 256l-236 494h99l187 -393
l196 393h51l-375 -750h-50z" />
    <glyph glyph-name="uni045F" unicode="&#x45f;" horiz-adv-x="586" 
d="M245 -13c-2.66699 8.66699 -9.66699 13 -21 13h-139v502h90v-465h236v465h90v-502h-139c-11.333 0 -18.333 -4.33301 -21 -13l-39 -124h-19z" />
    <glyph glyph-name="uni0462" unicode="&#x462;" horiz-adv-x="862" 
d="M356 383h175c99.333 0 174.333 -14.833 225 -44.5s76 -72.5 76 -128.5c0 -140 -100.333 -210 -301 -210h-272v581h-249v47h249v130h97v-130h250v-47h-250v-198zM356 47h139c85.333 0 144.833 11.833 178.5 35.5s50.5 61.5 50.5 113.5c0 44.667 -17.333 79.167 -52 103.5
s-94 36.5 -178 36.5h-138v-289z" />
    <glyph glyph-name="uni0463" unicode="&#x463;" horiz-adv-x="602" 
d="M410 465h-155v-167h67c166.667 0 250 -45.667 250 -137c0 -47.333 -19.833 -86 -59.5 -116s-102.167 -45 -187.5 -45h-160v465h-155v37h155v278h90v-278h155v-37zM255 261v-224h70c44 0 79.667 9.16699 107 27.5s41 46.5 41 84.5s-13.667 66.167 -41 84.5
s-63 27.5 -107 27.5h-70z" />
    <glyph glyph-name="uni0472" unicode="&#x472;" horiz-adv-x="918" 
d="M459 -12c-112.667 0 -208 36.667 -286 110s-117 167.666 -117 282.999s38.833 209.666 116.5 282.999s173.167 110 286.5 110c112.667 0 208 -36.667 286 -110s117 -167.666 117 -282.999s-39 -209.666 -117 -282.999s-173.333 -110 -286 -110zM168 403v-7.00195
c49.333 18.667 96.5 31.167 141.5 37.5s83 7 114 2s62.167 -11.333 93.5 -19s58 -15.667 80 -24s46.833 -12.666 74.5 -12.999s53.167 3.83398 76.5 12.501c-5.33301 105.333 -35.5 188.333 -90.5 249s-122.5 91 -202.5 91s-147.833 -28.333 -203.5 -85
s-83.5 -138 -83.5 -244zM463 29.998c37.333 0 72.667 6.66797 106 20.001s63.333 32.833 90 58.5s48.167 59.5 64.5 101.5s24.833 89.667 25.5 143c-48.667 -20 -96.167 -31.833 -142.5 -35.5s-86.166 -1.33398 -119.499 6.99902l-106.5 25.5
c-37.667 8.66699 -71.834 15 -102.501 19s-66.667 0 -108 -12c8 -102 39.167 -182 93.5 -240s120.833 -87 199.5 -87z" />
    <glyph glyph-name="uni0473" unicode="&#x473;" horiz-adv-x="630" 
d="M315 -12c-75.333 0 -138.666 24.667 -189.999 74s-77 112.666 -77 189.999c0 78 25.667 141.5 77 190.5s114.666 73.5 189.999 73.5s138.666 -24.5 189.999 -73.5s77 -112.5 77 -190.5c0 -77.333 -25.667 -140.666 -77 -189.999s-114.666 -74 -189.999 -74zM147 281
v-12.999c33.333 16 65 25.5 95 28.5s54.5 1.33301 73.5 -5s39 -12.5 60 -18.5s38.5 -10.5 52.5 -13.5s31.333 0.5 52 10.5c-7.33301 59.333 -26.666 109.666 -57.999 150.999s-69 62 -113 62c-44.667 0 -82.834 -17.167 -114.501 -51.5s-47.5 -84.5 -47.5 -150.5z
M321 22.001c44.667 0 82.834 16.998 114.501 50.998s47.5 84 47.5 150v12c-28 -17.333 -55.333 -28.166 -82 -32.499s-49.834 -3.5 -69.501 2.5l-62 19c-21.667 6.66699 -41.167 11.834 -58.5 15.501s-37.666 1.5 -60.999 -6.5c7.33301 -58.667 26.666 -108.5 57.999 -149.5
s69 -61.5 113 -61.5z" />
    <glyph glyph-name="uni0474" unicode="&#x474;" horiz-adv-x="757" 
d="M630 548l-235.001 -553.999h-50l-334 764h106l276 -637l203 475c30 70 55.833 117.167 77.5 141.5s44.834 36.5 69.501 36.5c14.667 0 26.5 -3.66699 35.5 -11s13.5 -17.333 13.5 -30c0 -12 -3.16699 -21.833 -9.5 -29.5s-18.5 -16.167 -36.5 -25.5
c-17.333 -8.66699 -30.833 -16.334 -40.5 -23.001s-21.667 -19.167 -36 -37.5s-27.5 -41.5 -39.5 -69.5z" />
    <glyph glyph-name="uni0475" unicode="&#x475;" horiz-adv-x="547" 
d="M458 358l-167 -362.002h-34l-245 506h98l188 -388l131 288c20.667 44.667 38 74.834 52 90.501s29.667 23.5 47 23.5c13.333 0 24 -3.5 32 -10.5s12 -16.833 12 -29.5s-4.33301 -23.167 -13 -31.5s-18.667 -14.666 -30 -18.999s-24 -12.333 -38 -24
s-25 -26.167 -33 -43.5z" />
    <glyph glyph-name="uni0490" unicode="&#x490;" horiz-adv-x="603" 
d="M585 711h-380v-711h-97v758h369c6.66699 0 12 4 16 12l72 154h28z" />
    <glyph glyph-name="uni0491" unicode="&#x491;" horiz-adv-x="441" 
d="M423 465h-248v-465h-90v502h241c9.33301 0 16.333 4.33301 21 13l62 124h22z" />
    <glyph glyph-name="uni0492" unicode="&#x492;" horiz-adv-x="617" 
d="M20 372v47h100v339h467v-47h-370v-292h194v-47h-194v-372h-97v372h-100z" />
    <glyph glyph-name="uni0493" unicode="&#x493;" horiz-adv-x="469" 
d="M35 231v35h82v236h342v-37h-252v-199h117v-35h-117v-231h-90v231h-82z" />
    <glyph glyph-name="uni0496" unicode="&#x496;" horiz-adv-x="1178" 
d="M122 0h-138l427 413l-374 345h77l401 -370l1 -1v371h97v-371l1 1l401 370h72l-371 -343l380 -368h99l8 -213h-28l-72 154c-4 8 -9.33301 12 -16 12h-80l-394 380v-380h-97v380z" />
    <glyph glyph-name="uni0497" unicode="&#x497;" horiz-adv-x="869" 
d="M111 0h-123l293 284l-254 218h69l280 -240v240h90v-240l280 240h65l-254 -217l256 -248h73l8 -174h-22l-62 124c-4 8.66699 -11 13 -21 13h-58l-265 257v-257h-90v257z" />
    <glyph glyph-name="uni049A" unicode="&#x49a;" horiz-adv-x="814" 
d="M108 0v758h97v-371l2 2l450 369h72l-419 -344l423 -367h96l8 -213h-28l-72 154c-4 8 -9.33301 12 -16 12h-72l-444 381v-381h-97z" />
    <glyph glyph-name="uni049B" unicode="&#x49b;" horiz-adv-x="599" 
d="M460 0l-285 257v-257h-90v502h90v-240l300 240h65l-272 -217l275 -248h73l8 -174h-22l-62 124c-4 8.66699 -11 13 -21 13h-59z" />
    <glyph glyph-name="uni04A2" unicode="&#x4a2;" horiz-adv-x="881" 
d="M108 0v758h97v-339h444v339h97v-711h92l8 -213h-28l-72 154c-4 8 -9.33301 12 -16 12h-83v47h2v325h-444v-372h-97z" />
    <glyph glyph-name="uni04A3" unicode="&#x4a3;" horiz-adv-x="624" 
d="M85 0v502h90v-223h246v223h90v-465h80l8 -174h-22l-62 124c-4.66699 8.66699 -11.667 13 -21 13h-73v242h-246v-242h-90z" />
    <glyph glyph-name="uni04AE" unicode="&#x4ae;" horiz-adv-x="765" 
d="M431 342v-342h-97v342l-316 416h114l275 -363l277 363h63z" />
    <glyph glyph-name="uni04AF" unicode="&#x4af;" horiz-adv-x="548" 
d="M319 -248h-90v249l-217 501h98l188 -435l188 435h50l-217 -501v-249z" />
    <glyph glyph-name="uni04B0" unicode="&#x4b0;" horiz-adv-x="765" 
d="M139 296v47h194l-315 415h114l275 -363l277 363h63l-315 -415h189v-47h-190v-296h-97v296h-195z" />
    <glyph glyph-name="uni04B1" unicode="&#x4b1;" horiz-adv-x="548" 
d="M91 -46v46h138v1l-217 501h98l188 -435l188 435h50l-217 -501v-1h138v-46h-138v-202h-90v202h-138z" />
    <glyph glyph-name="uni04B2" unicode="&#x4b2;" horiz-adv-x="778" 
d="M-5 0l327 386l-287 372h119l231 -298l252 298h64l-286 -337l290 -374h90l8 -213h-28l-72 154c-4 8 -9.33301 12 -16 12h-66l-268 347l-295 -347h-63z" />
    <glyph glyph-name="uni04B3" unicode="&#x4b3;" horiz-adv-x="561" 
d="M71 0h-58l220 245l-204 257h109l153 -193l174 193h58l-205 -227l189 -238h71l8 -174h-22l-62 124c-4 8.66699 -11 13 -21 13h-54l-167 210z" />
    </font>
</defs>
</svg>
