<svg width="36" height="36" viewBox="0 0 36 36" fill="none" xmlns="http://www.w3.org/2000/svg">
<g clip-path="url(#clip0)">
<path d="M17.8275 0.165039C7.98164 0.165039 0 8.14669 0 17.9925C0 27.7266 7.89098 35.6175 17.625 35.6175H18.3375C28.0715 35.6175 35.9625 27.7266 35.9625 17.9925V17.4596C35.9625 7.90807 28.2195 0.165039 18.668 0.165039H17.8275Z" fill="url(#paint0_linear)"/>
<path d="M18.0354 8.02522C13.9602 8.02522 10.0904 7.66299 8.61231 11.4535C8.00176 13.019 8.09043 15.0522 8.09043 17.9634C8.09043 20.5181 8.0085 22.9191 8.61231 24.4723C10.0871 28.265 13.9883 27.9017 18.0332 27.9017C21.9355 27.9017 25.9591 28.3076 27.4551 24.4723C28.0668 22.8911 27.977 20.8882 27.977 17.9634C27.977 14.081 28.1914 11.5746 26.307 9.6928C24.399 7.78635 21.8188 8.02522 18.0309 8.02522H18.0354ZM17.1443 9.81616C25.6448 9.8027 26.7267 8.85845 26.1297 21.976C25.9175 26.6154 22.3822 26.1062 18.0365 26.1062C10.1129 26.1062 9.88504 25.8797 9.88504 17.959C9.88504 9.94625 10.5135 9.82065 17.1443 9.81392V9.81616ZM23.344 11.4658C22.6852 11.4658 22.151 11.9996 22.151 12.6579C22.151 13.3162 22.6852 13.85 23.344 13.85C24.0028 13.85 24.5371 13.3162 24.5371 12.6579C24.5371 11.9996 24.0028 11.4658 23.344 11.4658ZM18.0354 12.8598C15.215 12.8598 12.9288 15.1453 12.9288 17.9634C12.9288 20.7816 15.215 23.066 18.0354 23.066C20.8558 23.066 23.1409 20.7816 23.1409 17.9634C23.1409 15.1453 20.8558 12.8598 18.0354 12.8598ZM18.0354 14.6507C22.4181 14.6507 22.4237 21.2762 18.0354 21.2762C13.6538 21.2762 13.6471 14.6507 18.0354 14.6507Z" fill="white"/>
</g>
<defs>
<linearGradient id="paint0_linear" x1="2.31902" y1="33.7007" x2="35.7772" y2="4.743" gradientUnits="userSpaceOnUse">
<stop stop-color="#FFDD55"/>
<stop offset="0.5" stop-color="#FF543E"/>
<stop offset="1" stop-color="#C837AB"/>
</linearGradient>
<clipPath id="clip0">
<rect width="36" height="36" fill="white"/>
</clipPath>
</defs>
</svg>
